<?xml version="1.0" encoding="utf-8"?>
<!-- Generator: Adobe Illustrator 28.0.0, SVG Export Plug-In . SVG Version: 6.00 Build 0)  -->
<svg version="1.1" id="Layer_1" xmlns="http://www.w3.org/2000/svg" xmlns:xlink="http://www.w3.org/1999/xlink" x="0px" y="0px"
	 viewBox="0 0 1500 1500" style="enable-background:new 0 0 1500 1500;" xml:space="preserve">
<style type="text/css">
	.st0{fill-rule:evenodd;clip-rule:evenodd;fill:#A4B4D8;}
	.st1{clip-path:url(#SVGID_00000096055629875841307050000018202129331115282614_);}
	.st2{fill-rule:evenodd;clip-rule:evenodd;fill:#E9E8E4;}
	.st3{fill-rule:evenodd;clip-rule:evenodd;}
	.st4{fill-rule:evenodd;clip-rule:evenodd;fill:#EC7A26;}
	.st5{fill-rule:evenodd;clip-rule:evenodd;fill:#AAB7B9;}
	.st6{fill-rule:evenodd;clip-rule:evenodd;fill:#CE5A23;}
	.st7{fill-rule:evenodd;clip-rule:evenodd;fill:#EA7A2F;}
	.st8{fill-rule:evenodd;clip-rule:evenodd;fill:#CA642F;}
	.st9{fill-rule:evenodd;clip-rule:evenodd;fill:#4568CD;}
	.st10{fill-rule:evenodd;clip-rule:evenodd;fill:#FFFFFF;}
	.st11{clip-path:url(#SVGID_00000048503276021301334830000007584435962450817156_);}
	.st12{clip-path:url(#SVGID_00000142879241738073159290000006592742301480725174_);}
	.st13{clip-path:url(#SVGID_00000153703148196820892030000012655470417715463553_);}
	.st14{clip-path:url(#SVGID_00000030479137853614688180000003849655670411439516_);}
	.st15{clip-path:url(#SVGID_00000111881467201665800950000016839292104781874831_);}
	.st16{clip-path:url(#SVGID_00000102534240374302111230000004625091057017888688_);}
	.st17{fill-rule:evenodd;clip-rule:evenodd;fill:#F8C47E;}
	.st18{fill-rule:evenodd;clip-rule:evenodd;fill:#F6B051;}
	.st19{fill-rule:evenodd;clip-rule:evenodd;fill:#DDAC68;}
	.st20{fill-rule:evenodd;clip-rule:evenodd;fill:#B57A29;}
	.st21{fill-rule:evenodd;clip-rule:evenodd;fill:#F0AE9E;}
	.st22{fill-rule:evenodd;clip-rule:evenodd;fill:#F8C6BA;}
	.st23{fill-rule:evenodd;clip-rule:evenodd;fill:#5C78B9;}
	.st24{fill-rule:evenodd;clip-rule:evenodd;fill:#F6E4D7;}
	.st25{fill-rule:evenodd;clip-rule:evenodd;fill:#D3D3D3;}
	.st26{fill-rule:evenodd;clip-rule:evenodd;fill:#C6461E;}
	.st27{fill-rule:evenodd;clip-rule:evenodd;fill:#F69B79;}
	.st28{fill-rule:evenodd;clip-rule:evenodd;fill:#F8D62D;}
	.st29{fill-rule:evenodd;clip-rule:evenodd;fill:#F69179;}
</style>
<g>
	<g>
		<polygon class="st0" points="1500,0 1500,1500 0,1500 0,0 1500,0 		"/>
	</g>
	<g>
		<defs>
			<polygon id="SVGID_1_" points="1500,0 1500,1500 0,1500 0,0 1500,0 			"/>
		</defs>
		<clipPath id="SVGID_00000010296926236745538900000012622514466578306965_">
			<use xlink:href="#SVGID_1_"  style="overflow:visible;"/>
		</clipPath>
		<g style="clip-path:url(#SVGID_00000010296926236745538900000012622514466578306965_);">
			<path class="st2" d="M1331.9,643.8c-5.2,17.8-3.7,38.6,10.4,58.2c34.9,48.7,23.7,190.3-94.3,207.1
				c-116.7,16.6-119.1-31.2-119.1-31.2s-61.2-41.7,0-84.9c61.2-43.2,105.2-61.2,119.1-116.7c3.3-13.3,10.4-57.3,16.5-95.2
				c9.5-59.7,135.6-70.8,111.8,36C1375.5,620.8,1355.5,638.5,1331.9,643.8L1331.9,643.8z"/>
		</g>
		<g style="clip-path:url(#SVGID_00000010296926236745538900000012622514466578306965_);">
			<path class="st3" d="M1332.8,644.7c-4.9,17.4-3.3,37.7,10.4,56.7c14.1,19.6,20.8,54.3,16,89.9c-7.1,53.3-39.7,108.8-111,118.9
				c-110.8,15.8-119.6-26.4-120.2-31.7c-2-1.5-11.5-8.5-18.7-19.1c-5.5-8-9.6-18-8.4-29.1c1.3-11.8,8.7-24.9,27.4-38.1
				c30.6-21.6,56.9-36.8,77.2-53.7c20.2-16.7,34.6-34.9,41.5-62.4c3.3-13.3,10.4-57.3,16.4-95.2c3.4-21.3,21.3-36.6,42.1-42.7
				c20.8-6.1,44.6-3.1,59.6,12c12.8,12.9,19.4,34.6,12.1,67.1c-0.1,0.4-0.4,1-0.8,1.7c-0.9,1.3-2.6,3.1-5,5.2
				C1363.9,631.1,1349.2,640.8,1332.8,644.7L1332.8,644.7z M1331.7,642.8c16.3-3.7,30.9-13.4,38.4-20.1c1.9-1.7,3.4-3.2,4.3-4.3
				c0.5-0.6,0.8-1.1,0.9-1.5c7-31.5,0.9-52.7-11.6-65.2c-14.5-14.5-37.4-17.3-57.5-11.4c-20.1,5.9-37.4,20.5-40.7,41
				c-6,37.9-13.2,82.1-16.5,95.3c-7,28-21.6,46.5-42.1,63.5c-20.4,16.9-46.7,32.2-77.4,53.8c-18,12.7-25.3,25.2-26.6,36.6
				c-1.2,10.6,2.8,20.1,8,27.7c7.9,11.6,18.5,18.8,18.5,18.8c0.3,0.2,0.4,0.5,0.5,0.8c0,0,2.5,46.6,117.9,30.2
				c70.2-10,102.3-64.6,109.3-117.1c4.6-35-1.8-69.1-15.7-88.4c-14.3-19.9-15.8-41-10.5-59.1C1331,643.2,1331.3,642.9,1331.7,642.8
				L1331.7,642.8z"/>
		</g>
		<g style="clip-path:url(#SVGID_00000010296926236745538900000012622514466578306965_);">
			<path class="st4" d="M1320,626.3c46.6,1.4,69,36.3,79.5,34.8c14-7.1-8.8-76.1-43.9-83.2c-9-1.8-24.8-2.1-35.6,7.4
				C1304,601,1304.8,625.9,1320,626.3L1320,626.3z"/>
		</g>
		<g style="clip-path:url(#SVGID_00000010296926236745538900000012622514466578306965_);">
			<path class="st3" d="M1320,627.4c-6.6-0.2-10.8-4.6-12.2-10.9c-2-9,1.6-22.1,11.5-31.8c0,0,0,0,0,0c11.1-9.8,27.3-9.5,36.5-7.7
				c10,2,19.1,9,26.6,18.1c11.1,13.6,18.9,32.1,21.4,46.1c1.1,6.1,1.2,11.5,0.2,15.2c-0.8,2.8-2.1,4.7-4,5.7c-0.1,0-0.2,0.1-0.3,0.1
				c-1.4,0.2-3.1-0.1-4.9-1c-2.5-1.1-5.4-3.2-8.9-5.8C1372.9,645.7,1352.3,628.4,1320,627.4L1320,627.4z M1320.1,625.3
				c32.9,1,53.9,18.5,67.1,28.4c3.3,2.5,6.1,4.5,8.5,5.6c1.3,0.6,2.5,0.9,3.6,0.8c1.4-0.8,2.2-2.3,2.8-4.3c1-3.5,0.8-8.5-0.2-14.3
				c-2.4-13.8-10-31.8-20.9-45.1c-7.2-8.8-15.8-15.5-25.4-17.4c-8.8-1.8-24.2-2.1-34.7,7.2c-9.3,9-12.8,21.3-10.9,29.8
				C1311,621.3,1314.5,625.1,1320.1,625.3L1320.1,625.3z"/>
		</g>
		<g style="clip-path:url(#SVGID_00000010296926236745538900000012622514466578306965_);">
			<path class="st5" d="M1221.9,717.7c21-15.3,101.1,80.4-45,155C1040.7,942.3,1018.9,802.7,1221.9,717.7L1221.9,717.7z"/>
		</g>
		<g style="clip-path:url(#SVGID_00000010296926236745538900000012622514466578306965_);">
			<path class="st3" d="M1221.4,716.8L1221.4,716.8c2.8-1.9,6.4-2.2,10.4-1c5.8,1.7,12.4,6.6,18,13.9
				c21.8,27.9,30.7,91.2-72.5,143.9c-33,16.8-59.3,21.5-77.5,17.7c-12.4-2.6-21-9-25.4-18.2c-6.6-13.6-4-33.2,9.5-55.3
				C1104,785.3,1148.1,747.5,1221.4,716.8L1221.4,716.8z M1222.3,718.7c-72.8,30.5-116.6,68-136.5,100.3
				c-13.1,21.2-15.8,40.2-9.4,53.3c4.2,8.6,12.3,14.6,24,17.1c17.8,3.7,43.7-1,76.1-17.5c101.2-51.7,93.1-113.5,71.8-140.8
				c-5.4-6.9-11.6-11.6-17-13.2c-3.4-1-6.4-0.9-8.7,0.8C1222.4,718.6,1222.4,718.6,1222.3,718.7L1222.3,718.7z"/>
		</g>
		<g style="clip-path:url(#SVGID_00000010296926236745538900000012622514466578306965_);">
			<path class="st3" d="M1297.4,563.6c-0.5,0.3-1.1,0-1.4-0.5c-0.3-0.5,0-1.1,0.5-1.4c1.4-0.7,3.4-0.7,5.7-0.2
				c4.7,1,10.4,3.8,11.3,4.2c0.3,0.2,0.5,0.5,0.6,0.8c0,0.4-0.1,0.7-0.4,0.9c-6.6,5.4-6.8,4.8-12.9,10.9c-0.4,0.4-1.1,0.4-1.5,0
				c-0.4-0.4-0.4-1.1,0-1.5c5.8-5.8,6.4-5.7,11.8-10c-2.1-1-5.9-2.7-9.3-3.3C1300,563.2,1298.4,563.1,1297.4,563.6L1297.4,563.6z"/>
		</g>
		<g style="clip-path:url(#SVGID_00000010296926236745538900000012622514466578306965_);">
			<path class="st3" d="M1346,551.1c0.3-0.5,1-0.6,1.4-0.3c0.5,0.3,0.6,1,0.3,1.4c-0.6,0.9-1,0.4-7.9,9.6c3.5,0.4,10.8,1.5,13.5,2.9
				c0.5,0.3,0.7,0.9,0.5,1.4c-0.3,0.5-0.9,0.7-1.4,0.5c-3.3-1.7-13.5-2.8-14.6-2.9c-0.4,0-0.7-0.3-0.8-0.6c-0.1-0.3-0.1-0.7,0.1-1
				C1345,551.4,1345.4,552.1,1346,551.1L1346,551.1z"/>
		</g>
		<g style="clip-path:url(#SVGID_00000010296926236745538900000012622514466578306965_);">
			<path class="st3" d="M1347.1,629.7c0.6,0.1,0.9,0.7,0.8,1.2c-0.1,0.6-0.7,0.9-1.2,0.8c-2.4-0.5-17.2-3.4-24.7-18.6
				c-0.3-0.5,0-1.1,0.5-1.4c0.5-0.3,1.1,0,1.4,0.5C1330.9,626.4,1344.8,629.2,1347.1,629.7L1347.1,629.7z"/>
		</g>
		<g style="clip-path:url(#SVGID_00000010296926236745538900000012622514466578306965_);">
			<path class="st3" d="M1197.9,772.1c0.1,0,0.4,0,0.6,0c0.1,0,0.2,0,0.4,0c0.3-0.1,0.7-0.1,1.1-0.2c3.3-0.9,7.8-3.2,8.8-3.6
				c0.3-0.1,0.7-0.1,1,0.2c0.3,0.2,0.4,0.6,0.4,1c-0.5,3.7-2.1,8.7-2.4,12.7c-0.1,1.1,0,2,0.2,2.8c0.2,0.6,0.5,1.2,1,1.5
				c0.8,0.5,1.9,0.6,3.6,0.3c1.3-0.3,9.4-1.9,12.2-10.3c0.2-0.5,0.8-0.8,1.3-0.7c0.5,0.2,0.8,0.8,0.7,1.3
				c-3.2,9.6-12.4,11.4-13.8,11.7c-2.9,0.6-4.8,0-5.9-1.2c-0.7-0.7-1.1-1.7-1.3-2.9c-0.3-1.5-0.1-3.4,0.2-5.4
				c0.4-2.7,1.2-5.8,1.8-8.4c-2.4,1.1-6.5,2.9-9,3.2c-1.3,0.1-2.2-0.2-2.7-0.7c-0.4-0.4-0.6-1.1-0.3-2c0.1-0.5,0-1.8,0.1-3.2
				c0.2-2.6,1-5.7,4.5-7.5c0.5-0.3,1.1,0,1.4,0.5c0.3,0.5,0,1.1-0.5,1.4c-2.7,1.3-3.2,3.8-3.3,5.7c-0.1,1.6,0,3-0.1,3.6
				C1197.9,772,1197.9,772,1197.9,772.1L1197.9,772.1z"/>
		</g>
		<g style="clip-path:url(#SVGID_00000010296926236745538900000012622514466578306965_);">
			<path class="st3" d="M1148.7,790.5c0,0,0.1,0.1,0.1,0.1c0.1,0.1,0.3,0.1,0.5,0.1c0.3,0.1,0.6,0.1,0.9,0.1
				c4.4,0.2,13.2-2.3,14.1-2.5c0.4-0.1,0.8,0,1.1,0.3c0.3,0.3,0.3,0.8,0.1,1.1c-4.3,8.7-5.6,13.4-5.6,16.2c0,1.1,0.2,1.8,0.5,2.2
				c0.3,0.4,0.7,0.6,0.9,0.7c0.5,0.3,2.2,1.1,4.6,0.8c2.5-0.3,5.7-1.9,9.1-6.5c0.3-0.5,1-0.6,1.5-0.2c0.5,0.3,0.6,1,0.2,1.5
				c-3.9,5.2-7.7,6.9-10.5,7.3c-3,0.4-5.1-0.7-5.8-1c-0.5-0.2-1.1-0.6-1.7-1.3c-0.5-0.7-0.9-1.7-0.9-3.4c0-2.6,1.1-7.2,4.9-15
				c-3.2,0.8-9.2,2.2-12.5,2c-1.6-0.1-2.7-0.5-3.2-1.2c-0.4-0.6-0.5-1.4,0-2.4c3-5.9,4-5,7-11c0.3-0.5,0.9-0.7,1.4-0.5
				c0.5,0.3,0.7,0.9,0.5,1.4c-3,6-4,5.1-7,11C1148.8,790.3,1148.7,790.4,1148.7,790.5L1148.7,790.5z"/>
		</g>
		<g style="clip-path:url(#SVGID_00000010296926236745538900000012622514466578306965_);">
			<path class="st3" d="M1198.1,831.4c0,0,0.1,0,0.1,0c0.2-0.1,0.4-0.2,0.6-0.3c0.7-0.4,1.5-1.2,2.4-2.1c3.7-3.8,8.2-10.4,8.5-10.9
				c0.2-0.4,0.7-0.5,1.1-0.4c0.4,0.1,0.7,0.5,0.8,0.9c0.7,6.3-0.1,12,0.2,15.3c0.1,0.5,0.1,1,0.3,1.4c0.1,0.2,0.2,0.4,0.3,0.5
				c0.3,0.2,0.7,0.1,1.3-0.1c0.9-0.3,2-0.9,3.5-1.9c1.2-0.8,2.5-3.1,3.7-5.9c3-7,5.5-17.1,5.9-18.5c0.1-0.6,0.7-0.9,1.3-0.8
				c0.6,0.1,0.9,0.7,0.8,1.3c-0.4,1.5-2.9,11.8-6,18.8c-1.4,3.2-3,5.8-4.4,6.8c-2,1.3-3.5,2.1-4.6,2.3c-1,0.2-1.8,0.1-2.4-0.3
				c-0.9-0.5-1.4-1.7-1.6-3.4c-0.3-2.8,0.2-7.3,0-12.5c-2.3,3.2-6.5,8.8-9.4,10.8c-0.7,0.5-1.4,0.8-1.9,0.9c-0.6,0.1-1.1,0-1.5-0.2
				c-0.6-0.3-1.1-1-1.2-2.3c-0.2-1.4,0.1-3.8,1-7.5c1.8-7.3,2.4-6.8,5-14.1c0.2-0.5,0.8-0.8,1.3-0.6c0.5,0.2,0.8,0.8,0.6,1.3
				c-2.6,7.2-3.2,6.7-5,13.9c-0.8,3.1-1.1,5.2-1,6.5c0,0.3,0.1,0.5,0.1,0.7C1198,831.2,1198.1,831.3,1198.1,831.4L1198.1,831.4z"/>
		</g>
		<g style="clip-path:url(#SVGID_00000010296926236745538900000012622514466578306965_);">
			<path class="st3" d="M1312.3,771.4C1312.4,771.4,1312.4,771.4,1312.3,771.4c0.3-0.3,0.5-0.5,0.7-0.9c1-1.5,2.3-4.4,3.9-9.2
				c0.4-1.3,0.9-2.1,1.3-2.5c0.2-0.2,0.4-0.4,0.6-0.5l0.4-0.2l0.4-0.1l0.4,0l0.3,0.1c0.2,0.1,0.5,0.3,0.7,0.5c0.4,0.4,0.8,1.1,1.1,2
				c2.4,6,4.1,23.2,4.7,25.7c0.1,0.6-0.2,1.1-0.8,1.3c-0.6,0.1-1.1-0.2-1.3-0.8c-0.5-2.2-1.9-15.1-3.7-22.4
				c-0.3-1.4-0.7-2.6-1.1-3.5c-0.1-0.3-0.3-0.5-0.4-0.7c0,0.1-0.1,0.1-0.1,0.2c-0.2,0.4-0.4,0.9-0.6,1.5c-2,5.9-3.5,9.1-4.7,10.5
				c-0.8,0.9-1.6,1.2-2.1,1.1l-0.4-0.1l-0.4-0.2c-0.2-0.1-0.4-0.3-0.5-0.5c-0.3-0.4-0.7-1-0.9-1.9c-1.3-4.4-0.9-15.2-1-16.2
				c-0.1-0.6,0.4-1.1,0.9-1.1c0.6-0.1,1.1,0.4,1.1,0.9c0.1,0.9-0.2,9.1,0.6,14.1c0.2,1,0.3,1.8,0.6,2.4
				C1312.2,771.2,1312.3,771.3,1312.3,771.4L1312.3,771.4z"/>
		</g>
		<g style="clip-path:url(#SVGID_00000010296926236745538900000012622514466578306965_);">
			<path class="st3" d="M1292,819.6c0.7-0.3,1.7-1.2,3.2-2.7c5.8-5.8,9.6-8.6,11.8-9.5c1.4-0.5,2.3-0.4,3,0c0.6,0.4,1.1,1.2,1.2,2.2
				c0.1,1.1-0.1,2.7-0.6,4.6c-1.7,6.6-6.5,16.3-6.8,16.8c-0.3,0.5-0.9,0.7-1.4,0.5c-0.5-0.3-0.7-0.9-0.5-1.4c0.3-0.5,5-10,6.6-16.4
				c0.3-1.3,0.5-2.4,0.5-3.4c0-0.3,0-0.6-0.1-0.8c0-0.2-0.1-0.3-0.2-0.4c-0.1-0.1-0.3-0.1-0.5,0c-0.4,0.1-0.9,0.3-1.5,0.6
				c-2.2,1.2-5.4,3.8-10.2,8.6c-2,2-3.3,2.9-4.2,3.2c-0.4,0.2-0.8,0.2-1.1,0.1l-0.4-0.1l-0.4-0.2c-0.4-0.3-0.6-0.8-0.6-1.6
				c0-1.2,0.5-3.4,1.4-5.8c2-5.4,5.4-12.1,5.6-12.7c0.3-0.5,0.9-0.7,1.4-0.5c0.5,0.3,0.7,0.9,0.5,1.4c-0.3,0.7-5.3,10.5-6.6,15.7
				c-0.1,0.6-0.2,1.1-0.3,1.5C1292,819.4,1292,819.5,1292,819.6L1292,819.6z"/>
		</g>
		<g style="clip-path:url(#SVGID_00000010296926236745538900000012622514466578306965_);">
			<path class="st3" d="M1289.9,691.5c0.1,0.5-0.2,1.1-0.7,1.2c-0.5,0.2-1.1-0.1-1.3-0.7c-0.1-0.2-0.7-6.8-1.9-10.7
				c-0.2-0.6-0.4-1.1-0.6-1.5c-0.1-0.1-0.1-0.2-0.2-0.3c-0.1,0.2-0.3,0.4-0.4,0.6c-1,2-2,3.3-2.8,4.1c-0.7,0.6-1.4,0.9-2.1,1
				c-0.7,0.1-1.4-0.1-2-0.6c-0.7-0.5-1.4-1.5-2-2.7c-1.7-3.5-2.6-9.5-3.1-13.2c-0.1-0.6,0.3-1.1,0.9-1.2c0.6-0.1,1.1,0.3,1.2,0.9
				c0.4,3.5,1.3,9.2,2.9,12.5c0.3,0.7,0.7,1.3,1.1,1.7c0.2,0.2,0.5,0.4,0.8,0.4c0.4,0,0.8-0.3,1.2-0.8c0.6-0.7,1.3-1.7,2-3.1
				c0.7-1.5,1.6-2,2.3-2c0.7,0,1.5,0.5,2.1,1.6c0.8,1.6,1.5,4.8,1.9,7.5C1289.6,688.8,1289.8,690.9,1289.9,691.5
				C1289.9,691.4,1289.9,691.4,1289.9,691.5L1289.9,691.5z"/>
		</g>
		<g style="clip-path:url(#SVGID_00000010296926236745538900000012622514466578306965_);">
			<path class="st6" d="M-226.3,1104.5c170.9-40.3,233.6-43.5,411.9-77.4c0,0,0,0-43.1,123c-25.6,11.3-354.5,157-325.8,131.5
				L-226.3,1104.5L-226.3,1104.5z"/>
		</g>
		<g style="clip-path:url(#SVGID_00000010296926236745538900000012622514466578306965_);">
			<path class="st3" d="M184.9,1026.8l0.7,1l0.7-0.5l-43.1,123c-0.1,0.2-0.2,0.3-0.4,0.4c-23.1,10.2-291.9,129.2-324.5,134.4
				c-1.4,0.2-2.4,0.2-3,0c-0.4-0.1-0.7-0.4-0.9-0.6l-0.1-0.3l0-0.3c0-0.2,0-0.3,0.1-0.5c0.2-0.5,0.7-1.2,1.6-2.1l-42.8-176.7
				c0-0.2,0-0.4,0.1-0.6c0.1-0.2,0.3-0.3,0.5-0.3c171-40.4,233.7-43.5,411.9-77.4C185.2,1026.4,184.9,1026.5,184.9,1026.8
				L184.9,1026.8z M184.4,1028c-177,33.6-239.9,36.9-409.8,77l42.8,176.4c0.1,0.3,0,0.5-0.2,0.7c-0.5,0.5-0.9,0.9-1.2,1.2
				c-0.1,0.1-0.2,0.3-0.2,0.4c0.2,0,0.7,0.1,1.2,0.1c0.3,0,0.7-0.1,1.1-0.1c32.4-5.1,299-123.1,323.9-134.1L184.4,1028L184.4,1028z"
				/>
		</g>
		<g style="clip-path:url(#SVGID_00000010296926236745538900000012622514466578306965_);">
			<path class="st6" d="M1685.4,1094.2c-170.9-47.1-233.6-50.9-411.8-90.5c0,0,0,0,43.1,143.7c25.6,13.3,354.5,183.4,325.8,153.6
				L1685.4,1094.2L1685.4,1094.2z"/>
		</g>
		<g style="clip-path:url(#SVGID_00000010296926236745538900000012622514466578306965_);">
			<path class="st3" d="M1273.6,1004.4l0.7-0.9c-0.1-0.2-0.3-0.4-0.5-0.5c178.2,39.6,240.9,43.3,411.9,90.5c0.4,0.1,0.6,0.5,0.5,0.9
				l-42.9,206.5c0.8,0.8,1.3,1.5,1.5,2.1c0.3,0.6,0.2,1.1,0.1,1.5c-0.2,0.4-0.6,0.7-1.2,0.8c-0.6,0.1-1.5,0.1-2.7-0.1
				c-32.6-6-301.5-145.1-324.5-157c-0.2-0.1-0.3-0.2-0.4-0.4l-43.1-143.7L1273.6,1004.4L1273.6,1004.4z M1274.7,1004.7l42.7,142.2
				c24.8,12.8,291.4,150.7,323.9,156.7c0.7,0.1,1.2,0.2,1.7,0.2c0.2,0,0.6-0.1,0.7-0.1c0,0,0-0.1,0-0.1c0-0.2-0.1-0.3-0.3-0.5
				c-0.1-0.2-0.3-0.4-0.4-0.6c-0.2-0.3-0.5-0.6-0.8-0.9c-0.2-0.2-0.2-0.4-0.2-0.7l42.8-206.2
				C1514.5,1047.8,1451.7,1044,1274.7,1004.7L1274.7,1004.7z"/>
		</g>
		<g style="clip-path:url(#SVGID_00000010296926236745538900000012622514466578306965_);">
			<polygon class="st7" points="1634.7,1192.5 1634.7,1775.3 -142.4,1775.3 -142.4,1192.5 802.2,911 1634.7,1192.5 			"/>
		</g>
		<g style="clip-path:url(#SVGID_00000010296926236745538900000012622514466578306965_);">
			<path class="st3" d="M1635.7,1192.5v582.8c0,0.6-0.5,1-1,1H-142.4c-0.6,0-1-0.5-1-1v-582.8c0-0.5,0.3-0.9,0.7-1L801.9,910
				c0.2-0.1,0.4-0.1,0.6,0l832.5,281.5C1635.4,1191.6,1635.7,1192,1635.7,1192.5L1635.7,1192.5z M1633.6,1193.2L802.2,912.1
				l-943.5,281.2v581c48.5,0,1775,0,1775,0V1193.2L1633.6,1193.2z"/>
		</g>
		<g style="clip-path:url(#SVGID_00000010296926236745538900000012622514466578306965_);">
			<polygon class="st8" points="1543.7,1421.7 1543.7,1949.6 -65.9,1949.6 -65.9,1421.7 750,991.5 1543.7,1421.7 			"/>
		</g>
		<g style="clip-path:url(#SVGID_00000010296926236745538900000012622514466578306965_);">
			<path class="st3" d="M1544.7,1421.7v527.9c0,0.6-0.5,1-1,1H-65.9c-0.6,0-1-0.5-1-1v-527.9c0-0.4,0.2-0.7,0.6-0.9l815.9-430.2
				c0.3-0.2,0.7-0.2,1,0l793.7,430.2C1544.5,1421,1544.7,1421.4,1544.7,1421.7L1544.7,1421.7z M1542.7,1422.4L750,992.7
				l-814.9,429.7v526.2h1607.6V1422.4L1542.7,1422.4z"/>
		</g>
		<g style="clip-path:url(#SVGID_00000010296926236745538900000012622514466578306965_);">
			<path class="st3" d="M103.8,1138.4c0-0.4,0.3-0.7,0.7-0.7c0.4,0,0.7,0.3,0.7,0.7l-1.3,166.2c0,0.4-0.3,0.7-0.7,0.7
				c-0.4,0-0.7-0.3-0.7-0.7L103.8,1138.4L103.8,1138.4z"/>
		</g>
		<g style="clip-path:url(#SVGID_00000010296926236745538900000012622514466578306965_);">
			<path class="st3" d="M106.8,1352.4c0-0.4,0.3-0.7,0.7-0.7c0.4,0,0.7,0.3,0.7,0.7l-1.3,166.2c0,0.4-0.3,0.7-0.7,0.7
				c-0.4,0-0.7-0.3-0.7-0.7L106.8,1352.4L106.8,1352.4z"/>
		</g>
		<g style="clip-path:url(#SVGID_00000010296926236745538900000012622514466578306965_);">
			<path class="st3" d="M1456.8,1157.6c0-0.4,0.3-0.7,0.7-0.8c0.4,0,0.7,0.3,0.8,0.7l3,146.9c0,0.4-0.3,0.7-0.7,0.8
				c-0.4,0-0.7-0.3-0.8-0.7L1456.8,1157.6L1456.8,1157.6z"/>
		</g>
		<g style="clip-path:url(#SVGID_00000010296926236745538900000012622514466578306965_);">
			<path class="st3" d="M1456.8,1457.7c0-0.4,0.3-0.7,0.7-0.8c0.4,0,0.7,0.3,0.8,0.7l3,146.9c0,0.4-0.3,0.7-0.7,0.8
				c-0.4,0-0.7-0.3-0.8-0.7L1456.8,1457.7L1456.8,1457.7z"/>
		</g>
		<g style="clip-path:url(#SVGID_00000010296926236745538900000012622514466578306965_);">
			<path class="st3" d="M201.9,1129.5c0.3,0.3,0.3,0.8,0,1c-0.3,0.3-0.8,0.3-1,0l-1.6-1.6c-0.3-0.3-0.3-0.8,0-1c0.3-0.3,0.8-0.3,1,0
				L201.9,1129.5L201.9,1129.5z"/>
		</g>
		<g style="clip-path:url(#SVGID_00000010296926236745538900000012622514466578306965_);">
			<path class="st3" d="M1268.3,1146.4c-0.3,0.3-0.8,0.3-1,0c-0.3-0.3-0.3-0.8,0-1l1.6-1.6c0.3-0.3,0.8-0.3,1,0c0.3,0.3,0.3,0.8,0,1
				L1268.3,1146.4L1268.3,1146.4z"/>
		</g>
		<g style="clip-path:url(#SVGID_00000010296926236745538900000012622514466578306965_);">
			<path class="st9" d="M1255.5,1308.6c39-46.4,11.3-90.6-29.2-143.5c-38.2-49.9-84.1-52.9-101.4-51.8
				c-92.5,5.6-120.2,142.1-66.4,137.9c-3.6,25,23.4,47.5,41.5,35.8c-3.5,20.6,41.3,45.5,43.4,32.2c1-6.2-3,38.9,46.5,30.7
				C1196,1348.9,1223,1337.3,1255.5,1308.6L1255.5,1308.6z"/>
		</g>
		<g style="clip-path:url(#SVGID_00000010296926236745538900000012622514466578306965_);">
			<path class="st3" d="M1143.2,1321.6c-0.7,1-1.8,1.6-3.2,1.9c-2,0.4-4.7,0.2-7.8-0.8c-8.3-2.5-19.4-9.5-26.4-17.8
				c-4.3-5.2-7.1-11-6.8-16.5c-7.2,4-15.6,3-22.9-1.1c-11.3-6.4-20.2-20.3-18.5-35.3c-6.2,0.3-11.4-1.3-15.5-4.3
				c-6.3-4.7-10.1-13-11.3-23.3c-1.8-15.7,2.4-36.2,12.3-55.2c14.9-28.6,42.5-54.2,81.7-56.6c17.4-1.1,63.6,1.9,102,52.1
				c16.2,21.2,30.4,41,39.1,60.2c13.1,28.9,13.7,56.2-10,84.3c0,0,0,0.1-0.1,0.1c-32.6,28.8-59.8,40.4-65.9,41.4
				c-16.1,2.7-26.7-0.2-33.6-5.2C1146.4,1338.3,1143.9,1326.9,1143.2,1321.6L1143.2,1321.6z M1254.9,1308.1L1254.9,1308.1
				c23.2-27.6,22.6-54.3,9.7-82.7c-8.6-19-22.8-38.8-38.9-59.9c-38-49.6-83.6-52.6-100.8-51.5c-38.6,2.3-65.8,27.6-80.4,55.8
				c-9.8,18.8-14,38.9-12.2,54.4c1.9,16.3,10.4,27.5,26.1,26.2c0.2,0,0.4,0.1,0.6,0.2c0.2,0.2,0.2,0.4,0.2,0.6
				c-2.1,14.7,6.6,28.5,17.7,34.7c7.3,4.1,15.7,4.9,22.7,0.3c0.2-0.2,0.6-0.2,0.8,0c0.2,0.2,0.4,0.5,0.3,0.7
				c-0.9,5.6,1.8,11.5,6.3,16.8c6.8,8.2,17.6,15,25.7,17.4c2.8,0.8,5.2,1.1,7.1,0.7c1.6-0.4,2.7-1.3,3-3c0.1-0.4,0.1-0.6,0.2-0.7
				l0.1-0.2l0.2-0.1l0.2-0.1l0.2,0l0.2,0l0.2,0.1l0.2,0.1l0.1,0.1l0.1,0.2c0,0.1,0,0.1,0.1,0.2c0.3,1.6,0.8,14.9,10.7,23.7
				c6.6,5.9,17.3,9.7,34.8,6.8C1195.8,1348.1,1222.7,1336.6,1254.9,1308.1L1254.9,1308.1z"/>
		</g>
		<g style="clip-path:url(#SVGID_00000010296926236745538900000012622514466578306965_);">
			<path class="st3" d="M1149.4,1318.7c-0.3,0.2-0.8,0.2-1-0.2c-0.2-0.3-0.2-0.8,0.2-1c5.8-4.1,20.8-12.4,33.7-23.5
				c8.5-7.3,16-15.9,19.2-25.4c0.1-0.4,0.5-0.6,0.9-0.5c0.4,0.1,0.6,0.5,0.5,0.9c-3.2,9.7-10.9,18.6-19.6,26.1
				C1170.3,1306.3,1155.2,1314.6,1149.4,1318.7L1149.4,1318.7z"/>
		</g>
		<g style="clip-path:url(#SVGID_00000010296926236745538900000012622514466578306965_);">
			<path class="st3" d="M1099.2,1284.5c-0.2,0.3-0.7,0.4-1,0.2c-0.3-0.2-0.4-0.7-0.2-1c7.1-10.7,5.7-11.4,13.2-21.9
				c8.7-12.2,18.6-19,30.1-46.4c0.2-0.4,0.6-0.6,1-0.4c0.4,0.2,0.6,0.6,0.4,1c-11.5,27.6-21.5,34.4-30.2,46.7
				C1104.8,1273.2,1106.3,1273.9,1099.2,1284.5L1099.2,1284.5z"/>
		</g>
		<g style="clip-path:url(#SVGID_00000010296926236745538900000012622514466578306965_);">
			<path class="st3" d="M1055.3,1246.2c-0.2,0.3-0.7,0.4-1,0.1c-0.3-0.2-0.4-0.7-0.1-1c1.2-1.6,16.1-26.2,17.5-28.4
				c12.1-19.9,18.3-33.6,19.7-36.6c0.2-0.4,0.6-0.5,1-0.4c0.4,0.2,0.5,0.6,0.4,1c-1.4,3-7.7,16.8-19.8,36.8
				C1071.5,1219.9,1056.5,1244.5,1055.3,1246.2L1055.3,1246.2z"/>
		</g>
		<g style="clip-path:url(#SVGID_00000010296926236745538900000012622514466578306965_);">
			<path class="st3" d="M1080.7,1299.4c-0.2-0.4,0-0.8,0.3-1c0.4-0.2,0.8,0,1,0.3c2.1,4.2,1.5,9.4-0.8,13.9
				c-3.5,6.7-11.1,11.9-19.8,9.7c-6.1-1.5-12.7-6.7-18.8-17.6c-18.6-33.4-7.5-55.6-5.3-59.9c0.2-0.4,0.6-0.5,1-0.3
				c0.4,0.2,0.5,0.6,0.3,1c-2.1,4.2-12.9,25.9,5.3,58.5c5.8,10.5,12.1,15.5,17.8,16.9c7.9,2,14.8-2.8,18.1-9
				C1082,1307.9,1082.6,1303.2,1080.7,1299.4L1080.7,1299.4z"/>
		</g>
		<g style="clip-path:url(#SVGID_00000010296926236745538900000012622514466578306965_);">
			<path class="st9" d="M545.5,789.6c21.6,20.5,59.2,60.7,118.4,139.6c2.5,3.3,22.9,30.5,29.3,43.3c3.7,7.4,11.2,1.6,64.8,81.2
				c45.1-79.6,57.2-71,104.5-149.9c6.6-11,8-10.1,98.3-122.9c61.6-1.1,102.5-1.8,102.5-1.8c2.2-1.1,154.1,42.1,296.9,247.5
				c108.2,155.8,107.1,351.6-142.1,346.2l19.4,358.8L245.6,1707l41.2-282.9l-100.5-58.1c-154-154,58.1-514.6,208.4-567.1
				C400.3,797,466.7,761.3,545.5,789.6L545.5,789.6z"/>
		</g>
		<g style="clip-path:url(#SVGID_00000010296926236745538900000012622514466578306965_);">
			<path class="st3" d="M546,789.1c21.6,20.6,59.3,60.7,118.5,139.7c2.5,3.4,23,30.6,29.3,43.4c1.1,2.1,2.5,3.1,5.3,5.5
				c6.8,5.8,21.6,19.6,58.7,74.6c44.7-78.5,56.8-70.3,103.9-148.9c6.6-11,8-10.1,98.4-123c0.1-0.2,0.3-0.3,0.6-0.3
				c59.9-1.1,100.3-1.7,102.4-1.8l0,0l0.2,0c0.2,0,0.5,0,1,0.1c2.2,0.4,8.2,2.1,17.2,5.5c44.6,17.1,164.9,77.6,279.2,242.2
				c65.1,93.7,90.6,201.9,46.8,272.3c-29.2,46.8-89.1,77-188.7,75l19.4,358c0,0.2-0.1,0.4-0.2,0.5c-0.1,0.1-0.3,0.2-0.5,0.2
				l-991.8-24.5c-0.2,0-0.4-0.1-0.5-0.3c-0.1-0.2-0.2-0.4-0.2-0.6l41.1-282.4l-100.1-57.8c-0.1,0-0.1-0.1-0.2-0.1
				c-61.8-61.8-64.9-156.7-36.6-251.8c25.4-85.4,76.1-170.9,132-232.5c37.4-41.1,77.1-71.5,113.3-84.1c5.6-1.9,72.2-37.7,151.3-9.3
				C545.8,789,545.9,789,546,789.1L546,789.1z M1063.4,779.8c-0.1,0-0.1,0-0.2,0c0,0-40.7,0.7-102.1,1.7
				c-90,112.5-91.4,111.5-98.1,122.6c-47.3,78.9-59.4,70.3-104.5,149.9c-0.1,0.2-0.4,0.4-0.6,0.4c-0.3,0-0.5-0.1-0.6-0.3
				c-37.4-55.6-52.3-69.4-59.1-75.3c-3-2.6-4.5-3.7-5.7-6c-6.3-12.7-26.7-39.8-29.2-43.2c-59.1-78.7-96.7-118.8-118.2-139.4
				c-78.5-28.1-144.6,7.5-150.1,9.4c-36,12.6-75.5,42.9-112.7,83.7c-55.9,61.4-106.4,146.7-131.7,231.9
				c-28.1,94.5-25.1,188.8,36.2,250.2l100.4,58c0.3,0.2,0.4,0.4,0.4,0.7l-41.1,282c32.2,0.8,990.2,24.5,990.2,24.5l-19.4-358
				c0-0.2,0.1-0.4,0.2-0.6c0.1-0.1,0.3-0.2,0.5-0.2c99.3,2.2,159.1-27.7,188.2-74.3c43.6-70,18-177.5-46.7-270.7
				c-114-164.2-234-224.6-278.5-241.7c-7.8-3-13.2-4.6-15.9-5.3C1064.3,780,1063.6,779.8,1063.4,779.8L1063.4,779.8z"/>
		</g>
		<g style="clip-path:url(#SVGID_00000010296926236745538900000012622514466578306965_);">
			<path class="st3" d="M1114.6,1122.3c0.4,0.4,0.4,1.1,0,1.5c-0.4,0.4-1.1,0.4-1.5,0c-1.4-1.4-2.5-3.8-3.2-6.8
				c-1-4.3-1.2-10.2-1-16.8c0.9-25.5,9-62.9,11.5-70.5c0.2-0.5,0.8-0.8,1.3-0.7c0.5,0.2,0.8,0.8,0.7,1.3
				c-2.5,7.5-10.6,44.6-11.4,69.9c-0.2,6.4,0,12.1,0.9,16.3C1112.5,1119.1,1113.4,1121.1,1114.6,1122.3L1114.6,1122.3z"/>
		</g>
		<g style="clip-path:url(#SVGID_00000010296926236745538900000012622514466578306965_);">
			<path class="st3" d="M369.2,1021c-0.1-0.6,0.2-1.1,0.7-1.3c0.6-0.1,1.1,0.2,1.3,0.7c14,52.7,13.8,52.2,22.9,105.4
				c0.1,0.6-0.3,1.1-0.9,1.2c-0.6,0.1-1.1-0.3-1.2-0.9C383,1073.1,383.2,1073.6,369.2,1021L369.2,1021z"/>
		</g>
		<g style="clip-path:url(#SVGID_00000010296926236745538900000012622514466578306965_);">
			<path class="st10" d="M960.8,780.9c-90.3,112.8-91.7,111.9-98.3,122.9c-47.4,78.9-59.4,70.3-104.5,149.9
				c-53.6-79.6-61.1-73.7-64.8-81.2c-6.4-12.7-26.8-39.9-29.3-43.3c-59.2-78.9-96.9-119.1-118.4-139.6
				C672.4,786.2,850.1,782.8,960.8,780.9L960.8,780.9z"/>
		</g>
	</g>
	<g>
		<defs>
			<path id="SVGID_00000183224773086275449750000005838416952600889750_" d="M960.8,780.9c-90.3,112.8-91.7,111.9-98.3,122.9
				c-47.4,78.9-59.4,70.3-104.5,149.9c-53.6-79.6-61.1-73.7-64.8-81.2c-6.4-12.7-26.8-39.9-29.3-43.3
				c-59.2-78.9-96.9-119.1-118.4-139.6C672.4,786.2,850.1,782.8,960.8,780.9L960.8,780.9z"/>
		</defs>
		<clipPath id="SVGID_00000052077495662453517250000009338795960839489188_">
			<use xlink:href="#SVGID_00000183224773086275449750000005838416952600889750_"  style="overflow:visible;"/>
		</clipPath>
		<g style="clip-path:url(#SVGID_00000052077495662453517250000009338795960839489188_);">
			<path class="st9" d="M693.7,919c-3,0.8-6.1-1.1-6.8-4.1c-0.8-3,1.1-6.1,4.1-6.8c8.6-2.1,37-1.2,65.4-0.2c27,1,54,2.2,62,0.2
				c3-0.8,6.1,1.1,6.8,4.1c0.8,3-1.1,6.1-4.1,6.8c-8.4,2.1-36.8,1.2-65.2,0.1C728.8,918.1,701.8,916.9,693.7,919L693.7,919z"/>
		</g>
		<g style="clip-path:url(#SVGID_00000052077495662453517250000009338795960839489188_);">
			<path class="st9" d="M706.9,949.7c-3.1,0.2-5.8-2.2-5.9-5.3c-0.2-3.1,2.2-5.8,5.3-5.9c20.4-1.1,74.1,1.1,94.4,0
				c3.1-0.2,5.8,2.2,5.9,5.3c0.2,3.1-2.2,5.8-5.3,5.9C781,950.8,727.3,948.6,706.9,949.7L706.9,949.7z"/>
		</g>
		<g style="clip-path:url(#SVGID_00000052077495662453517250000009338795960839489188_);">
			<path class="st9" d="M720.2,980.8c-3.1,0.3-5.9-2-6.1-5.1c-0.3-3.1,2-5.9,5.1-6.1c11.9-1.1,55,1.1,66.9,0c3.1-0.3,5.9,2,6.1,5.1
				c0.3,3.1-2,5.9-5.1,6.1C775.2,982,732.1,979.7,720.2,980.8L720.2,980.8z"/>
		</g>
	</g>
	<g>
		<defs>
			<polygon id="SVGID_00000018236731287931692800000013091714888559047085_" points="1500,0 1500,1500 0,1500 0,0 1500,0 			"/>
		</defs>
		<clipPath id="SVGID_00000141456548129355889240000015282154592013900934_">
			<use xlink:href="#SVGID_00000018236731287931692800000013091714888559047085_"  style="overflow:visible;"/>
		</clipPath>
		<g style="clip-path:url(#SVGID_00000141456548129355889240000015282154592013900934_);">
			<path class="st3" d="M961.4,781.3c-90.2,112.7-91.7,111.8-98.3,122.8c-47.3,78.9-59.4,70.3-104.5,149.9c-0.1,0.2-0.4,0.4-0.6,0.4
				c-0.3,0-0.5-0.1-0.6-0.3c-37.4-55.6-52.3-69.4-59.1-75.3c-3-2.6-4.5-3.7-5.7-6c-6.3-12.7-26.7-39.8-29.2-43.2
				c-59.2-78.9-96.8-119-118.4-139.5c-0.2-0.2-0.3-0.5-0.2-0.8c0.1-0.3,0.4-0.5,0.7-0.5c126.9-3.4,304.6-6.8,415.3-8.8
				c0.3,0,0.5,0.2,0.7,0.4C961.6,780.8,961.6,781.1,961.4,781.3L961.4,781.3z M959.3,781.6c-110.3,2-285.8,5.3-412,8.7
				c21.8,20.9,59.1,61,117.2,138.5c2.5,3.4,23,30.6,29.3,43.4c1.1,2.1,2.5,3.1,5.3,5.5c6.8,5.8,21.6,19.6,58.7,74.6
				c44.7-78.5,56.8-70.3,103.9-148.9C868.5,892.4,869.9,893.3,959.3,781.6L959.3,781.6z"/>
		</g>
		<g style="clip-path:url(#SVGID_00000141456548129355889240000015282154592013900934_);">
			<path class="st10" d="M950.1,758c14.1-14.9,126.7-5.4,156,37.4c0,0-8.1-3.9-42.8-16.3c-63.4,24.4-151.1,101.4-251.8,268.3h-69.2
				c0,0,43-111,91.1-164.8C870.7,840.8,950.1,758,950.1,758L950.1,758z"/>
		</g>
	</g>
	<g>
		<defs>
			<path id="SVGID_00000017507417852491416970000005416438067944180375_" d="M950.1,758c14.1-14.9,126.7-5.4,156,37.4
				c0,0-8.1-3.9-42.8-16.3c-63.4,24.4-151.1,101.4-251.8,268.3h-69.2c0,0,43-111,91.1-164.8C870.7,840.8,950.1,758,950.1,758
				L950.1,758z"/>
		</defs>
		<clipPath id="SVGID_00000032620913009287067350000001139128649854976422_">
			<use xlink:href="#SVGID_00000017507417852491416970000005416438067944180375_"  style="overflow:visible;"/>
		</clipPath>
		<g style="clip-path:url(#SVGID_00000032620913009287067350000001139128649854976422_);">
			<path class="st9" d="M792.7,1067.3c-0.5,2.2-2.7,3.6-4.9,3.2c-2.2-0.5-3.6-2.7-3.2-4.9c14.1-64.1,118-209.8,204.9-273.3
				c22.8-16.6,44.5-27.6,63.1-30.3c13.2-1.9,24.9,0.2,34.7,7.1c1.9,1.3,2.3,3.9,1,5.8c-1.3,1.9-3.9,2.3-5.8,1
				c-10.2-7.2-23-7.8-37.5-3.8c-15.4,4.3-32.6,13.8-50.6,27C909,861.3,806.6,1004.3,792.7,1067.3L792.7,1067.3z"/>
		</g>
	</g>
	<g>
		<defs>
			<polygon id="SVGID_00000145744366950887037490000002767852576343628932_" points="1500,0 1500,1500 0,1500 0,0 1500,0 			"/>
		</defs>
		<clipPath id="SVGID_00000123410675423733311910000011586963952809229704_">
			<use xlink:href="#SVGID_00000145744366950887037490000002767852576343628932_"  style="overflow:visible;"/>
		</clipPath>
		<g style="clip-path:url(#SVGID_00000123410675423733311910000011586963952809229704_);">
			<path class="st3" d="M949.3,757.3c1.8-1.9,5.1-3.4,9.5-4.6c6.4-1.6,15.3-2.4,25.6-2.3c24,0.2,55.8,5.2,81.8,15.7
				c17.5,7,32.4,16.6,40.7,28.7c0.3,0.4,0.2,0.9-0.1,1.3c-0.3,0.4-0.8,0.5-1.2,0.3c0,0-8-3.9-42.3-16.2
				c-63.2,24.5-150.6,101.4-250.9,267.7c-0.2,0.3-0.5,0.5-0.9,0.5h-69.2c-0.3,0-0.7-0.2-0.9-0.5c-0.2-0.3-0.2-0.6-0.1-1
				c0,0,43.1-111.2,91.3-165.2C869.9,840.1,949.1,757.5,949.3,757.3L949.3,757.3z M950.8,758.8c0,0-79.4,82.7-116.7,124.5
				c-44.8,50.1-85.2,150.1-90.3,163.1h67.1c100.7-166.9,188.6-243.8,252-268.2c0.2-0.1,0.5-0.1,0.7,0c22.8,8.2,34.2,12.7,39.3,14.8
				c-8.4-10.4-21.9-18.6-37.4-24.9c-25.8-10.4-57.3-15.4-81-15.6c-10.1-0.1-18.8,0.7-25.1,2.3C955.4,755.8,952.4,757.1,950.8,758.8
				L950.8,758.8L950.8,758.8z"/>
		</g>
		<g style="clip-path:url(#SVGID_00000123410675423733311910000011586963952809229704_);">
			<path class="st10" d="M560.4,758c-14.1-14.9-126.7-5.4-156,37.4c0,0,20.9-9.2,45.3-12.8c63.4,24.4,148.6,97.8,249.3,264.7h69.2
				c0,0-43-111-91.1-164.8C639.8,840.8,560.4,758,560.4,758L560.4,758z"/>
		</g>
	</g>
	<g>
		<defs>
			<path id="SVGID_00000071532615207083891440000017397863609910748801_" d="M560.4,758c-14.1-14.9-126.7-5.4-156,37.4
				c0,0,20.9-9.2,45.3-12.8c63.4,24.4,148.6,97.8,249.3,264.7h69.2c0,0-43-111-91.1-164.8C639.8,840.8,560.4,758,560.4,758
				L560.4,758z"/>
		</defs>
		<clipPath id="SVGID_00000101069281732887169450000017827529772953782955_">
			<use xlink:href="#SVGID_00000071532615207083891440000017397863609910748801_"  style="overflow:visible;"/>
		</clipPath>
		<g style="clip-path:url(#SVGID_00000101069281732887169450000017827529772953782955_);">
			<path class="st9" d="M725.9,1065.5c0.5,2.2-0.9,4.4-3.2,4.9c-2.2,0.5-4.4-0.9-4.9-3.2c-13.9-63-113.7-205.8-200.9-268.5
				c-18.4-13.2-36.2-22.9-52.5-27.3c-15.5-4.2-29.6-3.7-41.3,3.4c-2,1.2-4.5,0.6-5.7-1.4c-1.2-2-0.6-4.5,1.4-5.7
				c13.5-8.2,29.8-9.2,47.7-4.4c17.1,4.6,35.9,14.7,55.2,28.6C610.5,855.9,711.7,1001.4,725.9,1065.5L725.9,1065.5z"/>
		</g>
	</g>
	<g>
		<defs>
			<polygon id="SVGID_00000119797751309666793640000004028811681535275448_" points="1500,0 1500,1500 0,1500 0,0 1500,0 			"/>
		</defs>
		<clipPath id="SVGID_00000171684389896457491780000008780665717462724763_">
			<use xlink:href="#SVGID_00000119797751309666793640000004028811681535275448_"  style="overflow:visible;"/>
		</clipPath>
		<g style="clip-path:url(#SVGID_00000171684389896457491780000008780665717462724763_);">
			<path class="st3" d="M561.1,757.3c0.2,0.2,79.4,82.8,116.7,124.6c48.2,53.9,91.3,165.2,91.3,165.2c0.1,0.3,0.1,0.7-0.1,1
				c-0.2,0.3-0.5,0.5-0.9,0.5H699c-0.4,0-0.7-0.2-0.9-0.5C597.8,881.6,512.8,808.2,449.6,783.7c-24.1,3.6-44.8,12.7-44.8,12.7
				c-0.4,0.2-0.9,0.1-1.2-0.3c-0.3-0.4-0.3-0.9-0.1-1.3c8.3-12.1,23.2-21.7,40.7-28.7c26-10.5,57.8-15.5,81.8-15.7
				c10.3-0.1,19.2,0.7,25.6,2.3C556.1,753.9,559.3,755.4,561.1,757.3L561.1,757.3z M559.6,758.8c-1.6-1.7-4.6-3-8.5-4
				c-6.3-1.6-15-2.3-25.1-2.3c-23.8,0.2-55.2,5.2-81,15.6c-15.6,6.3-29.1,14.5-37.5,25c7-2.7,23.5-8.7,42.1-11.4
				c0.2,0,0.4,0,0.5,0.1c63.4,24.4,148.8,97.8,249.5,264.7h67.1c-5.2-13.1-45.5-113-90.3-163.1C639,841.5,559.6,758.8,559.6,758.8
				L559.6,758.8L559.6,758.8z"/>
		</g>
		<g style="clip-path:url(#SVGID_00000171684389896457491780000008780665717462724763_);">
			<path class="st10" d="M751.9,1391.1c11.3,0,20.5,9.2,20.5,20.5s-9.2,20.5-20.5,20.5s-20.5-9.2-20.5-20.5
				S740.5,1391.1,751.9,1391.1L751.9,1391.1z"/>
		</g>
		<g style="clip-path:url(#SVGID_00000171684389896457491780000008780665717462724763_);">
			<path class="st3" d="M751.9,1390c11.9,0,21.6,9.7,21.6,21.6s-9.7,21.6-21.6,21.6s-21.6-9.7-21.6-21.6S740,1390,751.9,1390
				L751.9,1390z M751.9,1392.1c-10.7,0-19.5,8.7-19.5,19.5s8.7,19.5,19.5,19.5c10.7,0,19.5-8.7,19.5-19.5S762.6,1392.1,751.9,1392.1
				L751.9,1392.1z"/>
		</g>
		<g style="clip-path:url(#SVGID_00000171684389896457491780000008780665717462724763_);">
			<path class="st10" d="M733.6,1071.2c-48.5,4.7-176.6,126.1-158.3,213.8c57.4,4,160.8-65.3,176.9-202.5L733.6,1071.2L733.6,1071.2
				z"/>
		</g>
		<g style="clip-path:url(#SVGID_00000171684389896457491780000008780665717462724763_);">
			<path class="st3" d="M734.1,1070.3l18.6,11.3c0.3,0.2,0.5,0.6,0.5,1c-9.7,82.7-50.9,140.8-94.8,173.2
				c-29.4,21.7-60,31.8-83.1,30.2c-0.5,0-0.9-0.4-0.9-0.8c-9.2-44.1,18.3-96.7,54.4-138.9c21.6-25.2,46.1-46.7,67.6-60.4
				c14.4-9.2,27.5-14.8,37.3-15.8C733.7,1070.1,733.9,1070.2,734.1,1070.3L734.1,1070.3z M733.4,1072.3c-9.5,1-22.1,6.6-36,15.4
				c-21.3,13.6-45.7,34.9-67.1,60c-35.4,41.4-62.6,92.9-54.1,136.3c22.7,1.3,52.4-8.8,81-29.9c43.4-32,84.2-89.5,93.9-171.1
				L733.4,1072.3L733.4,1072.3z"/>
		</g>
		<g style="clip-path:url(#SVGID_00000171684389896457491780000008780665717462724763_);">
			<path class="st10" d="M770.9,1071.2c48.5,4.7,182.7,130.6,164.5,218.3c-57.4,4-168.8-67-184.9-204.2L770.9,1071.2L770.9,1071.2z"
				/>
		</g>
		<g style="clip-path:url(#SVGID_00000171684389896457491780000008780665717462724763_);">
			<path class="st3" d="M771,1070.1c9.8,1,23.1,6.8,37.9,16.2c22,14.1,47.5,36.2,70,62.1c37.6,43.3,66.6,97.1,57.4,141.2
				c-0.1,0.5-0.5,0.8-0.9,0.8c-23.2,1.6-55-8.8-86-30.8c-46.2-32.9-90.4-91.6-100.1-174.3c0-0.4,0.1-0.8,0.4-1l20.4-14.1
				C770.5,1070.2,770.7,1070.1,771,1070.1L771,1070.1z M771.2,1072.3l-19.6,13.5c9.7,81.7,53.4,139.7,99.1,172.2
				c30.1,21.4,61.1,31.8,83.8,30.5c8.6-43.4-20.2-96.1-57.1-138.6c-22.3-25.7-47.7-47.8-69.6-61.7
				C793.5,1079,780.7,1073.3,771.2,1072.3L771.2,1072.3z"/>
		</g>
		<g style="clip-path:url(#SVGID_00000171684389896457491780000008780665717462724763_);">
			<path class="st17" d="M526.2,1182.1c-2.6-1.5-5.1-3.4-7.2-5.8c-9.2-10.8-7.9-27,2.9-36.2l8.4-4.9l10.1-1.7l11.1,2.6l6.1,3.8
				l5.4,5.2c6.7,7.7,17.7,29.1,31,60.7c27.2,65,68,177.4,113.7,290.1c5.3,13.1-1,28.1-14.2,33.5c-13.1,5.3-28.1-1-33.5-14.2
				c-45.6-112.5-86.4-224.7-113.5-289.6C539,1207,530,1189.3,526.2,1182.1L526.2,1182.1z"/>
		</g>
		<g style="clip-path:url(#SVGID_00000171684389896457491780000008780665717462724763_);">
			<path class="st3" d="M525.4,1182.9c-2.7-1.5-5.1-3.5-7.2-5.9c-9.6-11.2-8.2-28.1,3-37.7c0,0,0.1-0.1,0.1-0.1l8.4-4.9
				c0.1-0.1,0.2-0.1,0.4-0.1l10.1-1.7c0.1,0,0.3,0,0.4,0l11.1,2.6c0.1,0,0.2,0.1,0.3,0.1l6.1,3.7c0.1,0,0.1,0.1,0.2,0.1l5.4,5.2
				c0,0,0,0,0.1,0.1c6.7,7.7,17.9,29.2,31.1,61c27.2,65,68,177.4,113.7,290.1c5.5,13.7-1.1,29.3-14.7,34.8
				c-13.7,5.5-29.3-1.1-34.8-14.8c-45.6-112.5-86.3-224.7-113.5-289.6C538.1,1207.7,529.3,1190.2,525.4,1182.9L525.4,1182.9z
				 M527.1,1181.6c3.8,7.2,12.8,25,20.5,43.5c27.1,64.9,67.9,177.1,113.5,289.6c5.1,12.6,19.5,18.7,32.1,13.6
				c12.6-5.1,18.7-19.5,13.6-32.1c-45.6-112.7-86.5-225.1-113.7-290.1c-13.1-31.4-24.1-52.7-30.8-60.4l-5.3-5.1l-5.9-3.6l-10.8-2.5
				l-9.7,1.6c0,0-8.2,4.8-8.2,4.8c-10.3,8.8-11.5,24.4-2.7,34.7c2,2.3,4.3,4.2,6.9,5.6C526.9,1181.3,527,1181.4,527.1,1181.6
				L527.1,1181.6z"/>
		</g>
		<g style="clip-path:url(#SVGID_00000171684389896457491780000008780665717462724763_);">
			<path class="st17" d="M949,1176.6c-0.7-2.9-0.8-6.1-0.4-9.2c2-14,15-23.8,29.1-21.8l9.3,3.1l8,6.5l5.4,10l1.3,7.1l-0.3,7.5
				c-1.3,10.1-10.1,32.6-25,63.4c-30.7,63.4-87.9,168.4-142.1,277.3c-6.3,12.7-21.8,17.9-34.5,11.5c-12.7-6.3-17.9-21.8-11.5-34.5
				c54.1-108.7,111.2-213.5,141.8-276.8C938.8,1202.6,946.1,1184.2,949,1176.6L949,1176.6z"/>
		</g>
		<g style="clip-path:url(#SVGID_00000171684389896457491780000008780665717462724763_);">
			<path class="st3" d="M947.9,1176.5c-0.6-3-0.8-6.1-0.3-9.3c2.1-14.6,15.6-24.8,30.2-22.7c0.1,0,0.1,0,0.2,0l9.3,3.1
				c0.1,0,0.2,0.1,0.3,0.2l8,6.5c0.1,0.1,0.2,0.2,0.3,0.3l5.4,10c0.1,0.1,0.1,0.2,0.1,0.3l1.3,7.1c0,0.1,0,0.1,0,0.2l-0.3,7.5
				c0,0,0,0.1,0,0.1c-1.3,10.2-10.1,32.7-25.1,63.7c-30.7,63.4-87.9,168.5-142.1,277.3c-6.6,13.2-22.7,18.6-35.9,12
				c-13.2-6.6-18.6-22.7-12-35.9c54.1-108.7,111.2-213.5,141.8-276.8C937.7,1202.4,944.9,1184.2,947.9,1176.5L947.9,1176.5z
				 M950,1176.9c-2.9,7.6-10.2,26.1-19,44.2c-30.7,63.3-87.7,168.1-141.9,276.8c-6.1,12.2-1.1,27,11.1,33.1
				c12.2,6.1,27,1.1,33.1-11.1c54.2-108.8,111.4-213.9,142.1-277.3c14.9-30.7,23.6-53,24.9-63.1l0.3-7.3l-1.2-6.8l-5.2-9.7l-7.7-6.2
				c0,0-9-3-9-3c-13.4-1.9-25.9,7.5-27.8,21c-0.4,3-0.3,6,0.3,8.9C950.1,1176.5,950,1176.7,950,1176.9L950,1176.9z"/>
		</g>
		<g style="clip-path:url(#SVGID_00000171684389896457491780000008780665717462724763_);">
			<path class="st17" d="M1212,1451c1.5-2.6,3.5-5,5.9-7.1c10.9-9.1,27.1-7.6,36.2,3.3l4.8,8.5l1.6,10.2l-2.7,11.1l-3.8,6.1
				l-5.2,5.4c-7.8,6.6-29.3,17.5-61,30.3c-65.3,26.5-178.1,66.2-291.2,110.7c-13.2,5.2-28.1-1.3-33.3-14.5
				c-5.2-13.2,1.3-28.1,14.5-33.3c113-44.4,225.5-84.1,290.7-110.5C1186.9,1463.6,1204.7,1454.7,1212,1451L1212,1451z"/>
		</g>
		<g style="clip-path:url(#SVGID_00000171684389896457491780000008780665717462724763_);">
			<path class="st3" d="M1211.2,1450.3c1.5-2.6,3.5-5.1,6-7.1c11.3-9.5,28.2-7.9,37.7,3.4c0,0,0.1,0.1,0.1,0.2l4.8,8.5
				c0.1,0.1,0.1,0.2,0.1,0.4l1.6,10.2c0,0.1,0,0.3,0,0.4l-2.7,11.1c0,0.1-0.1,0.2-0.1,0.3l-3.8,6.1c0,0.1-0.1,0.1-0.1,0.2l-5.2,5.4
				c0,0,0,0-0.1,0.1c-7.8,6.7-29.4,17.6-61.3,30.5c-65.3,26.5-178.1,66.2-291.3,110.7c-13.7,5.4-29.3-1.4-34.7-15.1
				c-5.4-13.7,1.4-29.3,15.1-34.7c113-44.4,225.5-84.1,290.7-110.5C1186.3,1462.7,1203.8,1454,1211.2,1450.3L1211.2,1450.3z
				 M1212.4,1452c-7.3,3.7-25.1,12.6-43.7,20.1c-65.2,26.5-177.8,66.1-290.7,110.5c-12.7,5-18.9,19.3-13.9,32
				c5,12.7,19.3,18.9,32,13.9c113.2-44.5,225.9-84.2,291.2-110.7c31.6-12.8,53-23.6,60.7-30.1l5.1-5.2l3.7-5.9l2.6-10.7l-1.5-9.8
				c0,0-4.7-8.2-4.7-8.2c-8.7-10.4-24.2-11.8-34.7-3.1c-2.4,2-4.3,4.3-5.7,6.8C1212.8,1451.7,1212.6,1451.9,1212.4,1452L1212.4,1452
				z"/>
		</g>
		<g style="clip-path:url(#SVGID_00000171684389896457491780000008780665717462724763_);">
			<path class="st17" d="M277.4,1448.1c-1.5-2.6-3.5-5-5.9-7.1c-10.9-9.1-27.1-7.6-36.2,3.3l-4.8,8.5l-1.6,10.2l2.7,11.1l3.8,6.1
				l5.2,5.4c7.8,6.6,29.3,17.5,61,30.3c65.3,26.5,178.1,66.2,291.2,110.7c13.2,5.2,28.1-1.3,33.3-14.5c5.2-13.2-1.3-28.1-14.5-33.3
				c-113-44.4-225.5-84.1-290.7-110.5C302.4,1460.7,284.6,1451.8,277.4,1448.1L277.4,1448.1z"/>
		</g>
		<g style="clip-path:url(#SVGID_00000171684389896457491780000008780665717462724763_);">
			<path class="st3" d="M278.1,1447.3c7.4,3.8,25,12.5,43.2,19.9c65.2,26.5,177.7,66.1,290.7,110.5c13.7,5.4,20.5,20.9,15.1,34.7
				c-5.4,13.7-20.9,20.5-34.7,15.1c-113.2-44.5-226-84.2-291.3-110.7c-31.9-13-53.5-23.9-61.3-30.5c0,0,0,0-0.1-0.1l-5.2-5.4
				c-0.1-0.1-0.1-0.1-0.1-0.2l-3.8-6.1c-0.1-0.1-0.1-0.2-0.1-0.3l-2.7-11.1c0-0.1,0-0.3,0-0.4l1.6-10.2c0-0.1,0.1-0.2,0.1-0.4
				l4.8-8.5c0-0.1,0.1-0.1,0.1-0.2c9.5-11.3,26.3-12.9,37.7-3.4C274.6,1442.3,276.6,1444.7,278.1,1447.3L278.1,1447.3z
				 M276.5,1448.6c-1.4-2.5-3.3-4.8-5.7-6.8c-10.4-8.7-25.9-7.3-34.7,3.1l-4.7,8.2l-1.5,9.8l2.6,10.7l3.7,5.9c0,0,5.1,5.3,5.1,5.3
				c7.8,6.6,29.2,17.3,60.7,30.1c65.3,26.5,178.1,66.2,291.2,110.7c12.7,5,27-1.3,32-13.9c5-12.7-1.3-27-13.9-32
				c-113-44.4-225.6-84.1-290.7-110.5c-18.6-7.5-36.4-16.4-43.7-20.1C276.7,1449,276.6,1448.8,276.5,1448.6L276.5,1448.6z"/>
		</g>
		<g style="clip-path:url(#SVGID_00000171684389896457491780000008780665717462724763_);">
			<path class="st3" d="M286.6,1425.5c-0.1,0.4-0.5,0.7-1,0.6c-0.4-0.1-0.7-0.5-0.6-1c6.7-28.9,9.9-37.9,11-41.1
				c0.1-0.4,0.6-0.6,1-0.5c0.4,0.1,0.6,0.6,0.5,1C296.4,1387.7,293.2,1396.7,286.6,1425.5L286.6,1425.5z"/>
		</g>
		<g style="clip-path:url(#SVGID_00000171684389896457491780000008780665717462724763_);">
			<path class="st18" d="M462.6,1086c-22.1-47.2,71.3-82.3,88.5-42.3C532.1,1079.5,498.9,1086,462.6,1086L462.6,1086z"/>
		</g>
		<g style="clip-path:url(#SVGID_00000171684389896457491780000008780665717462724763_);">
			<path class="st3" d="M461.9,1086.3c-11.2-24,6.8-45,29.9-54.8c13.8-5.9,29.4-7.8,41.6-4c8.2,2.6,14.9,7.7,18.4,15.9
				c0.1,0.2,0.1,0.4,0,0.6c-19.1,36-52.5,42.7-89.2,42.7C462.3,1086.7,462,1086.6,461.9,1086.3L461.9,1086.3z M463,1085.3
				c35.8-0.1,68.5-6.5,87.2-41.6c-4.3-9.5-13.1-14.6-23.5-16.1c-10.7-1.6-23.2,0.5-34.4,5.3C470.1,1042.3,452.6,1062.2,463,1085.3
				L463,1085.3z"/>
		</g>
		<g style="clip-path:url(#SVGID_00000171684389896457491780000008780665717462724763_);">
			<path class="st18" d="M471.2,1045.4c-57.5-27.2-123.4-127.5-65.1-160.1c11.8-6.6,79.6-35.2,105.8,141.7
				C501.2,1027.2,481,1037.1,471.2,1045.4L471.2,1045.4z"/>
		</g>
		<g style="clip-path:url(#SVGID_00000171684389896457491780000008780665717462724763_);">
			<path class="st3" d="M470.7,1046.3c-34.7-16.4-72.5-59.3-84.5-98.1c-8.1-26.2-4.5-50.5,19.3-63.9c11.9-6.7,80.9-36,107.3,142.5
				c0,0.3,0,0.6-0.2,0.8c-0.2,0.2-0.5,0.4-0.8,0.4c-10.5,0.3-30.3,10.1-40,18.2C471.5,1046.4,471.1,1046.5,470.7,1046.3
				L470.7,1046.3z M471,1044.2c9.8-8,28.7-17.3,39.6-18.2c-26.1-174.1-92.4-146.4-104.1-139.8c-22.9,12.8-26.1,36.2-18.3,61.4
				C400,985.7,436.9,1027.8,471,1044.2L471,1044.2z"/>
		</g>
		<g style="clip-path:url(#SVGID_00000171684389896457491780000008780665717462724763_);">
			<path class="st3" d="M463.6,1023.8c-0.2,0.4-0.6,0.5-1,0.3c-0.4-0.2-0.5-0.6-0.3-1c0.8-1.5,2.6-3.3,5-5
				c5.4-3.9,14.1-7.7,20.9-9.2c2.6-0.5,4.9-0.7,6.7-0.5c1.3,0.2,2.4,0.6,3.1,1.3c0.3,0.3,0.3,0.7,0.1,1s-0.7,0.3-1,0
				c-0.6-0.5-1.4-0.8-2.4-0.9c-1.7-0.2-3.8,0-6.2,0.5c-5.7,1.2-12.7,4.1-17.9,7.3C467.2,1019.8,464.5,1021.9,463.6,1023.8
				L463.6,1023.8z"/>
		</g>
		<g style="clip-path:url(#SVGID_00000171684389896457491780000008780665717462724763_);">
			<path class="st3" d="M394.4,929.7c-0.1,0.4-0.5,0.7-0.9,0.6c-0.4-0.1-0.7-0.5-0.6-0.9c2.4-12.3,13.7-22.4,26.3-28.4
				c12.6-6,26.7-7.9,34.6-4.2c0.4,0.2,0.5,0.6,0.4,1c-0.2,0.4-0.6,0.5-1,0.4c-7.6-3.6-21.1-1.6-33.3,4.2
				C407.6,908.1,396.7,917.8,394.4,929.7L394.4,929.7z"/>
		</g>
		<g style="clip-path:url(#SVGID_00000171684389896457491780000008780665717462724763_);">
			<path class="st18" d="M1063.1,1111.1c19.8-48.2-75.1-78.8-90.4-38.1C993.3,1107.8,1026.7,1112.8,1063.1,1111.1L1063.1,1111.1z"/>
		</g>
		<g style="clip-path:url(#SVGID_00000171684389896457491780000008780665717462724763_);">
			<path class="st3" d="M1063.1,1112.1c-36.7,1.7-70.5-3.4-91.4-38.6c-0.2-0.3-0.2-0.6-0.1-0.9c3.2-8.5,9.7-14,17.8-16.9
				c12-4.4,27.8-3.2,41.9,2c23.7,8.8,42.8,29.1,32.6,53.8C1063.9,1111.8,1063.5,1112.1,1063.1,1112.1L1063.1,1112.1z M1062.3,1110
				c9.1-23.2-9.3-42.1-31.7-50.4c-11.4-4.2-23.9-5.7-34.4-3.7c-10.2,2-18.6,7.4-22.4,16.9C994.1,1106.7,1026.8,1111.6,1062.3,1110
				L1062.3,1110z"/>
		</g>
		<g style="clip-path:url(#SVGID_00000171684389896457491780000008780665717462724763_);">
			<path class="st18" d="M1052.5,1070.9c56.2-29.8,117.3-133.1,57.5-163c-12.1-6.1-81.1-31.4-99,146.5
				C1021.7,1054.2,1042.4,1063.1,1052.5,1070.9L1052.5,1070.9z"/>
		</g>
		<g style="clip-path:url(#SVGID_00000171684389896457491780000008780665717462724763_);">
			<path class="st3" d="M1051.9,1071.7c-10-7.7-30.3-16.5-40.8-16.3c-0.3,0-0.6-0.1-0.8-0.3c-0.2-0.2-0.3-0.5-0.3-0.8
				c16.6-165.3,77.5-156.3,96.5-149.1c1.6,0.6,3,1.2,3.9,1.7c24.4,12.2,29.1,36.3,22.3,62.9c-10.1,39.3-45.9,84-79.8,102
				C1052.7,1072,1052.2,1072,1051.9,1071.7L1051.9,1071.7z M1052.6,1069.7c33.3-18,68.2-61.8,78.2-100.3
				c6.6-25.5,2.2-48.8-21.2-60.5c-12-6-79.5-30.6-97.4,144.6C1023.1,1053.8,1042.5,1062.2,1052.6,1069.7L1052.6,1069.7z"/>
		</g>
		<g style="clip-path:url(#SVGID_00000171684389896457491780000008780665717462724763_);">
			<path class="st3" d="M1057.3,931.2c-0.4,0.2-0.8,0-1-0.3c-0.2-0.4,0-0.8,0.3-1c16.4-8.5,36.4-4.7,50.2,4.1
				c9.3,5.9,15.7,14.1,16.5,22.3c0,0.4-0.3,0.8-0.7,0.8c-0.4,0-0.8-0.3-0.8-0.7c-0.7-7.9-7-15.6-15.8-21.2
				C1092.6,926.7,1073.2,923,1057.3,931.2L1057.3,931.2z"/>
		</g>
		<g style="clip-path:url(#SVGID_00000171684389896457491780000008780665717462724763_);">
			<path class="st18" d="M1340.5,1478.8c47-22.5-2.9-108.8-41.6-88.8C1290.9,1429.7,1312.4,1455.8,1340.5,1478.8L1340.5,1478.8z"/>
		</g>
		<g style="clip-path:url(#SVGID_00000171684389896457491780000008780665717462724763_);">
			<path class="st3" d="M1340.1,1479.4c-28.3-23.2-50-49.5-41.9-89.5c0-0.2,0.2-0.4,0.4-0.5c7.9-4.1,16.3-3.8,24.3-0.6
				c11.8,4.8,22.7,16.1,29.6,29.4c11.6,22.3,12.3,49.9-11.6,61.4C1340.6,1479.6,1340.3,1479.6,1340.1,1479.4L1340.1,1479.4z
				 M1340.6,1477.9c22.7-11.2,21.7-37.8,10.6-59.1c-5.7-10.8-14-20.3-23.2-25.9c-9.1-5.4-19.1-7.1-28.4-2.4
				C1291.8,1429.5,1313,1455.2,1340.6,1477.9L1340.6,1477.9z"/>
		</g>
		<g style="clip-path:url(#SVGID_00000171684389896457491780000008780665717462724763_);">
			<path class="st18" d="M1359.6,1441.9c61.7,15.5,176.3-20.3,151.9-82.5c-4.9-12.6-39.2-77.7-171.6,42.5
				C1347.9,1408.9,1357.3,1429.4,1359.6,1441.9L1359.6,1441.9z"/>
		</g>
		<g style="clip-path:url(#SVGID_00000171684389896457491780000008780665717462724763_);">
			<path class="st3" d="M1358.9,1442.1c-2.3-12.5-11.5-32.7-19.5-39.6c-0.2-0.1-0.3-0.3-0.3-0.5c0-0.2,0.1-0.4,0.2-0.6
				c133.3-120.9,167.8-54.9,172.8-42.2c9.9,25.2-2.7,46.2-25.5,61.3c-33.8,22.4-90.1,31.6-127.3,22.2
				C1359.2,1442.6,1359,1442.4,1358.9,1442.1L1358.9,1442.1z M1360.3,1441.3c36.8,9.1,92.3-0.1,125.7-22.2
				c22.1-14.6,34.5-35,24.9-59.5c-4.9-12.5-38.7-76.5-169.8,42.2C1348.9,1409.3,1357.8,1428.9,1360.3,1441.3L1360.3,1441.3z"/>
		</g>
		<g style="clip-path:url(#SVGID_00000171684389896457491780000008780665717462724763_);">
			<path class="st3" d="M1380.6,1430.4c-0.1,0.4-0.5,0.7-0.9,0.6c-0.4-0.1-0.6-0.5-0.6-0.9c0.4-2-0.3-5.4-1.6-9.1
				c-2-5.8-5.6-12.5-9.2-17c-1.5-1.9-3.1-3.4-4.5-4.3c-0.9-0.5-1.7-0.8-2.4-0.8c-0.4,0-0.8-0.3-0.8-0.7c0-0.4,0.3-0.8,0.7-0.8
				c1-0.1,2.1,0.3,3.3,1c1.6,0.9,3.2,2.6,4.9,4.6c4.4,5.4,8.6,13.9,10.4,20.3C1380.7,1426.2,1381,1428.7,1380.6,1430.4
				L1380.6,1430.4z"/>
		</g>
		<g style="clip-path:url(#SVGID_00000171684389896457491780000008780665717462724763_);">
			<path class="st19" d="M148.8,1480.9c-47-22.5,2.9-108.8,41.6-88.8C198.4,1431.8,176.9,1457.8,148.8,1480.9L148.8,1480.9z"/>
		</g>
		<g style="clip-path:url(#SVGID_00000171684389896457491780000008780665717462724763_);">
			<path class="st3" d="M148.5,1481.6c-23.9-11.4-23.3-39.1-11.6-61.4c7-13.3,17.8-24.6,29.6-29.4c8-3.2,16.4-3.5,24.3,0.6
				c0.2,0.1,0.3,0.3,0.4,0.5c8.1,40-13.6,66.3-41.9,89.5C149.1,1481.6,148.8,1481.7,148.5,1481.6L148.5,1481.6z M148.7,1480
				c27.6-22.7,48.8-48.4,41.1-87.5c-9.3-4.7-19.3-3-28.4,2.4c-9.3,5.6-17.6,15.1-23.2,25.9C127,1442.3,126,1468.8,148.7,1480
				L148.7,1480z"/>
		</g>
		<g style="clip-path:url(#SVGID_00000171684389896457491780000008780665717462724763_);">
			<path class="st18" d="M129.7,1444c-61.7,15.5-176.3-20.3-151.9-82.5c4.9-12.6,39.2-77.7,171.6,42.5
				C141.4,1411,132.1,1431.4,129.7,1444L129.7,1444z"/>
		</g>
		<g style="clip-path:url(#SVGID_00000171684389896457491780000008780665717462724763_);">
			<path class="st3" d="M129.9,1444.8c-37.2,9.3-93.5,0.1-127.3-22.2c-22.8-15.1-35.3-36-25.5-61.3c5-12.7,39.6-78.7,172.8,42.2
				c0.2,0.1,0.2,0.3,0.2,0.6c0,0.2-0.1,0.4-0.3,0.5c-8,6.9-17.2,27.1-19.5,39.6C130.4,1444.5,130.2,1444.7,129.9,1444.8
				L129.9,1444.8z M129.1,1443.4c2.5-12.4,11.4-32,19.3-39.4c-131.1-118.7-165-54.8-169.9-42.2c-9.6,24.5,2.8,44.9,24.9,59.5
				C36.8,1443.3,92.2,1452.5,129.1,1443.4L129.1,1443.4z"/>
		</g>
		<g style="clip-path:url(#SVGID_00000171684389896457491780000008780665717462724763_);">
			<path class="st3" d="M11.8,1406.3c0.1,0.4-0.1,0.8-0.4,0.9c-0.4,0.1-0.8-0.1-0.9-0.4c-4.4-11.8,0-26.2,7.7-37.9
				c7.7-11.7,18.7-20.6,27.3-21.6c0.4,0,0.8,0.2,0.8,0.7c0,0.4-0.2,0.8-0.7,0.8c-8.4,0.9-18.9,9.6-26.3,20.9
				C11.9,1381,7.6,1394.9,11.8,1406.3L11.8,1406.3z"/>
		</g>
		<g style="clip-path:url(#SVGID_00000171684389896457491780000008780665717462724763_);">
			<path class="st3" d="M110.2,1432.2c0.1,0.4-0.2,0.8-0.6,0.9c-0.4,0.1-0.8-0.2-0.9-0.6c-0.4-1.7-0.1-4.2,0.7-7
				c1.8-6.4,6-14.9,10.4-20.3c1.6-2,3.3-3.7,4.9-4.6c1.1-0.7,2.3-1,3.3-1c0.4,0,0.7,0.4,0.7,0.8c0,0.4-0.4,0.7-0.8,0.7
				c-0.8,0-1.6,0.3-2.4,0.8c-1.4,0.9-3,2.4-4.5,4.3c-3.7,4.5-7.2,11.2-9.2,17C110.4,1426.8,109.7,1430.1,110.2,1432.2L110.2,1432.2z
				"/>
		</g>
		<g style="clip-path:url(#SVGID_00000171684389896457491780000008780665717462724763_);">
			<path class="st18" d="M485.6,1129.6c-0.9,11.7,23,77.1,77.7,49c48.1-24.7,8.1-76,8.5-86L485.6,1129.6L485.6,1129.6z"/>
		</g>
		<g style="clip-path:url(#SVGID_00000171684389896457491780000008780665717462724763_);">
			<path class="st3" d="M485.1,1128.7l86.2-37c0.3-0.1,0.7-0.1,1,0.1c0.3,0.2,0.5,0.5,0.5,0.9c-0.1,1.5,0.9,4,2.3,7.3
				c2.2,5.2,5.6,12.1,8.3,19.9c4.2,11.8,6.8,25.5,2,37.8c-3.2,8.2-9.9,15.9-21.7,22c-15.6,8-28.8,8.5-39.7,4.9
				c-16.2-5.4-27.2-20.2-33.4-33.3c-4.5-9.4-6.4-18-6.2-21.6C484.5,1129.2,484.8,1128.8,485.1,1128.7L485.1,1128.7z M486.6,1130.3
				c0,3.7,2,11.4,6,19.9c6,12.7,16.5,27,32.2,32.2c10.4,3.5,23,2.9,38.1-4.8c11.3-5.8,17.6-13,20.7-20.9c4.7-11.8,2-25-2-36.4
				c-3.2-9-7.2-16.9-9.3-22.2c-0.6-1.6-1.1-3-1.3-4.1L486.6,1130.3L486.6,1130.3z"/>
		</g>
		<g style="clip-path:url(#SVGID_00000171684389896457491780000008780665717462724763_);">
			<path class="st20" d="M761.9,1418.2c113.2,0,205.1,91.9,205.1,205.1c0,113.2-91.9,205.1-205.1,205.1s-205.1-91.9-205.1-205.1
				C556.8,1510.1,648.7,1418.2,761.9,1418.2L761.9,1418.2z"/>
		</g>
		<g style="clip-path:url(#SVGID_00000171684389896457491780000008780665717462724763_);">
			<path class="st3" d="M761.9,1417.1c113.8,0,206.1,92.4,206.1,206.1c0,113.8-92.4,206.1-206.1,206.1s-206.1-92.4-206.1-206.1
				C555.8,1509.5,648.1,1417.1,761.9,1417.1L761.9,1417.1z M761.9,1419.2c-112.6,0-204.1,91.4-204.1,204.1
				c0,112.6,91.4,204.1,204.1,204.1S966,1735.9,966,1623.3C966,1510.6,874.5,1419.2,761.9,1419.2L761.9,1419.2z"/>
		</g>
		<g style="clip-path:url(#SVGID_00000171684389896457491780000008780665717462724763_);">
			<path class="st18" d="M961.4,1111.3c-9.4,7.1-42.5,68.2,14.8,90.7c50.3,19.7,62.3-44.3,70.1-50.6L961.4,1111.3L961.4,1111.3z"/>
		</g>
		<g style="clip-path:url(#SVGID_00000171684389896457491780000008780665717462724763_);">
			<path class="st3" d="M961.8,1110.4l84.8,40.1c0.3,0.2,0.5,0.5,0.6,0.8c0,0.4-0.1,0.7-0.4,0.9c-1.2,1-2.4,3.3-3.9,6.5
				c-2.4,5.1-5.4,12.2-9.4,19.4c-6.1,11-14.6,22-27,26.5c-8.3,3-18.4,3.2-30.8-1.7c-16.4-6.4-25.5-16-29.9-26.5
				c-6.7-15.7-2.9-33.8,2.8-47.1c4.1-9.6,9.2-16.7,12.1-18.9C961.1,1110.3,961.5,1110.2,961.8,1110.4L961.8,1110.4z M961.5,1112.6
				c-2.8,2.5-7.3,9.1-11,17.7c-5.5,12.9-9.3,30.3-2.8,45.5c4.3,10.1,13.1,19.2,28.8,25.4c11.8,4.6,21.4,4.6,29.4,1.7
				c12-4.3,20.1-15.1,25.9-25.6c4.6-8.3,7.9-16.6,10.5-21.7c0.8-1.5,1.5-2.8,2.2-3.7L961.5,1112.6L961.5,1112.6z"/>
		</g>
		<g style="clip-path:url(#SVGID_00000171684389896457491780000008780665717462724763_);">
			<path class="st18" d="M1264.9,1410.9c-11.7-1-77.3,22.2-49.8,77.2c24.2,48.4,75.9,8.9,86,9.3L1264.9,1410.9L1264.9,1410.9z"/>
		</g>
		<g style="clip-path:url(#SVGID_00000171684389896457491780000008780665717462724763_);">
			<path class="st3" d="M1265.5,1410.6l36.2,86.6c0.1,0.2,0.1,0.5-0.1,0.7c-0.1,0.2-0.4,0.3-0.6,0.3c-1.1-0.1-2.8,0.5-5,1.3
				c-5.3,2-13.3,6-22.4,9.1c-11.8,4-25.4,6.6-37.6,1.6c-8.2-3.3-15.7-10-21.6-21.8c-7.8-15.6-8.2-28.7-4.5-39.5
				c5.6-16.1,20.4-26.9,33.5-32.9c9.4-4.3,17.9-6.2,21.5-5.9C1265.2,1410.2,1265.4,1410.4,1265.5,1410.6L1265.5,1410.6z
				 M1264.4,1411.6c-3.7-0.1-11.6,1.8-20.3,5.8c-12.8,5.9-27.3,16.4-32.7,32c-3.6,10.4-3.2,23.2,4.4,38.3
				c5.7,11.4,12.9,17.9,20.8,21.1c11.9,4.8,25.1,2.3,36.6-1.6c9-3.1,17-7.1,22.3-9.1c1.8-0.7,3.3-1.1,4.5-1.3L1264.4,1411.6
				L1264.4,1411.6z"/>
		</g>
		<g style="clip-path:url(#SVGID_00000171684389896457491780000008780665717462724763_);">
			<path class="st18" d="M224.5,1408c11.7-1,77.3,22.2,49.8,77.2c-24.2,48.4-75.9,8.9-86,9.3L224.5,1408L224.5,1408z"/>
		</g>
		<g style="clip-path:url(#SVGID_00000171684389896457491780000008780665717462724763_);">
			<path class="st3" d="M224.4,1407.3c3.6-0.3,12.1,1.6,21.5,5.9c13.1,6,27.9,16.8,33.5,32.9c3.7,10.7,3.3,23.8-4.5,39.5
				c-5.9,11.8-13.4,18.4-21.6,21.8c-12.2,4.9-25.8,2.4-37.6-1.6c-9.1-3.1-17-7.1-22.4-9.1c-2.2-0.8-3.9-1.3-5-1.3
				c-0.3,0-0.5-0.1-0.6-0.3c-0.1-0.2-0.2-0.5-0.1-0.7l36.2-86.6C223.9,1407.5,224.2,1407.3,224.4,1407.3L224.4,1407.3z M225,1408.7
				l-35.6,85.2c1.2,0.2,2.7,0.6,4.5,1.3c5.3,2,13.3,6,22.3,9.1c11.5,3.9,24.7,6.5,36.6,1.6c7.9-3.2,15.1-9.6,20.8-21.1
				c7.6-15.2,8-27.9,4.4-38.3c-5.4-15.7-19.9-26.2-32.7-32C236.6,1410.5,228.7,1408.6,225,1408.7L225,1408.7z"/>
		</g>
		<g style="clip-path:url(#SVGID_00000171684389896457491780000008780665717462724763_);">
			<path class="st18" d="M742.3,1016.2c340.6,0,617.2,276.6,617.2,617.2c0,340.6-276.6,617.2-617.2,617.2
				c-340.6,0-617.2-276.6-617.2-617.2C125.1,1292.7,401.6,1016.2,742.3,1016.2L742.3,1016.2z M742.3,1099.5
				c-294.6,0-533.8,239.2-533.8,533.8c0,294.6,239.2,533.8,533.8,533.8c294.6,0,533.8-239.2,533.8-533.8
				C1276.1,1338.7,1036.9,1099.5,742.3,1099.5L742.3,1099.5z"/>
		</g>
		<g style="clip-path:url(#SVGID_00000171684389896457491780000008780665717462724763_);">
			<path class="st3" d="M742.3,1015.1c341.2,0,618.2,277,618.2,618.2c0,341.2-277,618.2-618.2,618.2c-341.2,0-618.2-277-618.2-618.2
				C124,1292.1,401.1,1015.1,742.3,1015.1L742.3,1015.1z M742.3,1017.2c-340.1,0-616.2,276.1-616.2,616.2
				c0,340.1,276.1,616.2,616.2,616.2c340.1,0,616.2-276.1,616.2-616.2C1358.4,1293.3,1082.3,1017.2,742.3,1017.2L742.3,1017.2z
				 M742.3,1098.5c295.2,0,534.9,239.7,534.9,534.9c0,295.2-239.7,534.9-534.9,534.9c-295.2,0-534.9-239.7-534.9-534.9
				C207.4,1338.1,447.1,1098.5,742.3,1098.5L742.3,1098.5z M742.3,1100.6c-294.1,0-532.8,238.7-532.8,532.8
				c0,294,238.7,532.8,532.8,532.8c294,0,532.8-238.7,532.8-532.8C1275.1,1339.3,1036.3,1100.6,742.3,1100.6L742.3,1100.6z"/>
		</g>
		<g style="clip-path:url(#SVGID_00000171684389896457491780000008780665717462724763_);">
			<path class="st21" d="M501.4,497.4c-26.3-26.3-79.9-25.4-82.1,25.6c-2.4,57,47.5,79.9,82.1,57.3V497.4L501.4,497.4z"/>
		</g>
		<g style="clip-path:url(#SVGID_00000171684389896457491780000008780665717462724763_);">
			<path class="st3" d="M502.1,497.4v82.9c0,0.2-0.1,0.5-0.3,0.6c-21.1,13.8-47.7,10.9-65.1-6.1c-11.6-11.3-19.1-28.8-18.1-51.9
				c0.7-15.5,6-26.5,14-33.5c18.4-16.3,50.7-11.3,69.4,7.4C502,497,502.1,497.2,502.1,497.4L502.1,497.4z M500.7,497.7
				c-18.2-18-49.3-22.9-67.2-7.1c-7.7,6.8-12.8,17.4-13.5,32.5c-1,22.6,6.3,39.7,17.7,50.8c16.8,16.4,42.5,19.3,63,6.1V497.7
				L500.7,497.7z"/>
		</g>
		<g style="clip-path:url(#SVGID_00000171684389896457491780000008780665717462724763_);">
			<path class="st3" d="M455.3,508.6c-2.1-0.4-0.1-2.2,2.3-1.7c4,0.8,7.7,2.3,13.7,11.4c9.7,14.5,7.2,14.9,10.2,23.8
				c0.2,0.5-0.1,1.1-0.7,1.3c-0.5,0.2-1.1-0.1-1.3-0.7c-2.9-8.7-0.5-9-10-23.3C463.2,509.8,459.7,509.4,455.3,508.6L455.3,508.6z"/>
		</g>
		<g style="clip-path:url(#SVGID_00000171684389896457491780000008780665717462724763_);">
			<path class="st3" d="M677.5,1162.8c-0.3,0.4-0.8,0.4-1.1,0.2s-0.4-0.8-0.2-1.1c22.6-31.6,24-30,45-63c0.2-0.4,0.7-0.5,1.1-0.2
				c0.4,0.2,0.5,0.7,0.2,1.1C701.5,1132.7,700.1,1131.1,677.5,1162.8L677.5,1162.8z"/>
		</g>
		<g style="clip-path:url(#SVGID_00000171684389896457491780000008780665717462724763_);">
			<path class="st3" d="M776.5,1106c-0.4-0.2-0.6-0.7-0.4-1.1c0.2-0.4,0.7-0.6,1.1-0.4c2.5,1.3,12.2,10.8,23.3,23.7
				c16.6,19.3,36.6,46.1,41.1,63.9c0.1,0.4-0.2,0.9-0.6,1s-0.9-0.2-1-0.6c-4.4-17.6-24.3-44.1-40.7-63.2
				C788.4,1116.6,778.9,1107.2,776.5,1106L776.5,1106z"/>
		</g>
		<g style="clip-path:url(#SVGID_00000171684389896457491780000008780665717462724763_);">
			<path class="st3" d="M477.3,1140.9c-0.3,0.3-0.8,0.2-1.1-0.1c-0.3-0.3-0.2-0.8,0.1-1.1c16.5-13.4,67.3-35.2,135.1-50.6
				c101.5-23.1,241-31.9,359.8,23.5c0.4,0.2,0.6,0.7,0.4,1.1c-0.2,0.4-0.7,0.6-1.1,0.4c-118.4-55.2-257.6-46.4-358.8-23.4
				C544.3,1106,493.8,1127.6,477.3,1140.9L477.3,1140.9z"/>
		</g>
		<g style="clip-path:url(#SVGID_00000171684389896457491780000008780665717462724763_);">
			<path class="st3" d="M989.4,1123c-0.4-0.2-0.5-0.7-0.3-1.1c0.2-0.4,0.7-0.5,1.1-0.3c16.8,10.2,16.5,10,33,21
				c0.4,0.2,0.5,0.7,0.2,1.1c-0.2,0.4-0.7,0.5-1.1,0.2C1005.8,1132.9,1006.1,1133.1,989.4,1123L989.4,1123z"/>
		</g>
		<g style="clip-path:url(#SVGID_00000171684389896457491780000008780665717462724763_);">
			<path class="st3" d="M1233.3,1357.8c-0.3-0.3-0.3-0.8,0-1.1c0.3-0.3,0.8-0.3,1.1,0c20.6,20.6,19.8,21.4,41.2,71.2
				c0.2,0.4,0,0.9-0.4,1c-0.4,0.2-0.9,0-1-0.4C1252.9,1379.1,1253.8,1378.3,1233.3,1357.8L1233.3,1357.8z"/>
		</g>
		<g style="clip-path:url(#SVGID_00000171684389896457491780000008780665717462724763_);">
			<path class="st3" d="M233.6,1424c0.1,0.4-0.1,0.9-0.5,1c-0.4,0.1-0.9-0.1-1-0.5c-0.5-1.6-0.6-3.7-0.2-6.3c0.5-3.6,2-8.2,3.9-13.1
				c7.4-18.9,22.3-43.9,24.4-47.3c0.2-0.4,0.7-0.5,1.1-0.3c0.4,0.2,0.5,0.7,0.3,1.1c-2.1,3.4-16.9,28.2-24.3,47.1
				c-1.9,4.8-3.2,9.2-3.8,12.7C233.1,1420.8,233.1,1422.6,233.6,1424L233.6,1424z"/>
		</g>
		<g style="clip-path:url(#SVGID_00000171684389896457491780000008780665717462724763_);">
			<path class="st3" d="M464.5,521.8c0.3-0.5,0.9-0.7,1.4-0.5c0.5,0.3,0.7,0.9,0.5,1.4c-5,9.9-3.6,9.6-6.6,24.9
				c-0.1,0.6-0.7,0.9-1.2,0.8c-0.6-0.1-0.9-0.7-0.8-1.2C460.8,531.5,459.4,531.9,464.5,521.8L464.5,521.8z"/>
		</g>
		<g style="clip-path:url(#SVGID_00000171684389896457491780000008780665717462724763_);">
			<path class="st21" d="M971.6,497.4c26.3-26.3,77.4-24.1,82.1,25.6c5.4,56.8-47.5,79.9-82.1,57.3V497.4L971.6,497.4z"/>
		</g>
		<g style="clip-path:url(#SVGID_00000171684389896457491780000008780665717462724763_);">
			<path class="st3" d="M971,496.9c16-16,41.1-21.6,59.6-12.6c12.4,6,21.9,18.5,23.8,38.7c2.2,23-5.1,40.5-16.8,51.8
				c-17.6,17-45.3,19.9-66.4,6.2c-0.2-0.1-0.3-0.4-0.3-0.6v-82.9C970.8,497.2,970.9,497,971,496.9L971,496.9z M972.3,497.7v82.2
				c20.4,13.1,47.2,10.2,64.2-6.2c11.5-11,18.5-28.2,16.4-50.6c-1.9-19.6-11-31.7-22.9-37.5C1012,476.9,987.8,482.3,972.3,497.7
				L972.3,497.7z"/>
		</g>
		<g style="clip-path:url(#SVGID_00000171684389896457491780000008780665717462724763_);">
			<path class="st3" d="M1027.6,506.2c0.5-0.3,1.1,0,1.4,0.5c0.3,0.5,0,1.1-0.5,1.4c-14.8,7.4-19.7,20.2-21.5,31.7
				c-1.2,7.8-1,15-1.5,19.5c-0.1,0.6-0.6,1-1.1,0.9c-0.6-0.1-1-0.6-0.9-1.1c0.6-5.7,0.1-15.6,2.7-25.7
				C1008.9,523.1,1014.6,512.7,1027.6,506.2L1027.6,506.2z"/>
		</g>
		<g style="clip-path:url(#SVGID_00000171684389896457491780000008780665717462724763_);">
			<path class="st3" d="M1017.2,526.3c-0.4-0.4-0.4-1.1,0-1.5c0.4-0.4,1.1-0.4,1.5,0c9.1,9.1,7.2,9.8,10.4,22.3
				c0.1,0.6-0.2,1.1-0.8,1.3c-0.6,0.1-1.1-0.2-1.3-0.8C1024.1,535.8,1025.9,535,1017.2,526.3L1017.2,526.3z"/>
		</g>
		<g style="clip-path:url(#SVGID_00000171684389896457491780000008780665717462724763_);">
			<path class="st22" d="M382.5,1271c-3.4,14.7,25.2,41.8,45,6.1c0.4-0.7,0.8-1.5,1.2-2.2c16.7-31.8,17.9-55,4.1-57
				C401,1226.5,385.2,1246.7,382.5,1271L382.5,1271z"/>
		</g>
		<g style="clip-path:url(#SVGID_00000171684389896457491780000008780665717462724763_);">
			<path class="st3" d="M381.5,1270.8L381.5,1270.8c2.7-24.7,18.8-45.1,51-54c0.1,0,0.3,0,0.4,0c6,0.9,9.4,5.4,10.2,12.7
				c1,10.3-3.4,26.5-13.5,45.8c-0.4,0.7-0.8,1.5-1.2,2.2c-6.1,11.1-13.1,16.2-19.8,17.7c-9.4,2.1-18.2-3.1-23.2-10.1
				C382.1,1280.6,380.5,1275.2,381.5,1270.8L381.5,1270.8z M383.5,1271.2c-0.9,3.9,0.6,8.6,3.6,12.8c4.5,6.3,12.5,11.2,21,9.3
				c6.2-1.4,12.7-6.3,18.4-16.7c0.4-0.7,0.8-1.5,1.2-2.2c9.9-18.8,14.3-34.6,13.3-44.6c-0.6-6.1-3.3-10-8.2-10.8
				c-31.1,8.6-46.7,28.3-49.3,52.2C383.5,1271.1,383.5,1271.2,383.5,1271.2L383.5,1271.2z"/>
		</g>
		<g style="clip-path:url(#SVGID_00000171684389896457491780000008780665717462724763_);">
			<path class="st22" d="M213.7,1292.8c-39-46.4-11.3-90.6,29.2-143.5c38.2-49.9,84.1-52.9,101.4-51.8
				c92.5,5.6,120.2,142.1,66.4,137.9c3.6,25-23.4,47.5-41.5,35.8c3.5,20.6-27,41.8-43.4,32.2c-0.5,4.7-7.3,38.7-46.5,30.7
				C273.2,1332.8,246.1,1321.5,213.7,1292.8L213.7,1292.8z"/>
		</g>
		<g style="clip-path:url(#SVGID_00000171684389896457491780000008780665717462724763_);">
			<path class="st3" d="M212.9,1293.4c-23.7-28.2-23.2-55.6-10-84.6c8.7-19.1,22.9-39,39.1-60.2c38.5-50.3,84.8-53.3,102.3-52.2
				c39.3,2.4,67,28.1,81.9,56.8c9.9,19.1,14.2,39.6,12.4,55.4c-1.2,10.4-5,18.7-11.4,23.5c-4,3-9.1,4.6-15.3,4.4
				c1.6,15-7.4,28.9-18.7,35.3c-7.3,4.1-15.5,5.1-22.7,1.4c0.6,10-6,19.9-14.9,26.3c-9.1,6.6-20.5,9.5-29,5.5
				c-1,5.5-5.3,20.8-19.6,27.8c-6.8,3.3-15.9,4.7-27.9,2.3c-6.1-1.2-33.4-12.6-66-41.5C212.9,1293.5,212.9,1293.5,212.9,1293.4
				L212.9,1293.4z M214.4,1292L214.4,1292c32.2,28.5,59,39.7,65,41c11.5,2.3,20.1,1,26.6-2.1c15-7.3,18.4-24.4,18.7-27.6
				c0-0.4,0.2-0.7,0.6-0.8c0.3-0.2,0.7-0.2,1,0c7.9,4.6,19.2,1.7,28.1-4.7c8.9-6.4,15.5-16.5,13.8-26.4c-0.1-0.4,0.1-0.8,0.5-1
				c0.3-0.2,0.8-0.2,1.1,0c6.9,4.5,15.2,3.7,22.4-0.4c11-6.2,19.6-19.8,17.5-34.4c0-0.3,0.1-0.6,0.3-0.9c0.2-0.2,0.5-0.3,0.8-0.3
				c15.5,1.2,23.9-9.9,25.7-26c1.8-15.5-2.4-35.5-12.1-54.2c-14.6-28.1-41.7-53.3-80.2-55.7c-17.2-1-62.6,2-100.5,51.4
				c-16.2,21.1-30.3,40.8-38.9,59.8C192,1237.9,191.3,1264.6,214.4,1292L214.4,1292z"/>
		</g>
		<g style="clip-path:url(#SVGID_00000171684389896457491780000008780665717462724763_);">
			<path class="st3" d="M325.8,1302.3c0.5,0.2,0.8,0.8,0.6,1.3c-0.2,0.5-0.8,0.8-1.3,0.6c-15.1-5.6-49.9-31.5-59-50.9
				c-0.2-0.5,0-1.1,0.5-1.4c0.5-0.2,1.1,0,1.4,0.5C276.9,1271.5,311.1,1296.8,325.8,1302.3L325.8,1302.3z"/>
		</g>
		<g style="clip-path:url(#SVGID_00000171684389896457491780000008780665717462724763_);">
			<path class="st3" d="M370.3,1270.7c0.4,0.4,0.4,1.1,0,1.5c-0.4,0.4-1.1,0.4-1.5,0c-18.9-19.2-37.8-38.3-49.4-65.9
				c-0.2-0.5,0-1.1,0.6-1.4c0.5-0.2,1.1,0,1.4,0.6C332.7,1232.8,351.6,1251.7,370.3,1270.7L370.3,1270.7z"/>
		</g>
		<g style="clip-path:url(#SVGID_00000171684389896457491780000008780665717462724763_);">
			<path class="st3" d="M409.5,1235.3c0-0.1-0.1-0.9-0.3-1.6c-0.8-2.7-3-7.4-5.9-13.1c-7.8-15.3-20.9-37.3-27.4-45.9
				c-0.9-1.2-1.7-2.2-2.3-2.8c-0.2-0.2-0.5-0.4-0.6-0.4c-0.5-0.1-0.9-0.7-0.8-1.2c0.1-0.6,0.7-0.9,1.2-0.8c0.3,0.1,0.7,0.3,1.2,0.6
				c0.7,0.6,1.7,1.7,2.9,3.3c6.6,8.6,19.7,30.8,27.6,46.2c3,5.8,5.2,10.7,6.1,13.4c0.3,1,0.4,1.7,0.4,2.2c0,0.2,0,0.4-0.1,0.5
				l-0.1,0.4c-0.3,0.5-0.9,0.7-1.4,0.4C409.5,1236.4,409.3,1235.8,409.5,1235.3L409.5,1235.3z"/>
		</g>
		<g style="clip-path:url(#SVGID_00000171684389896457491780000008780665717462724763_);">
			<path class="st22" d="M1107.3,1282.4c3.4,14.7-25.1,41.8-45,6.1c-0.4-0.7-0.8-1.5-1.2-2.2c-16.7-31.8-17.9-55-4.1-57
				C1088.8,1238,1104.6,1258.2,1107.3,1282.4L1107.3,1282.4z"/>
		</g>
		<g style="clip-path:url(#SVGID_00000171684389896457491780000008780665717462724763_);">
			<path class="st3" d="M1108.3,1282.3L1108.3,1282.3c1,4.4-0.6,9.8-4,14.4c-5,6.9-13.8,12.2-23.2,10.1c-6.6-1.5-13.6-6.7-19.8-17.7
				c-0.4-0.8-0.8-1.5-1.2-2.2c-10.1-19.3-14.6-35.5-13.5-45.8c0.7-7.3,4.2-11.8,10.2-12.7c0.1,0,0.3,0,0.4,0
				C1089.6,1237.1,1105.6,1257.6,1108.3,1282.3L1108.3,1282.3z M1106.3,1282.6c-2.6-23.8-18.2-43.6-49.3-52.2
				c-4.9,0.8-7.6,4.7-8.2,10.8c-1,10,3.4,25.8,13.3,44.6c0.4,0.7,0.8,1.5,1.2,2.2c5.8,10.4,12.2,15.3,18.4,16.7
				c8.6,1.9,16.5-3,21-9.3c3-4.1,4.5-8.9,3.6-12.8C1106.3,1282.6,1106.3,1282.6,1106.3,1282.6L1106.3,1282.6z"/>
		</g>
		<g style="clip-path:url(#SVGID_00000171684389896457491780000008780665717462724763_);">
			<path class="st22" d="M1276.1,1304.2c39-46.4,11.3-90.6-29.2-143.5c-38.2-49.9-84.1-52.9-101.4-51.8
				c-92.5,5.6-120.2,142.1-66.4,137.9c-3.6,25,23.4,47.5,41.5,35.8c-3.5,20.6,27,41.8,43.4,32.2c0.5,4.7,7.3,38.7,46.5,30.7
				C1216.6,1344.2,1243.7,1332.9,1276.1,1304.2L1276.1,1304.2z"/>
		</g>
		<g style="clip-path:url(#SVGID_00000171684389896457491780000008780665717462724763_);">
			<path class="st3" d="M1276.8,1305c-32.7,28.9-59.9,40.2-66,41.5c-12.1,2.5-21.1,1-27.9-2.3c-14.3-7-18.7-22.2-19.6-27.8
				c-8.4,4-19.9,1-29-5.5c-8.9-6.4-15.5-16.3-14.9-26.3c-7.2,3.7-15.4,2.7-22.7-1.4c-11.3-6.4-20.3-20.3-18.7-35.3
				c-6.2,0.2-11.3-1.4-15.3-4.4c-6.4-4.8-10.2-13.1-11.4-23.5c-1.8-15.8,2.4-36.3,12.4-55.4c14.9-28.7,42.6-54.4,81.9-56.8
				c17.5-1.1,63.8,1.9,102.3,52.2c16.3,21.2,30.5,41.1,39.1,60.2c13.2,29,13.7,56.4-10,84.6C1276.9,1304.9,1276.9,1305,1276.8,1305
				L1276.8,1305z M1275.4,1303.5L1275.4,1303.5c23.1-27.4,22.4-54.1,9.6-82.3c-8.6-19-22.7-38.7-38.9-59.8
				c-37.9-49.5-83.3-52.5-100.5-51.4c-38.5,2.3-65.6,27.5-80.2,55.7c-9.7,18.7-13.9,38.8-12.1,54.2c1.8,16.1,10.2,27.2,25.7,26
				c0.3,0,0.6,0.1,0.8,0.3c0.2,0.2,0.3,0.5,0.3,0.9c-2.1,14.6,6.5,28.2,17.5,34.4c7.2,4,15.5,4.8,22.4,0.4c0.3-0.2,0.8-0.2,1.1,0
				c0.3,0.2,0.5,0.6,0.5,1c-1.7,9.9,4.9,20,13.8,26.4c8.9,6.4,20.1,9.3,28.1,4.7c0.3-0.2,0.7-0.2,1,0c0.3,0.2,0.5,0.5,0.6,0.8
				c0.3,3.2,3.7,20.3,18.7,27.6c6.5,3.2,15.1,4.5,26.6,2.1C1216.4,1343.2,1243.2,1332,1275.4,1303.5L1275.4,1303.5z"/>
		</g>
		<g style="clip-path:url(#SVGID_00000171684389896457491780000008780665717462724763_);">
			<path class="st3" d="M1164.7,1315.7c-0.5,0.2-1.1-0.1-1.3-0.6c-0.2-0.5,0.1-1.1,0.6-1.3c14.8-5.5,48.9-30.8,57.9-49.8
				c0.2-0.5,0.9-0.7,1.4-0.5c0.5,0.2,0.7,0.9,0.5,1.4C1214.6,1284.2,1179.8,1310.1,1164.7,1315.7L1164.7,1315.7z"/>
		</g>
		<g style="clip-path:url(#SVGID_00000171684389896457491780000008780665717462724763_);">
			<path class="st3" d="M1121,1283.6c-0.4,0.4-1.1,0.4-1.5,0c-0.4-0.4-0.4-1.1,0-1.5c18.7-19.1,37.5-37.9,48.9-65.2
				c0.2-0.5,0.8-0.8,1.4-0.6c0.5,0.2,0.8,0.8,0.6,1.4C1158.9,1245.3,1139.9,1264.4,1121,1283.6L1121,1283.6z"/>
		</g>
		<g style="clip-path:url(#SVGID_00000171684389896457491780000008780665717462724763_);">
			<path class="st3" d="M1116.9,1183c0,0-0.4,0.2-0.6,0.4c-0.6,0.6-1.4,1.5-2.3,2.8c-6.5,8.6-19.5,30.6-27.4,45.9
				c-2.9,5.7-5.1,10.4-5.9,13.1c-0.2,0.7-0.3,1.5-0.3,1.6c0.2,0.5,0,1.1-0.5,1.3c-0.5,0.3-1.1,0.1-1.4-0.4l-0.1-0.4
				c0-0.1-0.1-0.3-0.1-0.5c0-0.5,0.1-1.2,0.4-2.2c0.9-2.8,3.1-7.6,6.1-13.4c7.9-15.4,21-37.6,27.6-46.2c1.2-1.6,2.2-2.7,2.9-3.3
				c0.5-0.4,0.9-0.6,1.2-0.6c0.6-0.1,1.1,0.2,1.2,0.8C1117.8,1182.3,1117.4,1182.9,1116.9,1183L1116.9,1183z"/>
		</g>
		<g style="clip-path:url(#SVGID_00000171684389896457491780000008780665717462724763_);">
			<path class="st23" d="M404.6,188.4c0,0-7.1-67.6-48.4-56.5c-31,8.3-52.2,57.5-52.2,57.5s-28.8-37.7-46.9-37.4
				c-30.8,0.5-68.4,29.6-56.9,67.8c6.7-8.3,15.3-46,65-31.4c49.6,14.6,44.7,46.4,52.5,14.9C325.5,171.9,370.4,172.9,404.6,188.4
				L404.6,188.4z"/>
		</g>
		<g style="clip-path:url(#SVGID_00000171684389896457491780000008780665717462724763_);">
			<path class="st23" d="M1093.4,161.6c0,0,16.2-23,0-36.3c-22.4-18.5-60.1,11-60.1,11s-8.6-42.1-23.5-49
				c-25.3-11.7-67.5-2.8-73.2,32.9c8.8-4.1,30.6-31.5,65.4,0c34.7,31.5,18.1,55.5,36.9,32.9C1057.7,130.5,1101.5,124.4,1093.4,161.6
				L1093.4,161.6z"/>
		</g>
		<g style="clip-path:url(#SVGID_00000171684389896457491780000008780665717462724763_);">
			<path class="st23" d="M206.9,807.4c0,0-7.9-28.1-32.4-24.2c-25.6,4.2-43.5,34.6-43.5,34.6s-22-31.4-36.7-31.8
				c-24.9-0.6-56.3,21.7-48.2,52.9c5.7-6.5,13.9-36.7,53.5-23.2c29.6,10,34.2,26.8,37.8,24.2C138.7,839,188,788.7,206.9,807.4
				L206.9,807.4z"/>
		</g>
		<g style="clip-path:url(#SVGID_00000171684389896457491780000008780665717462724763_);">
			<path class="st24" d="M319.3,592.6c-70.1-6.6-166,16-198.6,0c-50-40-27.9-120-10-145.1c48.2-67.5,77.9,96,79.8,106.5
				c6.5-29.1-8.9-73.3,36.3-79.9c29.3-4.3,33.8,72.7,34.4,78.9c1.9-5.4,21.1-59.2,52.4-48.9C344.8,514.2,320,586.5,319.3,592.6
				L319.3,592.6z"/>
		</g>
		<g style="clip-path:url(#SVGID_00000171684389896457491780000008780665717462724763_);">
			<path class="st10" d="M751.9,1269.5c11.3,0,20.5,9.2,20.5,20.5c0,11.3-9.2,20.5-20.5,20.5s-20.5-9.2-20.5-20.5
				C731.4,1278.7,740.5,1269.5,751.9,1269.5L751.9,1269.5z"/>
		</g>
		<g style="clip-path:url(#SVGID_00000171684389896457491780000008780665717462724763_);">
			<path class="st3" d="M751.9,1268.5c11.9,0,21.6,9.7,21.6,21.6c0,11.9-9.7,21.6-21.6,21.6s-21.6-9.7-21.6-21.6
				C730.3,1278.2,740,1268.5,751.9,1268.5L751.9,1268.5z M751.9,1270.6c-10.7,0-19.5,8.7-19.5,19.5s8.7,19.5,19.5,19.5
				c10.7,0,19.5-8.7,19.5-19.5S762.6,1270.6,751.9,1270.6L751.9,1270.6z"/>
		</g>
		<g style="clip-path:url(#SVGID_00000171684389896457491780000008780665717462724763_);">
			<path class="st24" d="M1185.8,348.7c-43.8-11.9-6-134.6,27.8-51.8c15.3,37.6-1.3-21.8,35.7-47c18.9-12.9,25.8-9.2,27.8-8.1
				c20.2,11,9.7,15.2,11.9,74.5c32.1-70,52.5,24.9,35.1,27.7C1248.2,356.4,1233.1,338.8,1185.8,348.7L1185.8,348.7z"/>
		</g>
		<g style="clip-path:url(#SVGID_00000171684389896457491780000008780665717462724763_);">
			<path class="st9" d="M925.6,405.2l-378.7,9.8c-86.1-47.8-112.4-109.8-22.3-202.3c33.2-34.1,133.2-82,215.7-85.8
				c46.7-2.2,148.8,18.7,218.5,73.5C1049.6,271.8,925.7,405,925.6,405.2L925.6,405.2z"/>
		</g>
		<g style="clip-path:url(#SVGID_00000171684389896457491780000008780665717462724763_);">
			<path class="st3" d="M925.6,406.2L546.9,416c-0.2,0-0.4,0-0.5-0.1c-43.4-24.1-71.6-51.8-77.8-85.1c-6.1-33.3,9.8-72.2,55.2-118.8
				c33.3-34.2,133.7-82.3,216.4-86.1c46.8-2.2,149.3,18.8,219.2,73.8c36.7,28.9,38.8,67.8,27.9,104c-16.1,54-61,102.3-61,102.3
				C926.1,406.1,925.9,406.2,925.6,406.2L925.6,406.2z M925.1,404.2c3.7-4.1,45-50,60.3-101.2c10.6-35.5,8.7-73.5-27.2-101.8
				c-69.5-54.7-171.3-75.5-217.8-73.3c-82.2,3.8-182,51.5-215,85.5c-44.7,45.9-60.7,84.2-54.7,117c6,32.7,33.9,59.8,76.5,83.5
				L925.1,404.2L925.1,404.2z"/>
		</g>
		<g style="clip-path:url(#SVGID_00000171684389896457491780000008780665717462724763_);">
			<path class="st25" d="M750,145.4c15.7,0,28.5,14.5,28.5,32.3c0,17.8-12.8,32.3-28.5,32.3c-15.7,0-28.5-14.5-28.5-32.3
				C721.5,159.9,734.3,145.4,750,145.4L750,145.4z"/>
			<path d="M750,210.5c-16,0-29-14.7-29-32.8c0-18.1,13-32.8,29-32.8c16,0,29,14.7,29,32.8C779,195.8,766,210.5,750,210.5z
				 M750,145.9c-15.5,0-28,14.3-28,31.8s12.6,31.8,28,31.8c15.5,0,28-14.3,28-31.8S765.5,145.9,750,145.9z"/>
		</g>
		<g style="clip-path:url(#SVGID_00000171684389896457491780000008780665717462724763_);">
			<path class="st3" d="M739.4,165.1c1.2,0,2.2,1,2.2,2.2c0,1.2-1,2.2-2.2,2.2c-1.2,0-2.2-1-2.2-2.2
				C737.3,166.1,738.2,165.1,739.4,165.1L739.4,165.1z"/>
		</g>
		<g style="clip-path:url(#SVGID_00000171684389896457491780000008780665717462724763_);">
			<path class="st3" d="M760.5,163.7c1.2,0,2.2,1,2.2,2.2c0,1.2-1,2.2-2.2,2.2s-2.2-1-2.2-2.2C758.3,164.7,759.3,163.7,760.5,163.7
				L760.5,163.7z"/>
		</g>
		<g style="clip-path:url(#SVGID_00000171684389896457491780000008780665717462724763_);">
			<path class="st22" d="M520.7,365.9c-1.6,2.5-111.3,372.7,93.5,480c23.6,12.4,231.5,121.3,327.3-62.3
				c101.1-193.8,29.3-380.4,14.9-431L520.7,365.9L520.7,365.9z"/>
		</g>
		<g style="clip-path:url(#SVGID_00000171684389896457491780000008780665717462724763_);">
			<path class="st3" d="M520.7,365.2l435.7-13.3c0.3,0,0.6,0.2,0.7,0.5c14.5,50.7,86.3,237.4-14.9,431.5
				c-48.1,92.1-124.3,110.9-191.4,105c-67-5.8-125-36.2-136.8-42.4c-102.7-53.8-126.6-173.4-124.6-280
				c1.6-85.1,19.8-161.8,27.4-189.7c1.5-5.6,2.6-9.2,3.1-10.6c0.2-0.4,0.3-0.7,0.3-0.8C520.3,365.3,520.5,365.2,520.7,365.2
				L520.7,365.2z M521.2,366.6c0,0,0,0.1,0,0.1c-0.5,1.3-1.6,5-3.1,10.5c-7.6,27.9-25.7,104.4-27.3,189.4
				c-2,106,21.6,225.1,123.8,278.6c11.8,6.2,69.5,36.4,136.3,42.2c66.6,5.8,142.3-12.8,190-104.3c100.6-192.9,29.8-378.6,15-429.9
				L521.2,366.6L521.2,366.6z"/>
		</g>
		<g style="clip-path:url(#SVGID_00000171684389896457491780000008780665717462724763_);">
			<path class="st10" d="M614.2,845.9c-126.5-66.2-133-232.7-119.2-351l4-3.3h7.7c9.8,181.3,101.7,61.4,129.3,88.3l136.3-30.6
				l127.5,21.8c32.2-30.5,85.8,48.8,76.7-91.8l11.9,3c12.2,82,10.9,190.5-46.9,301.3c-95.8,183.6-298.3,77-322,64.6L614.2,845.9
				L614.2,845.9z"/>
		</g>
		<g style="clip-path:url(#SVGID_00000171684389896457491780000008780665717462724763_);">
			<path class="st3" d="M613.8,846.9c-63.5-33.3-96.9-91.7-112.7-156.7c-15.7-64.8-13.9-136.1-7-195.4c0-0.3,0.2-0.5,0.4-0.7l4-3.3
				c0.2-0.2,0.4-0.2,0.7-0.2h7.7c0.6,0,1,0.4,1,1c1.7,31.6,5.9,54,11.8,69.6c5.8,15.4,13.3,24.1,21.8,28.4
				c8.4,4.3,17.8,4.3,27.3,2.3c9.7-2,19.5-6,28.7-9.6c9.7-3.8,18.7-7.2,26.1-7.5c5-0.2,9.4,0.9,12.8,4l135.8-30.5c0.1,0,0.3,0,0.4,0
				l127,21.7c9.9-9,21.6-8.4,33-6.6c5.2,0.8,10.4,1.8,15.2,2.1c4.7,0.3,9.1,0,12.9-1.9c4.6-2.3,8.5-6.8,11.2-14.9
				c4.3-12.7,5.9-34,3.6-69.3c0-0.3,0.1-0.7,0.4-0.9c0.3-0.2,0.6-0.3,0.9-0.2l11.9,3c0.4,0.1,0.7,0.4,0.8,0.9
				c12.2,82.2,10.9,190.9-47,301.9c-96.2,184.3-299.4,77.6-323.3,65.1L613.8,846.9C613.8,846.9,613.8,846.9,613.8,846.9L613.8,846.9
				z M614.7,845l5.3,2.3c0,0,0,0,0.1,0c23.5,12.3,225.2,118.6,320.5-64.2c57.5-110.3,59-218.2,46.9-300l-9.8-2.5
				c2.1,33.1,0.6,53.9-3.2,66.7c-2.4,8.1-5.8,13.1-9.7,16.1c-6,4.6-13.4,4.7-21.4,3.6c-7.1-0.9-14.8-2.7-22.2-2.8
				c-7.2,0-14.3,1.6-20.5,7.5c-0.2,0.2-0.6,0.3-0.9,0.3l-127.3-21.8l-136.1,30.6c-0.3,0.1-0.7,0-1-0.3c-3.9-3.8-9.2-4.4-15.4-3.4
				c-6.5,1-13.9,3.9-21.8,7c-9.3,3.7-19.3,7.7-29.1,9.7c-10,2.1-19.8,2-28.6-2.5c-8.8-4.5-16.7-13.5-22.8-29.5
				c-5.9-15.6-10.2-37.9-11.9-69.3h-6.3l-3.4,2.8c-6.9,58.9-8.7,129.8,7,194.2C518.7,754.1,551.8,812,614.7,845L614.7,845z"/>
		</g>
		<g style="clip-path:url(#SVGID_00000171684389896457491780000008780665717462724763_);">
			<path class="st26" d="M718.3,591.4l61-36l44,23.5c0,0-13,37.2-46.6,39.3C761.4,619.1,729.8,612,718.3,591.4L718.3,591.4z"/>
		</g>
		<g style="clip-path:url(#SVGID_00000171684389896457491780000008780665717462724763_);">
			<path class="st3" d="M717.8,590.5l61-36c0.3-0.2,0.7-0.2,1,0l44,23.5c0.5,0.2,0.7,0.8,0.5,1.3c0,0-13.3,37.8-47.5,40
				c-9.3,0.6-24.5-1.8-37.8-8.3c-8.9-4.4-16.9-10.6-21.6-19C717.1,591.4,717.3,590.8,717.8,590.5L717.8,590.5z M719.7,591.8
				c4.6,7.6,12,13.2,20.2,17.3c12.9,6.3,27.7,8.6,36.7,8.1c30-1.9,43.2-32.3,45.4-37.7l-42.7-22.8L719.7,591.8L719.7,591.8z"/>
		</g>
		<g style="clip-path:url(#SVGID_00000171684389896457491780000008780665717462724763_);">
			<path class="st3" d="M755.5,635.4c-0.5-0.3-0.6-1-0.2-1.5c0.3-0.5,1-0.6,1.5-0.2c9.4,7.1,23.5,7.1,34,3.4
				c6.8-2.4,12.1-6.4,13.4-11.3c0.1-0.6,0.7-0.9,1.3-0.7c0.6,0.1,0.9,0.7,0.7,1.3c-1.4,5.4-7.2,10-14.7,12.7
				C780.3,643.1,765.5,642.9,755.5,635.4L755.5,635.4z"/>
		</g>
		<g style="clip-path:url(#SVGID_00000171684389896457491780000008780665717462724763_);">
			<path class="st3" d="M532.5,671.5c-0.1,0.4-0.5,0.7-1,0.6c-0.4-0.1-0.7-0.5-0.6-1c0.3-1.3,2.3-17.8,16.3-29.5
				c0.3-0.3,0.8-0.2,1.1,0.1c0.3,0.3,0.2,0.8-0.1,1.1C534.7,654.2,532.8,670.3,532.5,671.5L532.5,671.5z"/>
		</g>
		<g style="clip-path:url(#SVGID_00000171684389896457491780000008780665717462724763_);">
			<path class="st3" d="M582.3,706c-0.1,0.4-0.5,0.7-0.9,0.6c-0.4-0.1-0.7-0.5-0.6-0.9c3.2-14.5,3.4-14.2,7.7-28.4
				c0.1-0.4,0.6-0.7,1-0.5c0.4,0.1,0.7,0.6,0.5,1C585.7,691.9,585.5,691.5,582.3,706L582.3,706z"/>
		</g>
		<g style="clip-path:url(#SVGID_00000171684389896457491780000008780665717462724763_);">
			<path class="st3" d="M655.1,724.3c0,0.4-0.4,0.8-0.9,0.7c-0.4,0-0.8-0.4-0.7-0.9c2.1-19.1,1.5-18.8,5.4-37.6
				c0.1-0.4,0.5-0.7,0.9-0.6c0.4,0.1,0.7,0.5,0.6,0.9C656.6,705.5,657.2,705.2,655.1,724.3L655.1,724.3z"/>
		</g>
		<g style="clip-path:url(#SVGID_00000171684389896457491780000008780665717462724763_);">
			<path class="st3" d="M755.4,737.2c0,0.4-0.4,0.8-0.8,0.8s-0.8-0.4-0.8-0.8c0-13.9,0.4-42.6-0.8-52.8c-0.1-0.4,0.3-0.8,0.7-0.9
				c0.4,0,0.8,0.3,0.9,0.7C755.7,694.5,755.4,723.2,755.4,737.2L755.4,737.2z"/>
		</g>
		<g style="clip-path:url(#SVGID_00000171684389896457491780000008780665717462724763_);">
			<path class="st3" d="M837.4,674.8c-0.2-0.4-0.1-0.9,0.2-1.1c0.4-0.2,0.9-0.1,1.1,0.2c11.6,17.5,14.6,27.5,15.4,30.1
				c0.1,0.4-0.1,0.9-0.5,1c-0.4,0.1-0.9-0.1-1-0.5C851.8,701.9,848.9,692.1,837.4,674.8L837.4,674.8z"/>
		</g>
		<g style="clip-path:url(#SVGID_00000171684389896457491780000008780665717462724763_);">
			<path class="st3" d="M894.9,642c-0.3-0.3-0.2-0.8,0.1-1.1c0.3-0.3,0.8-0.2,1.1,0.1c2.2,2.7,15.1,15.5,20,25.4
				c0.2,0.4,0,0.9-0.4,1.1c-0.4,0.2-0.9,0-1.1-0.4C909.8,657.3,897.1,644.6,894.9,642L894.9,642z"/>
		</g>
		<g style="clip-path:url(#SVGID_00000171684389896457491780000008780665717462724763_);">
			<path class="st3" d="M944.4,609.3c-0.4-0.1-0.7-0.5-0.7-0.9c0.1-0.4,0.5-0.7,0.9-0.7c2.4,0.4,5,0.8,25.6,16.2
				c0.4,0.3,0.4,0.8,0.2,1.1c-0.3,0.3-0.8,0.4-1.1,0.2C949.2,610.2,946.7,609.7,944.4,609.3L944.4,609.3z"/>
		</g>
		<g style="clip-path:url(#SVGID_00000171684389896457491780000008780665717462724763_);">
			<path class="st3" d="M616.7,435.7c-0.5,0.9-1.5,1.2-2.4,0.8c-0.9-0.5-1.2-1.5-0.8-2.4c3.2-6.2,13-13.6,24.2-17.2
				c10.2-3.3,21.5-3.7,30,2c5.7,3.8,10.3,10.4,12.5,20.7c0.2,1-0.4,1.9-1.4,2.1c-1,0.2-1.9-0.4-2.1-1.4c-1.9-9.2-5.9-15.1-11-18.5
				c-7.7-5.1-17.8-4.6-26.9-1.6C628.7,423.5,619.7,430,616.7,435.7L616.7,435.7z"/>
		</g>
		<g style="clip-path:url(#SVGID_00000171684389896457491780000008780665717462724763_);">
			<path class="st3" d="M843.7,428.1c0,1-0.9,1.7-1.9,1.7c-1-0.1-1.7-0.9-1.7-1.9c0.3-5.8,4.9-11.9,11.6-16.2
				c9.1-5.9,22-8.5,32.3-3.3c6.8,3.5,12.5,10.5,15.1,22.6c0.2,1-0.4,1.9-1.4,2.1c-1,0.2-1.9-0.4-2.1-1.4c-2.2-10.7-7.1-17-13.2-20.1
				c-9.1-4.7-20.6-2.1-28.7,3.1C848,418.3,844,423.2,843.7,428.1L843.7,428.1z"/>
		</g>
		<g style="clip-path:url(#SVGID_00000171684389896457491780000008780665717462724763_);">
			<path class="st27" d="M623.1,485.2c-44.7,0.6-39.9,26.9-33.3,32.1c29.3,23,56.1,6.6,57.7-1.3
				C649.3,506.9,649.3,488.8,623.1,485.2L623.1,485.2z"/>
		</g>
		<g style="clip-path:url(#SVGID_00000171684389896457491780000008780665717462724763_);">
			<path class="st27" d="M897.1,473.1c39.8,0.5,35.5,24.3,29.6,29c-26.1,20.9-49.9,6-51.3-1.2C873.8,492.8,873.8,476.4,897.1,473.1
				L897.1,473.1z"/>
		</g>
		<g style="clip-path:url(#SVGID_00000171684389896457491780000008780665717462724763_);">
			<path class="st10" d="M609.6,512.7c-0.1,0.6-0.6,1-1.2,0.9c-0.6-0.1-1-0.6-0.9-1.2c0.1-0.6,0.7-5.1,1.6-8.3
				c0.4-1.5,1-2.8,1.4-3.3c0.4-0.4,1.1-0.4,1.5,0c0.4,0.4,0.4,1.1,0,1.5c-0.3,0.3-0.6,1.2-0.9,2.3
				C610.3,507.7,609.7,512.1,609.6,512.7L609.6,512.7z"/>
		</g>
		<g style="clip-path:url(#SVGID_00000171684389896457491780000008780665717462724763_);">
			<path class="st10" d="M623.2,512.9c-0.2,0.5-0.8,0.8-1.3,0.7c-0.5-0.2-0.8-0.8-0.7-1.3c1.1-3.3,0.7-3.1,1.8-6.4
				c0.2-0.5,0.8-0.8,1.3-0.7c0.5,0.2,0.8,0.8,0.7,1.3C623.9,509.8,624.3,509.6,623.2,512.9L623.2,512.9z"/>
		</g>
		<g style="clip-path:url(#SVGID_00000171684389896457491780000008780665717462724763_);">
			<path class="st10" d="M892.2,489.2c-0.2-0.5,0.1-1.1,0.7-1.3c0.5-0.2,1.1,0.1,1.3,0.7c1.4,4.3,1.5,3.8,3.6,8.1
				c0.3,0.5,0,1.1-0.5,1.4c-0.5,0.3-1.1,0-1.4-0.5C893.7,493.2,893.7,493.6,892.2,489.2L892.2,489.2z"/>
		</g>
		<g style="clip-path:url(#SVGID_00000171684389896457491780000008780665717462724763_);">
			<path class="st10" d="M908.7,489.3c-0.3-0.5,0-1.1,0.5-1.4c0.5-0.3,1.1,0,1.4,0.5c0.3,0.5,2.6,5.2,3.5,6.1c0.4,0.4,0.4,1.1,0,1.5
				c-0.4,0.4-1.1,0.4-1.5,0C911.6,495,908.9,489.9,908.7,489.3L908.7,489.3z"/>
		</g>
		<g style="clip-path:url(#SVGID_00000171684389896457491780000008780665717462724763_);">
			<path class="st3" d="M565.1,668.3c0.3-0.2,0.8-0.1,1,0.2c0.2,0.3,0.1,0.8-0.6,1.1l0.4-0.1c0,0-1.3,1.2-3.3,5.7
				c-3.5,7.8-9.5,25.7-17.6,65.9c-0.1,0.4-0.5,0.7-0.9,0.6c-0.4-0.1-0.7-0.5-0.6-0.9c8.1-40.4,14.1-58.4,17.7-66.3
				C563.7,669.1,565.1,668.3,565.1,668.3L565.1,668.3z"/>
		</g>
		<g style="clip-path:url(#SVGID_00000171684389896457491780000008780665717462724763_);">
			<path class="st3" d="M607.2,702.8c0.1-0.4,0.4-0.7,0.8-0.6s0.7,0.5,0.6,0.8c-2.8,16.3-4.1,35.4,0,64.3c0.1,0.4-0.2,0.8-0.6,0.8
				c-0.4,0.1-0.8-0.2-0.8-0.6C603,738.4,604.3,719.2,607.2,702.8L607.2,702.8z"/>
		</g>
		<g style="clip-path:url(#SVGID_00000171684389896457491780000008780665717462724763_);">
			<path class="st3" d="M696.2,724c0-0.4,0.4-0.7,0.8-0.7c0.4,0,0.7,0.4,0.7,0.8c-2.2,20.4-3.5,41.8-4.2,63.6c0,0.4-0.4,0.7-0.8,0.7
				c-0.4,0-0.7-0.4-0.7-0.8C692.8,765.8,694.1,744.5,696.2,724L696.2,724z"/>
		</g>
		<g style="clip-path:url(#SVGID_00000171684389896457491780000008780665717462724763_);">
			<path class="st3" d="M793.9,707.5c-0.2-0.4,0-0.8,0.3-1c0.4-0.2,0.8,0,1,0.3c9.3,17.8,17.6,59.7,18.6,90c0,0.4-0.3,0.7-0.7,0.8
				c-0.4,0-0.7-0.3-0.8-0.7C811.3,766.7,803.1,725.2,793.9,707.5L793.9,707.5z"/>
		</g>
		<g style="clip-path:url(#SVGID_00000171684389896457491780000008780665717462724763_);">
			<path class="st3" d="M874.6,677.9c-0.2-0.3-0.2-0.8,0.2-1c0.3-0.2,0.8-0.2,1,0.2c11.4,15.9,22.8,32.3,29.7,57.9
				c0.1,0.4-0.1,0.8-0.5,0.9c-0.4,0.1-0.8-0.1-0.9-0.5C897.1,709.9,885.8,693.6,874.6,677.9L874.6,677.9z"/>
		</g>
		<g style="clip-path:url(#SVGID_00000171684389896457491780000008780665717462724763_);">
			<path class="st3" d="M917.1,631.3c-0.3-0.2-0.4-0.7-0.1-1c0.2-0.3,0.7-0.4,1-0.2c9.7,7.3,21.1,15.4,38.3,38.3
				c0.2,0.3,0.2,0.8-0.1,1c-0.3,0.2-0.8,0.2-1-0.1C938.1,646.6,926.8,638.6,917.1,631.3L917.1,631.3z"/>
		</g>
		<g style="clip-path:url(#SVGID_00000171684389896457491780000008780665717462724763_);">
			<path class="st3" d="M521.5,344.1c0.1,0,0.2,0,0.3,0c0.4,0,0.7,0.3,0.7,0.7c0,0.4-0.3,0.7-0.7,0.7c-0.8,0-1.3-0.3-1.6-0.6
				c-0.3-0.4-0.3-0.9,0-1.7c0.6-1.3,2.8-3.5,6.5-6.3c23.9-18.1,112.5-63.9,239.4-69.2c12-0.5,92.9,6,147.8,17.3
				c14.1,2.9,26.5,6.2,35.6,9.7c6.1,2.4,10.8,4.9,13.4,7.6c0.3,0.3,0.3,0.8,0,1c-0.3,0.3-0.8,0.3-1,0c-2.5-2.5-7-4.9-12.9-7.2
				c-9-3.5-21.3-6.7-35.4-9.6c-54.7-11.3-135.4-17.8-147.4-17.3c-126.4,5.3-214.7,50.9-238.6,68.9c-2.9,2.2-4.8,4-5.7,5.2
				C521.7,343.6,521.5,343.9,521.5,344.1L521.5,344.1z"/>
		</g>
		<g style="clip-path:url(#SVGID_00000171684389896457491780000008780665717462724763_);">
			<path class="st10" d="M520.9,352.4c-21.5-35,53.4-118.1,225.7-123.3c159.2-4.8,247.4,59.8,217.1,108.9L520.9,352.4L520.9,352.4z"
				/>
		</g>
		<g style="clip-path:url(#SVGID_00000171684389896457491780000008780665717462724763_);">
			<path class="st3" d="M520,352.9c-3.6-5.8-4.6-12.9-3.1-20.7c2.3-11.5,10.2-24.6,23.8-37.6c33.6-32.1,102.2-63.5,205.9-66.6
				c95.8-2.9,166,19.4,200.3,48.2c23.2,19.6,30.1,42.2,17.7,62.3c-0.2,0.3-0.5,0.5-0.9,0.5L521,353.4
				C520.6,353.4,520.2,353.2,520,352.9L520,352.9z M521.5,351.3l441.6-14.4c11.5-19.1,4.5-40.5-17.6-59.1
				c-34-28.7-103.7-50.6-198.9-47.7c-103,3.1-171.1,34.1-204.5,66c-13.2,12.6-20.9,25.3-23.2,36.5
				C517.6,339.6,518.4,346,521.5,351.3L521.5,351.3z"/>
		</g>
		<g style="clip-path:url(#SVGID_00000171684389896457491780000008780665717462724763_);">
			<path class="st28" d="M553,297c-5.7,6.5,7.4,25.6,20.4,11C583.6,296.4,562.2,276.8,553,297L553,297z"/>
		</g>
		<g style="clip-path:url(#SVGID_00000171684389896457491780000008780665717462724763_);">
			<path class="st3" d="M552.1,296.4L552.1,296.4c3-6.4,7.1-9,11.2-9.2c4.8-0.2,9.4,2.9,11.9,7.1c2.5,4.3,2.8,9.8-1.1,14.3
				c-3.9,4.4-7.8,5.9-11.3,5.7c-5.3-0.3-9.6-4.5-11.3-9C550.2,302.1,550.3,298.6,552.1,296.4L552.1,296.4z M553.8,297.7
				c-1.5,1.7-1.4,4.4-0.4,6.9c1.5,3.8,5.1,7.4,9.5,7.7c3,0.2,6.3-1.2,9.6-5c3.2-3.7,2.9-8.2,0.9-11.8c-2.1-3.6-6-6.3-10-6.1
				c-3.5,0.2-6.9,2.5-9.5,8.1C553.9,297.5,553.9,297.6,553.8,297.7L553.8,297.7z"/>
		</g>
		<g style="clip-path:url(#SVGID_00000171684389896457491780000008780665717462724763_);">
			<path class="st28" d="M938.7,284.2c-11.4-11.9-28.6,8.6-8.4,16.6C938.7,304.2,948.8,294.8,938.7,284.2L938.7,284.2z"/>
		</g>
		<g style="clip-path:url(#SVGID_00000171684389896457491780000008780665717462724763_);">
			<path class="st3" d="M939.4,283.5c4.4,4.6,5.2,9,4.1,12.4c-1.7,5.2-8,8.1-13.7,5.8c-8.8-3.5-10.9-9.2-9.7-14
				c1.3-5,6.5-9,12.2-8.2C934.7,280,937.2,281.2,939.4,283.5L939.4,283.5z M937.9,285c-1.9-1.9-3.9-3-5.9-3.2
				c-4.6-0.6-8.8,2.6-9.8,6.6c-1,3.9,1,8.6,8.4,11.5c4.5,1.8,9.6-0.4,10.9-4.6C942.5,292.5,941.6,288.8,937.9,285L937.9,285z"/>
		</g>
		<g style="clip-path:url(#SVGID_00000171684389896457491780000008780665717462724763_);">
			<path class="st10" d="M538.3,365.4l12.3,4.4c0.1,78.1-38.4,119.9-56.4,132.9c8.3-77.2,25.9-135.9,26.5-136.8L538.3,365.4
				L538.3,365.4z"/>
		</g>
		<g style="clip-path:url(#SVGID_00000171684389896457491780000008780665717462724763_);">
			<path class="st3" d="M538.7,364.4l12.3,4.4c0.4,0.2,0.7,0.5,0.7,1c0.1,78.6-38.7,120.7-56.9,133.8c-0.3,0.2-0.8,0.3-1.1,0.1
				c-0.4-0.2-0.6-0.6-0.5-1c6.6-61.8,19.2-111.8,24.4-129.8c1.3-4.7,2.2-7.3,2.3-7.5c0.2-0.3,0.5-0.5,0.8-0.5l17.6-0.5
				C538.4,364.3,538.6,364.4,538.7,364.4L538.7,364.4z M521.5,367c-0.3,1-1,3.2-1.9,6.5c-5,17.7-17.3,66.5-24,127.1
				c18.5-14.3,53.9-55.5,54.1-129.9l-11.4-4.1L521.5,367L521.5,367z"/>
		</g>
		<g style="clip-path:url(#SVGID_00000171684389896457491780000008780665717462724763_);">
			<path class="st10" d="M933.1,353.3l23.3-0.7c6.6,23.2,25.3,74.9,33.8,142.7C960.2,472,932.4,392.2,933.1,353.3L933.1,353.3z"/>
		</g>
		<g style="clip-path:url(#SVGID_00000171684389896457491780000008780665717462724763_);">
			<path class="st3" d="M933,352.3l23.3-0.7c0.5,0,0.9,0.3,1,0.8c6.6,23.2,25.3,75,33.9,142.9c0.1,0.4-0.2,0.8-0.5,1
				c-0.4,0.2-0.8,0.2-1.2-0.1c-12.1-9.4-23.9-27.9-33.6-49.3c-14.5-31.9-24.3-70.1-24-93.6C932,352.8,932.5,352.3,933,352.3
				L933,352.3z M934.1,354.4c-0.1,23.3,9.6,60.5,23.8,91.7c9,19.8,19.8,37.2,31,46.8c-8.6-65.7-26.5-116-33.2-139.2L934.1,354.4
				L934.1,354.4z"/>
		</g>
		<g style="clip-path:url(#SVGID_00000171684389896457491780000008780665717462724763_);">
			<path class="st3" d="M519.7,345.2c-65.2,39.6,215.1,79.8,412.1,26.3c34.3-9.3,61.3-22.4,22.6-53.2
				C804.3,252,659.7,265.1,519.7,345.2L519.7,345.2z"/>
		</g>
		<g style="clip-path:url(#SVGID_00000171684389896457491780000008780665717462724763_);">
			<path class="st25" d="M545.1,355.9c-2.2-0.5-3.7-2.7-3.2-4.9c0.5-2.2,2.7-3.7,4.9-3.2c94,19.9,267,31.8,407.3-16.2
				c2.2-0.7,4.5,0.4,5.3,2.6c0.7,2.2-0.4,4.5-2.6,5.3C815,387.9,640.2,376,545.1,355.9L545.1,355.9z"/>
		</g>
		<g style="clip-path:url(#SVGID_00000171684389896457491780000008780665717462724763_);">
			<path class="st10" d="M772.4,520.3c-62.6-30.4-149.7,24.1-144.4,66.6c49.5,46.8,140.6,2.1,148.4-26.2
				c7.3,32.3,113.3,41.5,133.5,26.2C916.1,500.2,811.7,498.2,772.4,520.3L772.4,520.3z"/>
		</g>
		<g style="clip-path:url(#SVGID_00000171684389896457491780000008780665717462724763_);">
			<path class="st3" d="M772.4,519.1c15.9-8.7,42-13.6,67.3-10.9c23.1,2.5,45.4,11.4,58.8,29.5c8.9,12.1,13.9,28.2,12.4,49.3
				c0,0.3-0.2,0.6-0.4,0.8c-3.7,2.8-10.3,4.9-18.6,6.1c-19,2.8-47.4,1.2-71.4-4.5c-13.8-3.3-26.1-8-34.4-14c-4.6-3.4-8-7.2-9.8-11.4
				c-1.7,3.8-4.7,7.9-8.8,11.9c-7.6,7.5-18.8,14.9-32,20.7c-33,14.7-78.2,19.5-108.2-8.9c-0.2-0.2-0.3-0.4-0.3-0.6
				c-2.2-17.3,10.6-36.6,30.9-51.6C688,513.4,734.5,501,772.4,519.1L772.4,519.1z M771.9,521.2c-37.2-18.1-83.2-5.8-112.8,15.9
				c-19.5,14.3-32,32.6-30.1,49.2c29.4,27.5,73.4,22.6,105.6,8.3c12.9-5.7,24-13,31.4-20.3c4.8-4.8,8.2-9.5,9.4-13.9
				c0.1-0.5,0.5-0.8,1-0.8c0.5,0,0.9,0.3,1,0.8c1.1,4.9,4.7,9.3,9.9,13.1c8.1,5.9,20.2,10.5,33.6,13.7c23.7,5.7,51.8,7.2,70.6,4.5
				c7.6-1.1,13.7-2.9,17.3-5.4c1.4-20.3-3.4-35.8-12-47.4c-13.1-17.6-34.9-26.2-57.4-28.6c-25.1-2.7-51,2.2-66.5,10.9
				C772.6,521.3,772.2,521.3,771.9,521.2L771.9,521.2z"/>
		</g>
		<g style="clip-path:url(#SVGID_00000171684389896457491780000008780665717462724763_);">
			<path class="st29" d="M822,453.6c-8.4-10.4-23.9-27.4-53.1-24.4c-36.3,3.6-55.2,40.6-55.2,40.6c-1.6,6.3-7.3,55,17.8,17.7
				c0.9,4.7,11.9,59.9,43.7,47.1c32.2-12.9,27.3-60.7,33-52.2c1.6,2.4,8.1,6.7,8.1,6.7C825.6,493.8,834.3,480.7,822,453.6L822,453.6
				z"/>
		</g>
		<g style="clip-path:url(#SVGID_00000171684389896457491780000008780665717462724763_);">
			<path class="st3" d="M807,482.6c-0.1,0.1-0.2,0.3-0.2,0.5c-0.4,1-0.8,2.6-1.2,4.6c-1.3,6-3,15.6-7.3,24.8
				c-4.3,9.4-11.2,18.4-22.8,23c-13.3,5.3-23.1-0.6-30.1-10.1c-8.7-11.7-13.1-28.9-14.5-35.4c-3.3,4.6-6.1,7.5-8.5,9.1
				c-2,1.4-3.7,1.8-5.2,1.6c-1.5-0.2-2.8-1.1-3.8-2.6c-1.2-2-1.9-5-2.1-8.7c-0.3-7.1,1.4-16.5,4.8-24.5c2.3-5.4,5.4-10.1,9.1-13
				c0.5-0.4,1.1-0.3,1.5,0.2c0.4,0.5,0.3,1.1-0.2,1.5c-3.5,2.7-6.3,7.2-8.5,12.2c-3.3,7.7-4.9,16.8-4.6,23.6
				c0.1,2.7,0.5,5.1,1.3,6.8c0.6,1.4,1.5,2.4,2.7,2.6c1,0.1,2.3-0.3,3.7-1.3c2.5-1.7,5.6-5.1,9.3-10.6c0.2-0.3,0.7-0.5,1.1-0.4
				c0.4,0.1,0.7,0.4,0.8,0.8c0.6,2.8,4.7,23.5,14.7,37c6.5,8.7,15.4,14.3,27.6,9.4c12.6-5.1,19.3-15.6,23.3-25.8
				c4-10.5,5.2-20.7,6.5-24.8c0.3-0.9,0.6-1.6,0.9-2c0.1-0.1,0.2-0.2,0.3-0.3l0.4-0.2l0.3-0.1l0.4,0c0.6,0,1.3,0.4,2,1.5
				c1.5,2.3,7.7,6.3,7.7,6.3c3.3,1.7,6.8,0.7,8.9-2.8c1.3-2.2,2-5.5,1.7-9.6c-0.5-6.5-3.3-15.2-10.1-25.9c-0.3-0.5-0.2-1.1,0.3-1.4
				c0.5-0.3,1.1-0.2,1.4,0.3c7,11.1,10,20.2,10.4,26.9c0.3,4.7-0.5,8.3-2,10.8c-2.7,4.5-7.3,5.7-11.6,3.5c0,0-6.9-4.5-8.5-7.1
				C807.1,482.8,807,482.7,807,482.6L807,482.6z"/>
		</g>
		<g style="clip-path:url(#SVGID_00000171684389896457491780000008780665717462724763_);">
			<path class="st3" d="M1445.8,1346.9c-0.4-0.1-0.6-0.5-0.5-0.9c0.1-0.4,0.5-0.6,0.9-0.5c17.9,4.7,30.2,20.8,34.6,36.5
				c2.9,10.6,2.3,21-2.7,27.6c-0.2,0.3-0.7,0.4-1,0.2c-0.3-0.2-0.4-0.7-0.2-1c4.7-6.3,5.2-16.3,2.4-26.3
				C1475.1,1367.1,1463.1,1351.4,1445.8,1346.9L1445.8,1346.9z"/>
		</g>
		<g style="clip-path:url(#SVGID_00000171684389896457491780000008780665717462724763_);">
			<path class="st18" d="M8.3,1088.2c-0.4,0.1-0.9-0.2-1-0.6c-0.1-0.4,0.2-0.9,0.6-1c43.7-10.9,44-8.8,70.3-20.1
				c0.4-0.2,0.9,0,1,0.4c0.2,0.4,0,0.9-0.4,1C52.5,1079.3,52.2,1077.2,8.3,1088.2L8.3,1088.2z"/>
		</g>
		<g style="clip-path:url(#SVGID_00000171684389896457491780000008780665717462724763_);">
			<path class="st18" d="M123.9,1059.7c-0.4,0.1-0.8-0.2-0.9-0.6c-0.1-0.4,0.2-0.8,0.6-0.9c15.4-3.1,14.8-2.9,30.1-6.7
				c0.4-0.1,0.9,0.2,1,0.6s-0.2,0.9-0.6,1C138.8,1056.8,139.4,1056.6,123.9,1059.7L123.9,1059.7z"/>
		</g>
		<g style="clip-path:url(#SVGID_00000171684389896457491780000008780665717462724763_);">
			<path class="st18" d="M1401.1,1051.3c-0.4-0.1-0.7-0.5-0.6-1c0.1-0.4,0.5-0.7,1-0.6c38.5,9.6,38.3,9,75.5,23.5
				c0.4,0.2,0.6,0.6,0.5,1c-0.2,0.4-0.6,0.6-1,0.5C1439.3,1060.3,1439.4,1060.9,1401.1,1051.3L1401.1,1051.3z"/>
		</g>
		<g style="clip-path:url(#SVGID_00000171684389896457491780000008780665717462724763_);">
			<path class="st3" d="M749.4,161c0-0.4,0.2-0.7,0.6-0.7c0.4,0,0.7,0.2,0.7,0.6c0.2,2-0.2,1.6,0.9,24.7c0,0.4-0.3,0.7-0.6,0.7
				c-0.4,0-0.7-0.3-0.7-0.6C749.2,162.6,749.7,163,749.4,161L749.4,161z"/>
		</g>
		<g style="clip-path:url(#SVGID_00000171684389896457491780000008780665717462724763_);">
			<path class="st3" d="M750,185.5c0.1-0.3,0.4-0.6,0.8-0.5c0.3,0.1,0.6,0.4,0.5,0.8c-0.9,3.5-2.3,6-3.9,7.3c-1.2,1-2.4,1.3-3.6,1
				c-1.8-0.4-3.5-2.5-4.3-6.6c-0.1-0.4,0.2-0.7,0.5-0.8c0.3-0.1,0.7,0.2,0.8,0.5c0.4,1.8,0.9,3.1,1.5,4.1c0.6,0.8,1.2,1.4,1.9,1.5
				c0.8,0.2,1.6-0.1,2.5-0.8C748,190.9,749.2,188.6,750,185.5L750,185.5z"/>
		</g>
		<g style="clip-path:url(#SVGID_00000171684389896457491780000008780665717462724763_);">
			<path class="st3" d="M751.7,185c-0.1-0.3-0.4-0.6-0.8-0.5c-0.3,0.1-0.6,0.4-0.5,0.8c0.9,3.5,2.3,6,3.9,7.3c1.2,1,2.4,1.3,3.6,1
				c1.8-0.4,3.5-2.5,4.3-6.6c0.1-0.4-0.2-0.7-0.5-0.8c-0.4-0.1-0.7,0.2-0.8,0.5c-0.4,1.8-0.9,3.1-1.5,4.1c-0.6,0.8-1.2,1.4-1.9,1.5
				c-0.8,0.2-1.6-0.1-2.5-0.8C753.8,190.4,752.5,188.2,751.7,185L751.7,185z"/>
		</g>
		<g style="clip-path:url(#SVGID_00000171684389896457491780000008780665717462724763_);">
			<path class="st3" d="M760.3,165c0.1,0,0.1,0,0.2,0c0.3,0,0.4,0,0.4,0l0.2,0.1l0.2,0.1l0.1,0.2l0.1,0.2l0,0.3l0,0.1l-0.1,0.1
				l-0.2,0.2l-0.3,0.1c-0.6,0.1-12.4,0.4-13.9,0.7c-3.6,0.6-5,0.7-5.9,0.8c-0.5,0-0.7,0.1-1.1,0.3c-0.3,0.2-0.8,0-0.9-0.3
				c-0.2-0.3,0-0.8,0.3-0.9c0.5-0.3,0.9-0.3,1.5-0.4c0.8-0.1,2.3-0.2,5.8-0.8C748.1,165.4,758.2,165.1,760.3,165L760.3,165z"/>
		</g>
		<g style="clip-path:url(#SVGID_00000171684389896457491780000008780665717462724763_);">
			<path class="st3" d="M748.2,160.1c0.1,0,0.2,0,0.3,0c0.6-0.1,2.9-0.2,3.9-0.1c0.2,0,0.4,0,0.5,0.1l0.2,0.1l0.2,0.1
				c0.3,0.3,0.3,0.7,0,1c-0.2,0.2-0.5,0.3-0.8,0.1c-0.2,0-3.2,0-3.7,0c-0.4,0.1-0.9,0.2-1,0.1l-0.2,0l-0.2-0.1l-0.2-0.2l-0.1-0.2
				l0-0.2l0-0.2l0.2-0.3l0.3-0.2C747.8,160.1,748,160.1,748.2,160.1L748.2,160.1z"/>
		</g>
		<g style="clip-path:url(#SVGID_00000171684389896457491780000008780665717462724763_);">
			<path class="st3" d="M744.9,188.9c0.2,0.1,0.5,0.2,0.7,0c0.3-0.2,0.5-0.6,0.3-0.9l-0.1-0.2l-0.2-0.1c-0.1,0-0.4-0.2-2.3-1
				c-1.8-0.8-1.8-0.8-3.7-1.4c-0.3-0.1-0.7,0.1-0.9,0.4c-1.2,3.2-1.4,4.6-1.5,5.1c-0.1,0.4,0.2,0.7,0.6,0.8c0.4,0.1,0.7-0.2,0.8-0.6
				c0.1-0.4,0.2-1.6,1.2-4.1c1.2,0.4,1.4,0.5,3,1.1L744.9,188.9L744.9,188.9z M744.7,188.6L744.7,188.6L744.7,188.6L744.7,188.6z"/>
		</g>
		<g style="clip-path:url(#SVGID_00000171684389896457491780000008780665717462724763_);">
			<path class="st3" d="M756.8,188.4c-0.2,0.1-0.5,0.2-0.7,0c-0.3-0.2-0.5-0.6-0.3-0.9l0.1-0.2l0.2-0.1c0.1,0,0.4-0.2,2.2-1
				c1.8-0.8,1.8-0.8,3.7-1.4c0.3-0.1,0.7,0.1,0.9,0.4c1.2,3.2,1.4,4.6,1.5,5.1c0.1,0.4-0.2,0.7-0.6,0.8c-0.4,0.1-0.7-0.2-0.8-0.6
				c-0.1-0.4-0.2-1.6-1.2-4.1c-1.2,0.4-1.4,0.5-3,1.1L756.8,188.4L756.8,188.4z M757,188.2L757,188.2L757,188.2L757,188.2z"/>
		</g>
	</g>
</g>
</svg>
