<?xml version="1.0" encoding="UTF-8"?>
<svg id="katman_1" data-name="katman 1" xmlns="http://www.w3.org/2000/svg" viewBox="0 0 1448 2172">
  <defs>
    <style>
      .cls-1 {
        fill: #d3c79f;
      }

      .cls-2 {
        fill: #9dbdc1;
      }

      .cls-3 {
        fill: #555d45;
      }

      .cls-4 {
        fill: #adaa73;
      }

      .cls-5 {
        fill: #8e9261;
      }

      .cls-6 {
        fill: #794545;
      }

      .cls-7 {
        fill: #d67f7f;
      }

      .cls-8 {
        fill: #fffbfb;
      }

      .cls-9 {
        fill: #bebe7f;
      }

      .cls-10 {
        fill: #98a56e;
      }
    </style>
  </defs>
  <g>
    <path class="cls-2" d="M1448,0v1408.75l.62-.36c-4.31-1.83-8.84-1.45-13.56,1.15-8.13,2.33-14.93,7.33-20.33,14.95-2.7,3.8-6.37,8.42-10.98,13.81l-3.18,2.98-1.94,1.68-6.32.17-.41-.71-.53-.48-.65-.28-.73-.09-1.81.39-2.11,1.12-1.77,1.51-1.85-.64c-.29-.63-.92-1.12-1.9-1.48-5.83-2.09-11.58-2.67-17.22-1.72-11.12,1.87-21.57,4.96-31.27,9.24l-4.95,2.55-4.44,3.09-3.93,3.59-3.56,4.2-3.35,5.01-3.27,6c-.1.21-.36.29-.56.19-.05-.03-.1-.06-.14-.11l-1.37-1.28-1.46-.65-1.33-.12-1.34.24-1.46.62-1.39.92-1.46,1.29-1.41,1.63-1.16,1.74-.81,1.67c-1.06,1.19-2.3,1.95-3.71,2.26-.71.15-1.08-.04-1.12-.58.61-.83.53-1.47-.22-1.92-.57-.34-1.32-.16-1.66.42-.11.18-.16.38-.17.58-.01.39.15.71.5.98.26.86-.6,1.16-2.58.9l-1.82-2.45-1.09-.98-1.18-.79-1.23-.57-1.25-.32-1.17-.07-1.15.18-1.22.5-1.14.84-.99,1.12-.88,1.45c-.87,1.71-1.33,2.78-1.38,3.21-.04.32-.32.55-.64.52l-.52-.02-1.07.17-1.18.51-2.64,2.04-1.23,1.06c-.25.2-.61.16-.81-.08-.04-.05-.07-.1-.09-.16-1.87-4.96-5.16-8.56-9.83-10.76l-3.76-1.41-4.09-.83-4.23-.22-4.47.37-4.61.97-4.69,1.56-4.53,2.07-4.4,2.58-3.27,2.31-3.01,2.46-4.55,4.42-4.16,4.99-3.95,5.78-3.85,6.73c-.18.35-.6.52-.98.4l-2.71-.57-2.48.1-1.42.36-1.35.57-2.75,1.86c-.25.21-.6.26-.89.11-3.52-1.76-7.22-1.83-11.07-.2-6.69,2.82-11.65,7.33-14.84,13.48-.28.81-.74,1.42-1.38,1.83-.27.17-.6.2-.89.07l-2.82-1.24-2.75-.72-1.33-.05-1.24.15-1.99.7-1.94,1.3-1.97,1.97-2.24,2.87c-.16.22-.47.27-.7.11-.04-.03-.08-.07-.11-.11-1.58-2.22-3.91-4.42-6.97-6.58l-3.11-1.86-3.1-1.21-3.17-.61-3.1.02-2.14.38-2.08.67-1.99.96-1.9,1.22-1.83,1.51-1.7,1.77-1.56,2.01-1.41,2.23-1.87,3.88-1.43,4.29-.99,4.74-.53,5.12c-.02.26-.25.46-.51.44-.03,0-.06,0-.08-.01l-2.46-.36-2.71.14-2.74.62-2.89,1.12-2.94,1.58-2.91,2.01-2.77,2.37-2.46,2.6c-1.51.33-2.93,1.17-4.26,2.52-1.09-.45-2.07.03-2.96,1.42-.12.19-.37.24-.55.12-.04-.02-.07-.05-.1-.09l-1.3-1.43-1.45-1.23-1.59-1.02-1.69-.78-1.76-.53-1.81-.27-1.73.02-1.73.28-2.69,1.06-.54.32-2.03,1.62-1.73,2.16-1.4,2.72-1.03,3.18c-.08.33-.38.55-.71.54l-2.68.24-2.09.73-2.05,1.26-1.81,1.68-1.68,2.17-1.48,2.61-1.23,2.97-.88,3.09-.51,3.1c-1.01-.01-2.14.57-3.37,1.75-.51-.66-1.03-.89-1.55-.69-.33.12-.55.4-.68.84-.11.37-.16.74-.16,1.13-.95.73-1.79,1.12-2.5,1.17l-1.78-1.91-1.8-1.41-1.89-.96-1.91-.48-1.33-.07-1.32.13-2.83.9-2.96,1.77-3.03,2.6c-.23.22-.57.29-.87.16l-1.69-1.01-2.52-1.13-2.57-.37-1.51.15-1.46.41-1.51.69-1.45.91-3.01,2.64-3.57,4.14c-.22.28-.57.43-.92.39h-.03l-1.72-.4-1.74-.38-1.99.15c-.34.08-.7-.08-.88-.39l-1.09-1.57-1.23-1.2-1.35-.77-1.3-.26-1.2.18-4.43,1.71-4.85,2.48-5.26,3.24-5.57,3.93c-.96.72-1.46,1.49-1.49,2.32l-2.38.44-1.09-.94-1.07-.39-.92.05-.9.33-2.26,1.63c-.23.19-.56.2-.79.02l-1.55-1-1.87-.74-1.95-.36-2.09-.03-2.32.32-2.38.66-2.5,1-2.56,1.34-2.44,1.58-3.05,2.16c-.26.16-.59.08-.75-.17l-4.11-6.74c-.37-.61-1.04-.97-1.75-.96l-10.47.18c-.39,0-.77-.19-.99-.52l-1.22-1.15-2.19-1.17-1.76-.9c-18.82-11.72-37.71-22.2-56.51-31.36-.18-.08-.25-.29-.17-.47.02-.03.03-.06.06-.09l7.21-7.94c.09-.1.19-.19.3-.26l4.43-3.09,1.94-1.69,1.92-2.1,1.93-2.57,1.79-2.83,1.64-3.05,1.38-3.1,1.03-2.94.69-2.76c.06-.34.31-.61.64-.7l6.82-2.25,3.12-1.35,2.98-1.51,2.82-1.67,2.68-1.86,2.46-1.97,2.32-2.16,2.12-2.28,1.98-2.46,1.79-2.57,1.65-2.75c3.91-7.03,6.88-14.09,8.89-21.12.1-.37.48-.58.85-.48.03,0,.06.02.09.03,9.59,4.06,19.3,4.3,29.06.72,13.92-5.11,23.56-14.53,28.83-28.18l1.59-4.62,1.11-4.33.66-4.22.22-4.24-.29-4.84-.9-5,3.07.45c-.55,1-.52,1.77.07,2.3.14.13.32.21.52.24,12.47,1.69,23.93-1.6,34.28-9.85l3.58-3.03,3.33-3.19,3.07-3.35,2.8-3.5,2.5-3.6,2.23-3.74,1.96-3.88,1.67-4.01,1.46-4.42,1.13-4.57.77-4.6.43-4.73c.23-4.24.42-7.58.56-10.01.19-3.22,1.1-5.54,2.75-6.94,6.07-5.18,10.22-9.06,12.4-11.61,5.5-6.41,9.8-14.04,12.86-22.84,7.59-21.85,8.6-44.83,3.03-68.77-.17-.7-.63-1.13-1.38-1.28-.26-.05-.56.1-.91.43-.17-.22-.47-.33-.9-.34,8.1-10.05,12.3-21.24,12.57-33.48l-.17-5.56-.75-5.32-1.34-5.17-1.92-4.89-2.78-5.09-3.43-4.73-4.09-4.35-4.71-3.95-3.34-2.05-5.25-2.38-4.27-1.91c-.79-.39-1.29-1.18-1.3-2.06l-.36-4.91-.92-4.8-.91-3.09-1.13-2.97-1.4-2.99-1.61-2.9-1.88-2.92-2.21-3.01-5.26-6.15-2.13-2.13-2.25-1.97-2.46-1.88-2.57-1.71-5.53-2.99-6.06-2.4-6.48-1.78-6.84-1.11-6.98-.4-6.9.29c-14.95,1.39-30.47,4.64-46.43,9.72-.33.11-.54.5-.61,1.18-1.28-.07-2.41-.42-3.37-1.04.75-.86.81-1.54.16-2.04-.78-.61-2.47-1.36-5.06-2.26l-4.64-1.42-4.68-1.03-4.67-.65-4.67-.26-4.64.12-4.58.5-4.53.89-4.43,1.27-4.84,1.87-4.68,2.36-4.42,2.77-4.21,3.23c-9.73,8.2-16.05,19.19-18.89,32.88-.31,1.47-.31,2.69,0,3.66-.61.15-.88.35-.79.6-.7-.71-1.37-.94-2-.7-14.63,5.52-25.78,15.26-33.36,29.14l-3.42,6.92-2.78,7.1-2.08,7.06-1.37,6.99-.62,6.82.12,6.59.86,6.24,1.59,5.91c2.32,6.79,6.48,12.83,12.46,18.06.59.51,1.07.68,1.45.51.4-.19.75-.63,1.04-1.33.3.95,1.13,1.52,2.48,1.71-.35,6.8,2.03,12.13,7.11,15.95,8.13,6.11,17.52,8.27,28.11,6.47.22-.03.42-.15.55-.32.47-.62.29-1.37-.56-2.24.64-.69,1.5-.91,2.59-.67.31.07.62.33.93.76.24.34.57.61,1,.8-1.48-.41-2.28-.16-2.39.74l-.15,2.2.11,2.02.36,1.93.6,1.77.77,1.53.96,1.41,2.57,2.66,3.47,2.47,5.02,2.76c.24.13.33.42.21.66-.04.08-.1.14-.18.19l-8.04,5.07-2.94,2.12-2.79,2.27-2.73,2.49-2.48,2.55-2.26,2.63-1.95,2.6-1.73,2.71-1.39,2.61c-.53,1.12-.31,1.95.67,2.5-.43,1.05-.94,1.75-1.52,2.09l-5,.73-4.49.91-4.02,1.08-3.68,1.31-3.31,1.53-2.97,1.74-2.72,2.02-2.35,2.22-2.75,3.28-2.28,3.45-1.53,2.93-1.24,3.02-1,3.2-.73,3.28-.49,3.52-.21,3.57.04,3.77.29,3.79.56,3.98.84,4.17,1.07,4.17,1.35,4.31,1.57,4.33,1.83,4.39,2.07,4.45,2.28,4.4c.21.4.07.9-.33,1.11,0,0-.01,0-.02,0l-4.89,2.86-2.13,1.56-1.98,1.7-1.72,1.73-1.55,1.88-1.33,1.93-1.15,2.07-1.3,3.11-.91,3.39c-1.94,9.79-1.57,20.04,1.13,30.68.12.47.52.81,1,.87.84.1,1.38-.2,1.63-.91.72,1.55.62,2.91-.29,4.08-.84,1.09-1.25,2.05-1.22,2.86l-1.01-.85-1.04-.13-.57.29-.48.59-3.3,6.29-2.27,5.45-1.51,5.24-.77,5.2-.08,4.29.44,4.22.99,3.93,1.54,3.61,2.08,3.26,1.9,2.18,2.19,1.96,2.49,1.72,2.78,1.48,2.13,1.21,1.31,1.35.61,1.32.31,1.7.9,9.76c.02.16-.1.31-.27.33-.05,0-.1,0-.14-.02-2.7-1-7.84-3.25-15.37-6.74-2.18-1.01-3.47-.9-3.88.32-.29.56-1.26.46-2.92-.29.3-1.37.17-2.14-.4-2.3-18.21-5.07-36.13-5.54-53.62-1.4l-9.65,2.68-10.07,3.6-10.7,4.56-14.74,6.97-1.18.57-13.53,6.32-18.25,8.09-24.27,10.85c-30.04,13.94-59.95,29.39-89.5,46.23-26.79,15.27-49.99,28.41-69.42,39.33-4.76,2.67-10.32,5.54-16.63,8.59-.87.42-1.01,1.11-.43,2.07-.09.55-.52.96-1.29,1.22-5.49,1.86-11.04,4.37-16.6,7.49-5.88,3.04-10.85,6.89-14.87,11.55-.16.18-.43.2-.61.04-.01-.01-.03-.02-.04-.04-2.94-3.32-6.77-4.45-11.46-3.4l-3.55-.33-1.67-2.3-1.63-1.8-1.69-1.37-1.75-.98-2.01-.7c-4.29-1.05-8.48-.7-12.56,1.04-.35.15-.76.13-1.09-.05l-2.96-1.29-3.51-.96-3.91-.59-4.3-.24-4.67.13-4.77.5-4.69.84-4.33,1.16c-.34.11-.71-.02-.9-.33l-1.97-2.87-2.08-2.26-2.3-1.75-2.4-1.13-1.51-.43-1.61-.23-3.32.09c-4.33.57-8.04,2.45-11.1,5.62l-5.11-2.46c-3.13-3.86-7.13-6.05-11.97-6.56-.34-.04-.67-.16-.95-.35-.44-.3-1.11-.91-2-1.81l-.81-.66-1.42-.6-1.76-.17-2.11.28-2.48.75c-.43.16-.91.02-1.19-.35l-1.58-1.93-1.68-1.72-1.77-1.51-1.85-1.29-1.96-1.09-2.03-.86-2.08-.64-2.12-.39-2.1-.16-2.13.06-2.14.3-2.15.53-2.09.74-2.08.96-2.06,1.2-2.03,1.42c-.34.26-.82.24-1.14-.04l-2.46-2.02-2.71-1.85-2.78-1.56-2.92-1.31-2.79-.95-2.84-.64-2.7-.3-2.69.04c-1.03-.13-2.12-.05-3.25.24-.3.08-.63.05-.91-.09l-4.05-1.98c-.85-1.3-1.95-2.4-3.32-3.29-1.42-.93-2.35-1.77-2.78-2.52-.95-1.68-1.88-3.37-2.77-5.06l-1.32-2.15-1.41-1.64-1.58-1.23-1.66-.77-1.47-.31-1.51-.04-1.65.24-1.67.49-3.71,1.79-4.4,3.03c-.52.4-1.23.49-1.83.22-7.55-3.36-15.25-5.13-23.03-5.28l-1.19-.17-.88-.46-.73-.93-.42-1.31-1.07-5.97-1.02-5.53-.91-3.54-1.16-2.93-1.49-2.41-1.49-1.5-1.74-.83-1.11-.14-1.12.11-1.22.36-1.2.58-2.73,1.96-2.88,2.88-9.78,11.95c-1.17,1.43-2.43,2.47-3.77,3.12-.79.37-1.73.18-2.31-.47l-3.02-3.41-.67-.74-1.55-1.41-1.69-1.18-1.86-1.01-2.16-.9-4.85-1.33-7.01-1.09-2.91-.39c-1.29-.17-4.67-1.17-10.13-2.99l-5.28-1.58-4.68-.99-4.28-.45-4.07.08c-.71.06-1.15.31-1.34.74-.17.39-.22.93-.13,1.62l-9.91-4.91c-.77-1.73-1.91-3.07-3.42-4.02-1.17-.74-2.86-1.24-5.07-1.5-3.78-.44-7.29-1.01-10.51-1.71-.59-.13-1.2-.17-1.81-.13-1.84.12-4.13.09-6.85-.08l-2.2-.33-2.26-.71-2.44-1.13-3.16-1.8-5.23-2.81-2.13-.8-2.08-.51c-6.66-1.21-13.34-.79-20.01,1.27V0h1448Z"/>
    <path d="M1053.69,1267.42c-.49.87-1.17,1.23-2.02,1.08-.71-.13-1.18-.8-1.05-1.51.04-.21.13-.41.26-.58l2.31-3.07,2.12-3.17,1.84-3.17,1.63-3.26,1.36-3.22,1.14-3.31.88-3.29.66-3.38.51-4.78.03-4.93c-.54-12.97-5.88-23.66-16-31.98l-1.89-1.42-2.09-1.31-5.64-2.76-5.42-2.65c-1.24-.71-2.05-1.99-2.15-3.41l-.42-4.35-.6-3.72-.81-3.34-1.08-3.13-1.25-2.76-2-3.67-2.19-3.48-2.32-3.2-2.51-2.99-2.7-2.79-2.88-2.56-2.98-2.27-3.16-2.05-3.31-1.8-3.48-1.56-3.56-1.28-3.73-1.04c-9-2.16-17.92-2.61-26.7-1.36-14.06,2-27.35,4.85-39.79,8.51-1.48.44-2.39.14-2.71-.9.07-.68.28-1.07.61-1.18,15.96-5.08,31.48-8.33,46.43-9.72l6.9-.29,6.98.4,6.84,1.11,6.48,1.78,6.06,2.4,5.53,2.99,2.57,1.71,2.46,1.88,2.25,1.97,2.13,2.13,5.26,6.15,2.21,3.01,1.88,2.92,1.61,2.9,1.4,2.99,1.13,2.97.91,3.09.92,4.8.36,4.91c.01.88.51,1.67,1.3,2.06l4.27,1.91,5.25,2.38,3.34,2.05,4.71,3.95,4.09,4.35,3.43,4.73,2.78,5.09,1.92,4.89,1.34,5.17.75,5.32.17,5.56c-.27,12.24-4.47,23.43-12.57,33.48Z"/>
    <path d="M918.62,1146.52c-.53.35-1.07.4-1.6.16l-5.48-2.1-5.51-1.51-5.62-.95-5.58-.35-5.59.23-5.49.82-5.33,1.39-5.14,1.95-3.96,1.95-3.78,2.3-3.61,2.64-3.4,2.97-3.14,3.24-2.89,3.56-2.59,3.78-2.33,4.06c-2.29,4.39-4.04,10-5.25,16.79-.23,1.29-1.06,1.61-2.49.96-.31-.97-.31-2.19,0-3.66,2.84-13.69,9.16-24.68,18.89-32.88l4.21-3.23,4.42-2.77,4.68-2.36,4.84-1.87,4.43-1.27,4.53-.89,4.58-.5,4.64-.12,4.67.26,4.67.65,4.68,1.03,4.64,1.42c2.59.9,4.28,1.65,5.06,2.26.65.5.59,1.18-.16,2.04Z"/>
    <path class="cls-8" d="M1053.69,1267.42c.43,0,.73.12.9.34-.3.63-.39,1.19-.28,1.67,5.31,22.87,4.21,45.32-3.27,67.17-4.03,11.78-10.7,21.53-19.98,29.18l-.53.43-2.5,2.13-1.68,1.66-1.29,1.62-.94,1.65-.83,2.39-.39,2.64c-.06.87-.23,4.2-.51,9.98-.78,15.99-7.22,29.64-19.27,40.86l-3.04,2.7-2.96,2.34-3.02,2.09-2.93,1.74-2.92,1.45-3.01,1.2-3,.9-3.09.63-3.83.4-4-.04c-1.99-.12-3.94-.07-5.84.16l-3.07-.45c-.25-.79-.58-1.24-1.01-1.36-.7-.18-1.4.24-1.58.93-.06.22-.06.45,0,.67l.71,3.33.33,2.9.09,2.87-.16,2.99-.4,2.96-.64,3.06-.9,3.24-2.54,6.72c-4.64,10.67-12.57,18.51-23.73,23.45-9.6,4.25-19.41,4.37-29.34.36-2.38-.97-3.91-.38-4.58,1.74-2.48,7.85-5.49,14.94-9,21.22l-2.39,3.77-2.77,3.45-3.21,3.21-3.52,2.86-3.92,2.56-4.17,2.18-4.48,1.81-4.66,1.38c-.95.24-1.68.98-1.9,1.93-1.58,6.84-4.8,12.97-9.64,18.36l-.3.32-1.56,1.39-2.14,1.49-1.5,1.01c-1.02.72-1.95,1.56-2.77,2.5l-1.38,1.58-2.46,2.79-1.82,1.79-1.73,1.35-1.73.97-1.68.63c-5.45,1.6-11.01,1.69-16.66.27-2.1-.53-3.57-1.44-4.42-2.74.02-1.39-.45-2.71-1.42-3.94-.73-5.42-1.23-10.34-1.5-14.75l-.42-2.53-.94-2.04-.74-.91-1.01-.89-2.95-1.76-3.6-2.18-2-1.69-1.73-1.85-1.71-2.4-1.35-2.58-1.05-2.86-.69-2.98-.37-3.26v-3.32s.34-3.46.34-3.46l.67-3.42c1.08-4.38,3.43-9.77,7.03-16.14-.03-.81.38-1.77,1.22-2.86.91-1.17,1.01-2.53.29-4.08-1.94-7.86-2.54-16.17-1.77-24.85l.51-3.74.82-3.37,1.14-3.04,1.47-2.74,2.25-3,2.76-2.7,3.4-2.53,4.15-2.46.91-.66.58-.77.32-1.11-.09-1.4-.51-1.57-.91-1.8-2.93-5.63-2.54-5.96-2.07-6.09-1.56-6.09-1-5.92-.43-5.67.15-5.29.71-4.88,1.06-3.9,1.47-3.75,1.83-3.47,2.21-3.22,2.44-2.79,2.76-2.44,2.94-1.97,3.2-1.56c4.54-1.81,9.94-3.2,16.16-4.15.97-.15,1.58-.51,1.83-1.1.28-.65,0-1.29-.84-1.92.58-.34,1.09-1.04,1.52-2.09l.91-.43.5-.61c3.51-6.23,8.33-11.73,14.43-16.46,2.09-1.62,5.49-3.88,10.18-6.78,1.42-.87,2.35-1.82,2.79-2.83.55-1.25,0-2.74-1.27-3.46l-2.11-1.18-3.71-2.12-2.44-1.71-1.82-1.75-1.3-1.89-.91-2.32-.4-2.57c-.09-1.33-.27-2.59-.56-3.78-.43-.19-.76-.46-1-.8-.31-.43-.62-.69-.93-.76-1.09-.24-1.95-.02-2.59.67-1.77.1-3.58.19-5.41.27-2.21.09-4.02.04-5.4-.17l-3.78-.76-3.71-1.16-3.36-1.45-2.98-1.72-2.51-1.95-2-2.12-1.53-2.37-.97-2.47-.15-.58c-.38-1.67-.63-3.36-.76-5.06-.05-.69-.66-1.2-1.36-1.15-.09,0-.18.02-.27.05-.35.11-.69.37-1.02.78-1.35-.19-2.18-.76-2.48-1.71-4.42-4.76-7.12-7.92-8.09-9.44l-.25-.4-1.79-3.19-1.47-3.3-1.2-3.51-.9-3.6-.63-3.84-.32-3.9-.03-4.09.26-4.1.57-4.36.86-4.33,1.16-4.44,1.42-4.35,1.74-4.44,1.95-4.28,2.22-4.2,2.38-3.97c6.96-10.85,16.66-18.69,29.02-23.45.99-.38,1.4-1.09,1.21-2.12-.09-.25.18-.45.79-.6,1.43.65,2.26.33,2.49-.96,1.21-6.79,2.96-12.4,5.25-16.79l2.33-4.06,2.59-3.78,2.89-3.56,3.14-3.24,3.4-2.97,3.61-2.64,3.78-2.3,3.96-1.95,5.14-1.95,5.33-1.39,5.49-.82,5.59-.23,5.58.35,5.62.95,5.51,1.51,5.48,2.1c.53.24,1.07.19,1.6-.16.96.62,2.09.97,3.37,1.04.32,1.04,1.23,1.34,2.71.9,12.44-3.66,25.73-6.51,39.79-8.51,8.78-1.25,17.7-.8,26.7,1.36l3.73,1.04,3.56,1.28,3.48,1.56,3.31,1.8,3.16,2.05,2.98,2.27,2.88,2.56,2.7,2.79,2.51,2.99,2.32,3.2,2.19,3.48,2,3.67,1.25,2.76,1.08,3.13.81,3.34.6,3.72.42,4.35c.1,1.42.91,2.7,2.15,3.41l5.42,2.65,5.64,2.76,2.09,1.31,1.89,1.42c10.12,8.32,15.46,19.01,16,31.98l-.03,4.93-.51,4.78-.66,3.38-.88,3.29-1.14,3.31-1.36,3.22-1.63,3.26-1.84,3.17-2.12,3.17-2.31,3.07c-.45.56-.35,1.38.21,1.83.17.13.37.23.58.26.85.15,1.53-.21,2.02-1.08Z"/>
    <path d="M839.05,1189.01c.19,1.03-.22,1.74-1.21,2.12-12.36,4.76-22.06,12.6-29.02,23.45l-2.38,3.97-2.22,4.2-1.95,4.28-1.74,4.44-1.42,4.35-1.16,4.44-.86,4.33-.57,4.36-.26,4.1.03,4.09.32,3.9.63,3.84.9,3.6,1.2,3.51,1.47,3.3,1.79,3.19.25.4c.97,1.52,3.67,4.68,8.09,9.44-.29.7-.64,1.14-1.04,1.33-.38.17-.86,0-1.45-.51-5.98-5.23-10.14-11.27-12.46-18.06l-1.59-5.91-.86-6.24-.12-6.59.62-6.82,1.37-6.99,2.08-7.06,2.78-7.1,3.42-6.92c7.58-13.88,18.73-23.62,33.36-29.14.63-.24,1.3,0,2,.7Z"/>
    <path d="M965.48,1442.71c1.9-.23,3.85-.28,5.84-.16l4,.04,3.83-.4,3.09-.63,3-.9,3.01-1.2,2.92-1.45,2.93-1.74,3.02-2.09,2.96-2.34,3.04-2.7c12.05-11.22,18.49-24.87,19.27-40.86.28-5.78.45-9.11.51-9.98l.39-2.64.83-2.39.94-1.65,1.29-1.62,1.68-1.66,2.5-2.13.53-.43c9.28-7.65,15.95-17.4,19.98-29.18,7.48-21.85,8.58-44.3,3.27-67.17-.11-.48-.02-1.04.28-1.67.35-.33.65-.48.91-.43.75.15,1.21.58,1.38,1.28,5.57,23.94,4.56,46.92-3.03,68.77-3.06,8.8-7.36,16.43-12.86,22.84-2.18,2.55-6.33,6.43-12.4,11.61-1.65,1.4-2.56,3.72-2.75,6.94-.14,2.43-.33,5.77-.56,10.01l-.43,4.73-.77,4.6-1.13,4.57-1.46,4.42-1.67,4.01-1.96,3.88-2.23,3.74-2.5,3.6-2.8,3.5-3.07,3.35-3.33,3.19-3.58,3.03c-10.35,8.25-21.81,11.54-34.28,9.85-.2-.03-.38-.11-.52-.24-.59-.53-.62-1.3-.07-2.3Z"/>
    <path d="M848.63,1309.89c.85.87,1.03,1.62.56,2.24-.13.17-.33.29-.55.32-10.59,1.8-19.98-.36-28.11-6.47-5.08-3.82-7.46-9.15-7.11-15.95.33-.41.67-.67,1.02-.78.67-.2,1.38.17,1.58.83.03.09.04.18.05.27.13,1.7.38,3.39.76,5.06l.15.58.97,2.47,1.53,2.37,2,2.12,2.51,1.95,2.98,1.72,3.36,1.45,3.71,1.16,3.78.76c1.38.21,3.19.26,5.4.17,1.83-.08,3.64-.17,5.41-.27Z"/>
    <path d="M853.15,1310.78c.29,1.19.47,2.45.56,3.78l.4,2.57.91,2.32,1.3,1.89,1.82,1.75,2.44,1.71,3.71,2.12,2.11,1.18c1.27.72,1.82,2.21,1.27,3.46-.44,1.01-1.37,1.96-2.79,2.83-4.69,2.9-8.09,5.16-10.18,6.78-6.1,4.73-10.92,10.23-14.43,16.46l-.5.61-.91.43c-.98-.55-1.2-1.38-.67-2.5l1.39-2.61,1.73-2.71,1.95-2.6,2.26-2.63,2.48-2.55,2.73-2.49,2.79-2.27,2.94-2.12,8.04-5.07c.23-.14.3-.44.16-.67-.05-.07-.11-.13-.19-.18l-5.02-2.76-3.47-2.47-2.57-2.66-.96-1.41-.77-1.53-.6-1.77-.36-1.93-.11-2.02.15-2.2c.11-.9.91-1.15,2.39-.74Z"/>
    <path d="M837.34,1360.76c.84.63,1.12,1.27.84,1.92-.25.59-.86.95-1.83,1.1-6.22.95-11.62,2.34-16.16,4.15l-3.2,1.56-2.94,1.97-2.76,2.44-2.44,2.79-2.21,3.22-1.83,3.47-1.47,3.75-1.06,3.9-.71,4.88-.15,5.29.43,5.67,1,5.92,1.56,6.09,2.07,6.09,2.54,5.96,2.93,5.63.91,1.8.51,1.57.09,1.4-.32,1.11-.58.77-.91.66-4.15,2.46-3.4,2.53-2.76,2.7-2.25,3-1.47,2.74-1.14,3.04-.82,3.37-.51,3.74c-.77,8.68-.17,16.99,1.77,24.85-.25.71-.79,1.01-1.63.91-.48-.06-.88-.4-1-.87-2.7-10.64-3.07-20.89-1.13-30.68l.91-3.39,1.3-3.11,1.15-2.07,1.33-1.93,1.55-1.88,1.72-1.73,1.98-1.7,2.13-1.56,4.89-2.86c.4-.21.56-.7.36-1.1,0,0,0-.01,0-.02l-2.28-4.4-2.07-4.45-1.83-4.39-1.57-4.33-1.35-4.31-1.07-4.17-.84-4.17-.56-3.98-.29-3.79-.04-3.77.21-3.57.49-3.52.73-3.28,1-3.2,1.24-3.02,1.53-2.93,2.28-3.45,2.75-3.28,2.35-2.22,2.72-2.02,2.97-1.74,3.31-1.53,3.68-1.31,4.02-1.08,4.49-.91,5-.73Z"/>
    <path class="cls-10" d="M1448.62,1408.39l-13.56,1.15c4.72-2.6,9.25-2.98,13.56-1.15Z"/>
    <path d="M1448.62,1408.39l-.62.36v3.19c-11.6-1.31-21.02,2.39-28.18,11.08-2.32,2.82-6.22,7.63-11.65,14.42-2.11,2.64-4.59,5.01-7.42,7.09-.57.42-1.38.3-1.81-.28-.13-.18-.22-.4-.24-.63l-.07-.66,1.94-1.68,3.18-2.98c4.61-5.39,8.28-10.01,10.98-13.81,5.4-7.62,12.2-12.62,20.33-14.95l13.56-1.15Z"/>
    <path class="cls-10" d="M1448,1411.94v332.09c-12.93-.02-22.93.24-29.94.79-14.65,1.16-29.8,4.57-45.31,10.22-.47.17-.72.56-.77,1.18l-3.23,1.75c-8.51-2.36-17.17-4.35-25.91-5.94l-1.52-.48-1.17-.39-.88-.02h0c-.38.07-1.19,0-2.43-.2l-21.08-2.97-23.17-2.57-25.83-2.24-34.58-2.44,11.34-.3c.99.24,1.97.3,2.95.17.27-.04.47-.28.46-.56l-2.57-48.36c.69-10.52-.81-20.83-4.5-30.85-2.4-9.88-4.39-17.56-5.96-22.98-.13-.45-.5-.8-1.13-1.05l-.63-1.41c.47-1.16.54-2.47.23-3.91-1.67-7.58-3.4-15.18-5.17-22.76l-.35-1.51-1.61-7.9-1.71-10.07-1.25-7.5-.8-3.77-.94-2.94-1.02-1.9-.53-.58-.58-.34c-1.07-.38-2.25.01-2.82.94l-1.48,2.75-1.29,3.12-1.17,3.6-1.37,5.1c-3.24,12.62-6.61,25.16-10.08,37.54-.19.67.14,1.17.98,1.5-.28,1.87-.81,3.52-1.59,4.92-.99-.21-1.59.1-1.8.93-1.91,7.64-4.78,14.96-8.6,21.91-.06.1-.2.14-.3.08-.06-.04-.11-.11-.11-.18-.24-6.55-1.24-12.79-3-18.67l-1.23-3.7-2.05-5.36-2.48-6.6-1.43-4.64-.77-3.05-1.58-6.09-1.31-4.25-1.44-3.75-1.64-3.36-1.32-2.06-1.33-1.45-1.43-.96-1.43-.39-1.3.07-1.28.43-1.28.78-1.39,1.2-1.38,1.55-1.39,1.9-2.74,4.81c-5.32,10.85-8.97,22.94-10.92,36.2-.09.65.09,1.09.56,1.34l.09.42c-.53.17-.96.42-1.27.76l-3.12,3.56-2.79,3.71-2.52,3.96-2.25,4.18-2.05,4.55-1.83,4.88c-2.92,8.49-5.19,17.14-6.81,25.9-.04.21-.24.35-.45.31-.1-.02-.18-.07-.24-.15l-5.16-7.09c-.05-.07-.12-.13-.2-.17-.63-.31-1.25-.27-1.86.12-.47-.18-.77-.55-.9-1.1.48-.61.56-1.16.25-1.64-3.85-6.04-9.26-10.88-16.18-14.49-.19-.1-.42-.15-.64-.12-.71.07-1.14.4-1.29.99-.69.43-1.44.44-2.26.02.16-.97-.06-1.64-.67-2.01-.16-.1-.35-.15-.54-.14-5.96.3-10.73.79-14.28,1.46l-1.92.43-4.48,1.48-4.33,2.18-4.04,2.77-3.83,3.42-3.56,4-3.24,4.56-2.91,5.08-2.5,5.48-1.59,3.17-2.07,2.66-1.92,1.68-2.34,1.48-2.83,1.3-3.5,1.21c-.35.1-.73-.1-.83-.45-.02-.06-.03-.12-.03-.19-.02-1.99-.92-2.88-2.68-2.67-.45-.87-.64-1.82-.57-2.87,1.05-.53,1.38-1.22,1.01-2.07l-3.04-6.05-3.36-5.34-3.76-4.78-4.26-4.3-2.85-2.38-3.05-2.2-3.27-2.02-3.5-1.85-3.25-1.48-4.96-2.28-3.64-1.92-3.08-1.97-2.57-2.04c-.59-.53-1.28-.4-2.07.41-.55-.68-.9-1.31-1.05-1.9.21-.85.21-1.41,0-1.7-3.07-4.18-5.71-8.05-7.91-11.58-2.62-4.19-6.82-8.01-12.57-11.44-9.32-5.55-19.82-8-31.44-7.33-3.63.21-6.29.47-7.97.8-.33.07-.67-.08-.84-.37l-3.73-6.12c-.2-.33-.13-.76.16-1.01l2.47-1.87,2.84-1.77,2.74-1.37,2.61-.98,2.32-.52,2.03-.11,1.77.3,1.57.75.84.7.73.9c.56.83,1.69,1.04,2.51.48.12-.08.23-.18.33-.28l1.99-2.19c.26-.28.67-.34.99-.15.35.21.76.38,1.23.5.64.17,1.29-.19,1.46-.8.02-.06.03-.13.03-.2.04-.48-.05-.93-.28-1.34l2.38-.44c.29.73.71,1.06,1.26,1,.38-.05.72-.18,1.01-.41,5.87-4.57,12.29-8.35,19.23-11.3.92-.39,1.98-.15,2.62.61l.98,1.33,1.2,1.56,1.15.7.97.08,1.21-.35c.6-.26,1.29-.25,1.89.03l1.86.61,1.57-.02.92-.33.87-.58,1.84-2,2.39-2.8,2.35-2,2.27-1.13,1.11-.27,1.15-.07,1.76.31,1.83.87c1.02.64,1.8,1.08,2.33,1.31.93.41,2.02.24,2.78-.44l.64-.58,2.59-2.25,2.04-1.38,1.89-.78,1.8-.2,1.61.28,1.7.8c.85.52,1.81,1.22,2.89,2.1.6.49,1.2.48,1.81-.03.29-.25.47-.67.54-1.26.71-.05,1.55-.44,2.5-1.17.59.67,1.19.89,1.8.66.77-.27.97-.92.59-1.94,1.23-1.18,2.36-1.76,3.37-1.75.63.79,1.32,1.01,2.06.66.29-.14.49-.41.53-.72l.59-2.73.95-2.87,1.15-2.57,1.34-2.25,1.43-1.79,1.48-1.31,1.56-.89,1.71-.45,1.76.04c1.21.19,2.41-.46,2.9-1.59l.76-2.12.83-2.35.81-1.54c3.37-4.94,7.85-5.71,13.41-2.3.17.1.31.22.44.37l2.84,3.25c.73.84,1.99.93,2.83.21.04-.04.09-.08.12-.12,1.74-1.76,2.31-3.39,1.7-4.87,1.33-1.35,2.76-2.19,4.26-2.52-.17.93-.05,1.56.36,1.9.52.42,1.27.35,1.7-.16l2.32-2.41,2.73-2.27,2.8-1.87,2.82-1.43,2.65-.91,2.45-.39,2.35.11,2.05.63.22.1c.93.45,2.05.07,2.5-.86.1-.2.16-.42.18-.64.29-3.02.55-5.34.76-6.96l.77-3.95,1.25-3.86,1.66-3.56,2.07-3.21,2.32-2.62,2.47-1.96,2.74-1.39,2.77-.68h3.07l3.05.73,3.18,1.5,3.14,2.21c1.53,1.25,3.17,2.84,4.91,4.75l1.24,1.02,1.18.35,1.08-.19,1.19-.73,1.2-1.19,1.48-1.89,1.3-1.65.88-.76c.4-.21.82-.39,1.25-.54.84-.29,2-.36,3.47-.19.91.1,1.53-.03,1.87-.38.39-.41.45-1.05.19-1.92l2.82,1.24c.29.13.62.1.89-.07.64-.41,1.1-1.02,1.38-1.83.48.77.96,1.19,1.43,1.27.43.07.9-.3,1.41-1.11,2.62-4.18,6.23-7.55,10.78-10.07,4.06-2.25,7.95-2.38,11.66-.38.71.38,1.57.35,2.25-.09l3.48-2.21,1.91-.76,1.69-.03,2.21.53.87.25c.48.13.99.07,1.42-.19,1.05-.61,1.87-1.53,2.48-2.74l2.86-5.21,3.13-4.75,3.48-4.43,3.68-3.93,3.99-3.51,4.14-2.98,4.37-2.52,4.67-2.08,2.03-.72,3.59-.98,3.69-.61,3.64-.17,3.38.24,3.21.67,2.84,1.04,2.56,1.44,2.3,1.86,2.31,2.78,1.71,3.25,1.03,1.73.62.53.69.3.76.06.83-.19,1.83-1.14c.81-.69,1.82-1.53,3.01-2.51.32-.26.76-.33,1.15-.18l.46.19c.99.4,2.12-.08,2.53-1.07l.42-1.08,1.11-2.65,1.03-1.79,1.13-1.17,1.17-.47.7.02.76.24,1.49,1.07c.69.66,1.49,1.48,2.38,2.45.23.25.57.38.9.35.93-.07,1.39-.69,1.4-1.84,1.98.26,2.84-.04,2.58-.9.57.19,1.08.17,1.55-.06.04.54.41.73,1.12.58,1.41-.31,2.65-1.07,3.71-2.26.69,1.06,1.44,1.32,2.25.79.14-.09.26-.22.34-.37l1.56-2.3,1.85-1.92,1.73-1.13,1.62-.37c.34,0,.67.15.89.4l2.1,1.89.95.41.78.02.82-.36.79-.85c.65-.94,2.1-3.4,4.32-7.36l2.16-3.43,2.43-3.08,3.85-3.81,4.47-3.33,5.17-2.91,5.88-2.47c8-2.92,15.77-5.06,23.26-6.4l4.71-.62,4.03-.03,4.47.66,5.19,1.49c1.13.38,1.85-.14,2.16-1.54l1.85.64-2.73,1.82c-.41.27-.52.83-.24,1.23.04.06.09.12.14.17l.5.46c.48.44,1.2.49,1.74.13,1.02-.68,2.45-1.81,4.27-3.39l.24-.18.82-.31,1.16-.05.99-.03.61-.25c.31-.23.48-.58.51-1.06l6.32-.17.07.66c.08.71.72,1.23,1.43,1.15.23-.02.44-.11.62-.24,2.83-2.08,5.31-4.45,7.42-7.09,5.43-6.79,9.33-11.6,11.65-14.42,7.16-8.69,16.58-12.39,28.18-11.08Z"/>
    <path d="M1382.45,1443.95c-.31,1.4-1.03,1.92-2.16,1.54l-5.19-1.49-4.47-.66-4.03.03-4.71.62c-7.49,1.34-15.26,3.48-23.26,6.4l-5.88,2.47-5.17,2.91-4.47,3.33-3.85,3.81-2.43,3.08-2.16,3.43c-2.22,3.96-3.67,6.42-4.32,7.36l-.79.85-.82.36-.78-.02-.95-.41-2.1-1.89c-.22-.25-.55-.39-.89-.4l-1.62.37-1.73,1.13-1.85,1.92-1.56,2.3c-.08.15-.2.28-.34.37-.81.53-1.56.27-2.25-.79l.81-1.67,1.16-1.74,1.41-1.63,1.46-1.29,1.39-.92,1.46-.62,1.34-.24,1.33.12,1.46.65,1.37,1.28c.15.18.41.2.59.06.05-.04.08-.08.11-.14l3.27-6,3.35-5.01,3.56-4.2,3.93-3.59,4.44-3.09,4.95-2.55c9.7-4.28,20.15-7.37,31.27-9.24,5.64-.95,11.39-.37,17.22,1.72.98.36,1.61.85,1.9,1.48Z"/>
    <path d="M962.41,1442.26l.9,5,.29,4.84-.22,4.24-.66,4.22-1.11,4.33-1.59,4.62c-5.27,13.65-14.91,23.07-28.83,28.18-9.76,3.58-19.47,3.34-29.06-.72-.35-.15-.76,0-.91.36-.01.03-.02.06-.03.09-2.01,7.03-4.98,14.09-8.89,21.12l-1.65,2.75-1.79,2.57-1.98,2.46-2.12,2.28-2.32,2.16-2.46,1.97-2.68,1.86-2.82,1.67-2.98,1.51-3.12,1.35-6.82,2.25c-.33.09-.58.36-.64.7l-.69,2.76-1.03,2.94-1.38,3.1-1.64,3.05-1.79,2.83-1.93,2.57-1.92,2.1-1.94,1.69-4.43,3.09c-.11.07-.21.16-.3.26l-7.21,7.94c-.13.15-.12.37.02.5.03.02.06.04.09.06,18.8,9.16,37.69,19.64,56.51,31.36l1.76.9,2.19,1.17,1.22,1.15c.22.33.6.53.99.52l10.47-.18c.71-.01,1.38.35,1.75.96l4.11,6.74c.16.25.49.33.75.17.25-.16,1.27-.88,3.05-2.16l2.44-1.58,2.56-1.34,2.5-1,2.38-.66,2.32-.32,2.09.03,1.95.36,1.87.74,1.55,1c.23.18.56.17.79-.02l2.26-1.63.9-.33.92-.05,1.07.39,1.09.94c.23.41.32.86.28,1.34-.05.63-.62,1.09-1.28,1.04-.07,0-.14-.02-.21-.04-.47-.12-.88-.29-1.23-.5-.32-.19-.73-.13-.99.15l-1.99,2.19c-.67.74-1.82.8-2.56.13-.11-.1-.2-.21-.28-.33l-.73-.9-.84-.7-1.57-.75-1.77-.3-2.03.11-2.32.52-2.61.98-2.74,1.37-2.84,1.77-2.47,1.87c-.29.25-.36.68-.16,1.01l3.73,6.12c.17.29.51.44.84.37,1.68-.33,4.34-.59,7.97-.8,11.62-.67,22.12,1.78,31.44,7.33,5.75,3.43,9.95,7.25,12.57,11.44,2.2,3.53,4.84,7.4,7.91,11.58.21.29.21.85,0,1.7-1.12.8-2.23.42-3.34-1.14l-3.39-5.05-3.85-5.69-2.89-3.49-4.19-3.78-4.76-3.26-5.16-2.62-5.64-2.05-5.97-1.39-6.31-.75-6.42-.05-6.36.62c-.21.03-.36.23-.32.45,0,.05.03.1.05.14l63.25,103.66c.36.6.17,1.38-.42,1.75-.19.12-.41.18-.64.18l-5.99.1c-.37,0-.66.31-.67.68l-.15,10.09c0,.2.16.37.36.38,0,0,.01,0,.02,0l47.31-.81c.34,0,.66-.2.81-.51l1.54-3.44,1.25-3.84.9-4.05.57-4.35.22-4.57-.12-4.74-.46-4.66-.81-4.66c-.84-3.98-1.23-6.69-1.15-8.11,1.76-.21,2.66.68,2.68,2.67,0,.37.3.67.67.67.06,0,.13,0,.19-.03l3.5-1.21,2.83-1.3,2.34-1.48,1.92-1.68,2.07-2.66,1.59-3.17,2.5-5.48,2.91-5.08,3.24-4.56,3.56-4,3.83-3.42,4.04-2.77,4.33-2.18,4.48-1.48,1.92-.43c3.55-.67,8.32-1.16,14.28-1.46.19-.01.38.04.54.14.61.37.83,1.04.67,2.01-.41.47-.78.71-1.1.73-3.32.25-7.05.61-11.14,1.08l-4.73.9-4.48,1.56-3.25,1.68-3.16,2.13-2.91,2.48-2.8,2.95-2.64,3.35-2.52,3.8-2.48,4.36-2.44,4.93-1.21,2.35-1.28,2.03-1.38,1.74-1.5,1.5-2.11,1.6-2.38,1.33-2.85,1.2-3.53,1.16c-.35.1-.55.46-.47.81l.9,4.63.59,4.74.24,4.64-.1,4.64-.43,4.38-.77,4.31-1.09,4.04-1.44,3.9c-.04.1,0,.22.1.26.03.01.06.02.1.02,9.6-.6,34.26-2.31,73.79-5.11,20.92-1.48,42.35-2.45,64.12-2.91.31,0,.58-.22.65-.52.59-2.54.57-5.01-.06-7.39-2.55-9.69-7.86-17.84-15.88-24.41-.41-.34-.47-.95-.13-1.37.07-.08.15-.15.24-.21l.2-.13c.68-.42,1.55-.35,2.17.16l3.97,3.7,3.6,4.07,3.07,4.27,2.5,4.38,1.86,4.37,1.19,4.3.54,4.26-.15,4.08c-.03.24.14.46.38.49,0,0,.02,0,.02,0l.33.03c.23.02.44-.15.46-.38,0,0,0,0,0-.01,1.07-15.31,3.25-31.91,6.54-49.67,2.6-14.03,4.27-22.27,5.01-24.67.15-.48.22-.97.22-1.47,0-8.65-.85-16.37-2.54-23.11l-1.57-5.24-2.6-6.91-2.55-6.78-1.54-5.1-.6-2.44-2.01-7.67-1.83-5.25-.98-2.1-.98-1.65-1.02-1.29-1.11-.95c-.84-.55-1.94-.49-2.71.15-1.26,1.05-2.4,2.45-3.43,4.21l-2.13,3.91-2.01,4.19-1.82,4.33-1.69,4.61-1.57,4.93-1.46,5.24-2.72,11.97c-.11.53-.34.89-.71,1.08-.4.21-.84.27-1.32.18-.47-.25-.65-.69-.56-1.34,1.95-13.26,5.6-25.35,10.92-36.2l2.74-4.81,1.39-1.9,1.38-1.55,1.39-1.2,1.28-.78,1.28-.43,1.3-.07,1.43.39,1.43.96,1.33,1.45,1.32,2.06,1.64,3.36,1.44,3.75,1.31,4.25,1.58,6.09.77,3.05,1.43,4.64,2.48,6.6,2.05,5.36,1.23,3.7c1.76,5.88,2.76,12.12,3,18.67,0,.12.11.21.23.21.07,0,.14-.04.18-.11,3.82-6.95,6.69-14.27,8.6-21.91.21-.83.81-1.14,1.8-.93.89.11,1.25.64,1.06,1.59l-1.08,4.38-1.54,4.62-2.1,5.15-2.87,6.18c-2.8,5.81-4.92,12.37-6.33,19.64l-3.75,20.12-2.6,16.01-1.9,14.65-1.24,13.71c-.02.27.18.51.46.53.01,0,.02,0,.03,0,18.14.19,36.33,1.01,54.45,2.47l34.58,2.44,25.83,2.24,23.17,2.57,21.08,2.97c1.24.2,2.05.27,2.43.2h0l.88.02,1.17.39,1.52.48c8.74,1.59,17.4,3.58,25.91,5.94,3.31.58,6.18,1.58,8.6,2.98-.06,1.61-.83,2.2-2.31,1.76-11.51-3.41-23.06-6.15-34.57-8.19-.44-.08-.9.07-1.22.39l-81.17,82.35c-1.03.91-1.78,1.02-2.24.33-.47-.69-.38-1.62.2-2.22,26.82-27.76,53.38-54.92,79.49-81.26.12-.12.13-.31,0-.44-.05-.05-.11-.08-.18-.09-12.9-2.01-25.97-3.64-39.1-4.89-25.09-2.38-51.99-4.46-80.52-6.22-26.91-1.66-53.81-1.76-80.5-.3-16.14.86-43.04,2.64-80.49,5.34l-30.97,1.87-13.79.55-13.39.33-16.96.1c-.26,0-.46.2-.47.45-.18,13.33-.36,33.54-.54,60.48-.01,1.9-.85,2.93-2.5,3.08l-168.46,15.87c-3.82.36-7.61.38-11.34.07-34.52-2.91-84.18-7.01-148.44-12.26-1.09-.09-1.92-1.01-1.91-2.11l.34-23.66c0-.31-.25-.57-.57-.57-.02,0-.05,0-.07,0-3.1.39-11.16,2.2-24.1,5.4-41.74,10.31-76,19.25-102.51,26.76l-25.19,7.35-33.37,10.15-48.04,14.49c-23.57,6.87-47.52,14.04-71.65,21.46-32.96,10.14-63.88,21.89-92.51,35.18l-16.99,8.28-24.04,12.47-19.74,10.27c-18.88,9.65-37.81,17.74-56.63,24.23-1.31.45-2.64.92-3.98,1.38-15.5,5.38-33.1,10.91-52.67,16.55-.47.14-.8-.09-.98-.68,0-.59-.1-1.06-.31-1.43-.19-.34-.6-.55-1.21-.64-11.05-1.51-21.69-4.73-31.83-9.64-.16-.08-.29-.2-.38-.34-.41-.67-.31-1.39.32-2.16l1.12-.19c.3-.05.61-.01.89.09l9.94,3.77c9.83,3.74,20.23,5.5,31.14,5.28.77-.01,1.53-.13,2.26-.35,11.39-3.38,23.41-7.19,35.98-11.41l2.24-.89,1.75-1.04,1.26-1.08,1.22-1.39c3.67-4.61,6.63-10.03,8.85-16.21.35-.96,1.24-1.58,2.22-1.54,1.08.04,1.58.99,1.51,2.85-2.08,5.03-4.59,9.84-7.49,14.38-.09.15-.05.35.1.44.08.05.18.06.28.03,7.62-3.02,15.45-6.03,23.45-8.99,4.87-1.83,14.61-6.37,29.13-13.58l20.24-10.46,24.92-12.9,16.06-7.88c22.05-10.27,44.73-19.34,67.88-27.15l16-5.24,18.72-5.86,50.83-15.16,35.77-10.64,5.52-1.7,50.83-15.46,37.43-10.77c35.53-9.84,70.8-18.85,105.55-26.96l10.26-2.19c.2-.04.36-.18.43-.37.07-.19.09-.36.06-.5l.1-16.27,2.59.62c.32.08.55.37.54.7l-.48,33.94c0,.25.19.46.44.48l110.74,9.12c.22.02.42-.14.44-.36,0,0,0-.02,0-.02l2.04-62.48c.04-1.35,1.17-2.4,2.52-2.36,0,0,0,0,0,0l28.02.92c.72.02,1.29.62,1.27,1.35l-1.48,65.39c0,.15.11.27.26.29l6.75.55c.12.01.22-.07.23-.19,0,0,0-.01,0-.02l1.11-76.94c0-.31-.08-.6-.25-.85l-19.34-28.28c-.18-.27-.12-.63.14-.81.57-.41,1.21-.7,1.94-.86.42.09.7.24.85.46l17.68,25.89c.19.27.49.43.82.42l67.36-1.66c-.07,2.03-1.18,3.02-3.31,2.97-.68-.02-1.15-.03-1.4-.02l-60.69,1.68c-.39.01-.7.33-.71.73l-1.11,77.08c0,.28.21.51.49.51.02,0,.03,0,.05,0l77.02-7.07c.26-.03.5.16.53.43,0,0,0,0,0,.01l.18,2.12c.02.12,0,.23-.06.32-.04.06-.1.1-.18.11l-73.54,6.81c-3.42.33-7.28.32-11.57-.04-38.95-3.28-87.93-7.33-146.47-12.1-.27-.03-.52.17-.55.45,0,.02,0,.03,0,.05l-.06,3.67c0,.35.26.64.61.67,63.42,5.18,112.26,9.21,146.03,12.06,4.1.35,7.94.35,11.49.01l167.93-15.82c.14-.01.25-.13.25-.27l.13-3.94c0-.11-.08-.2-.19-.2,0,0-.01,0-.02,0l-91.8,8.45c.36-.75.58-1.62.65-2.63.02-.28.25-.51.53-.54l90.34-8.29c.21-.02.38-.19.38-.4l.95-66.13c0-.44-.34-.79-.78-.8-.01,0-.02,0-.03,0-32.15.91-65.77,1.85-100.6,2.8-2.07.06-3.05-.8-2.94-2.56.03-.25.17-.38.44-.39l109.95-3.05c.13,0,.23-.11.22-.24,0-.04-.01-.08-.03-.11l-73.1-119.8c-.15-.25-.41-.4-.7-.39-23.77.37-44.01.73-60.58,1.06-1.34.03-2.67.18-3.96.45-.17.04-.3.19-.3.37l-.89,27.01c-.04,1.18-.99,2.12-2.17,2.14l-16.32.28c-.47,0-.91-.2-1.2-.57-3.78-4.72-7.31-9.07-10.57-13-.17-.21-.2-.47-.07-.78,1.5-.99,2.61-1.05,3.3-.18l8.97,11.15c.19.23.48.37.78.37l13.67-.24c.39,0,.71-.32.73-.71l1.75-53.78c.01-.28-.2-.52-.48-.53,0,0,0,0-.01,0l-37.08-.53c-.43,0-.78.33-.8.76l-.86,26.53c-.01.27.08.54.25.75l9.91,12.29c.21.26.27.61.18.93-.18.62-.65,1.15-1.4,1.59-.49-.05-.9-.28-1.23-.71-3.26-4.17-6.64-8.34-10.12-12.45-.21-.24-.51-.38-.83-.38l-79.82,1.38c-.19,0-.34.15-.34.34,0,.07.02.13.06.19l63.03,92.31c-.45,1.1-1.01,1.57-1.68,1.41-.84-.19-1.5-.65-1.99-1.36l-58.78-86.03c-.08-.13-.25-.16-.37-.08-.04.02-.07.05-.09.09l-69.8,107.6c-.2.3-.3.65-.31,1.02l-.23,37.27c0,.11-.03.22-.08.32-.47.84-1.32.94-2.53.3l-.19-32.21c0-.27-.22-.48-.48-.48-.05,0-.11,0-.16.03l-1.99.49-1.76.06-1.64-.36-1.34-.74-1-.98-.72-1.21-.44-1.37-.13-1.5.16-1.55.48-1.55.75-1.43,1.03-1.34c.21-.23.21-.59,0-.83l-2.05-1.84-1.66-1.93-.73-1.36-.51-1.47-.54-3.61c-.27-4.92-.58-9.69-.93-14.26l-.66-4.45-.52-3.67c-.02-.54.4-1,.94-1.02.1,0,.21,0,.31.04l.2.06c.84.24,1.48.94,1.63,1.8.48,2.75,1.19,10.11,2.11,22.03.25,3.12,1.62,5.49,4.1,7.08.22.14.52.08.67-.14l45.86-67.39c.11-.17.09-.39-.05-.53-1.55-1.54-3.31-2.93-5.25-4.14l-.65-.76-.08-.56.15-.6c.6-.63,1.23-.77,1.88-.42,1.96,1.06,3.79,2.41,5.48,4.05.14.14.37.13.51-.01.01-.01.02-.02.03-.04l24.6-36.11c1.01-1.47,2.59-2.23,4.75-2.26,21.58-.31,43.48-.66,65.52-1.04,8.54-.15,13.54-.26,14.96-.35.29-.01.53-.25.54-.55.29-7.1.59-14.99.92-23.63l.02-.91.16-2.03.54-1.11.89-.52,1.46-.18c19.52.07,32.49.15,38.82.24,1.68.02,2.49.9,2.44,2.64-.47,14.71-.74,23.03-.81,24.83,0,.3.24.55.54.56,0,0,.01,0,.02,0l48.48-.84c.1,0,.18-.09.17-.19,0-.06-.03-.11-.08-.14-19.1-11.82-38.39-22.66-57.74-32.43-.25-.13-.45-.35-.55-.62l-.12-.3c-.13-.34-.52-.51-.85-.37-.02,0-.04.02-.06.02l-3.68,1.42-4.49,1-4.56.42-4.37-.18-3.76-.72-3.19-1.25-2.52-1.73-1.82-2.14-.89-1.82c-.2-.55-.19-.99.03-1.3.44-.63,1.32-.78,1.96-.33.18.13.33.3.44.5.39.74.96,1.49,1.69,2.26.85,1.3,2.32,2.21,4.42,2.74,5.65,1.42,11.21,1.33,16.66-.27l1.68-.63,1.73-.97,1.73-1.35,1.82-1.79,2.46-2.79,1.38-1.58c.82-.94,1.75-1.78,2.77-2.5l1.5-1.01,2.14-1.49,1.56-1.39.3-.32c4.84-5.39,8.06-11.52,9.64-18.36.22-.95.95-1.69,1.9-1.93l4.66-1.38,4.48-1.81,4.17-2.18,3.92-2.56,3.52-2.86,3.21-3.21,2.77-3.45,2.39-3.77c3.51-6.28,6.52-13.37,9-21.22.67-2.12,2.2-2.71,4.58-1.74,9.93,4.01,19.74,3.89,29.34-.36,11.16-4.94,19.09-12.78,23.73-23.45l2.54-6.72.9-3.24.64-3.06.4-2.96.16-2.99-.09-2.87-.33-2.9-.71-3.33c-.19-.69.22-1.41.91-1.6.22-.06.45-.06.67,0,.43.12.76.57,1.01,1.36Z"/>
    <path d="M1392.31,1443.13c-.03.48-.2.83-.51,1.06l-.61.25-.99.03-1.16.05-.82.31-.24.18c-1.82,1.58-3.25,2.71-4.27,3.39-.54.36-1.26.31-1.74-.13l-.5-.46c-.37-.33-.39-.89-.07-1.26.05-.05.1-.1.17-.14l2.73-1.82,1.77-1.51,2.11-1.12,1.81-.39.73.09.65.28.53.48.41.71Z"/>
    <path d="M1285.71,1483.21c0,1.15-.47,1.77-1.4,1.84-.33.03-.67-.1-.9-.35-.89-.97-1.69-1.79-2.38-2.45l-1.49-1.07-.76-.24-.7-.02-1.17.47-1.13,1.17-1.03,1.79-1.11,2.65-.42,1.08c-.41.99-1.54,1.47-2.53,1.07l-.46-.19c-.39-.15-.83-.08-1.15.18-1.19.98-2.2,1.82-3.01,2.51l-1.83,1.14-.83.19-.76-.06-.69-.3-.62-.53-1.03-1.73-1.71-3.25-2.31-2.78-2.3-1.86-2.56-1.44-2.84-1.04-3.21-.67-3.38-.24-3.64.17-3.69.61-3.59.98-2.03.72-4.67,2.08-4.37,2.52-4.14,2.98-3.99,3.51-3.68,3.93-3.48,4.43-3.13,4.75-2.86,5.21c-.61,1.21-1.43,2.13-2.48,2.74-.43.26-.94.32-1.42.19l-.87-.25-2.21-.53-1.69.03-1.91.76-3.48,2.21c-.68.44-1.54.47-2.25.09-3.71-2-7.6-1.87-11.66.38-4.55,2.52-8.16,5.89-10.78,10.07-.51.81-.98,1.18-1.41,1.11-.47-.08-.95-.5-1.43-1.27,3.19-6.15,8.15-10.66,14.84-13.48,3.85-1.63,7.55-1.56,11.07.2.29.15.64.1.89-.11l2.75-1.86,1.35-.57,1.42-.36,2.48-.1,2.71.57c.38.12.8-.05.98-.4l3.85-6.73,3.95-5.78,4.16-4.99,4.55-4.42,3.01-2.46,3.27-2.31,4.4-2.58,4.53-2.07,4.69-1.56,4.61-.97,4.47-.37,4.23.22,4.09.83,3.76,1.41c4.67,2.2,7.96,5.8,9.83,10.76.11.3.44.44.74.33.06-.02.11-.05.16-.09l1.23-1.06,2.64-2.04,1.18-.51,1.07-.17.52.02c.32.03.6-.2.64-.52.05-.43.51-1.5,1.38-3.21l.88-1.45.99-1.12,1.14-.84,1.22-.5,1.15-.18,1.17.07,1.25.32,1.23.57,1.18.79,1.09.98,1.82,2.45Z"/>
    <path d="M1289.84,1482.25c-.47.23-.98.25-1.55.06-.35-.27-.51-.59-.5-.98.02-.67.58-1.19,1.25-1.17.21,0,.41.07.58.17.75.45.83,1.09.22,1.92Z"/>
    <path d="M795.41,1499.24c-3.6,6.37-5.95,11.76-7.03,16.14l-.67,3.42-.35,3.46v3.32s.38,3.26.38,3.26l.69,2.98,1.05,2.86,1.35,2.58,1.71,2.4,1.73,1.85,2,1.69,3.6,2.18,2.95,1.76,1.01.89.74.91.94,2.04.42,2.53c.27,4.41.77,9.33,1.5,14.75-7.59-3.11-14.99-6.29-22.15-9.52-.64-.29-.94-.81-.89-1.54.41-1.22,1.7-1.33,3.88-.32,7.53,3.49,12.67,5.74,15.37,6.74.15.06.33-.01.39-.17.02-.05.03-.09.02-.14l-.9-9.76-.31-1.7-.61-1.32-1.31-1.35-2.13-1.21-2.78-1.48-2.49-1.72-2.19-1.96-1.9-2.18-2.08-3.26-1.54-3.61-.99-3.93-.44-4.22.08-4.29.77-5.2,1.51-5.24,2.27-5.45,3.3-6.29.48-.59.57-.29,1.04.13,1.01.85Z"/>
    <path d="M1152.05,1527.16c.26.87.2,1.51-.19,1.92-.34.35-.96.48-1.87.38-1.47-.17-2.63-.1-3.47.19-.43.15-.85.33-1.25.54l-.88.76-1.3,1.65-1.48,1.89-1.2,1.19-1.19.73-1.08.19-1.18-.35-1.24-1.02c-1.74-1.91-3.38-3.5-4.91-4.75l-3.14-2.21-3.18-1.5-3.05-.73h-3.07l-2.77.68-2.74,1.39-2.47,1.96-2.32,2.62-2.07,3.21-1.66,3.56-1.25,3.86-.77,3.95c-.21,1.62-.47,3.94-.76,6.96-.1,1.03-1.01,1.78-2.04,1.68-.22-.02-.44-.08-.64-.18l-.22-.1-2.05-.63-2.35-.11-2.45.39-2.65.91-2.82,1.43-2.8,1.87-2.73,2.27-2.32,2.41c-.43.51-1.18.58-1.7.16-.41-.34-.53-.97-.36-1.9l2.46-2.6,2.77-2.37,2.91-2.01,2.94-1.58,2.89-1.12,2.74-.62,2.71-.14,2.46.36c.25.07.51-.09.58-.34,0-.03.01-.06.01-.09l.53-5.12.99-4.74,1.43-4.29,1.87-3.88,1.41-2.23,1.56-2.01,1.7-1.77,1.83-1.51,1.9-1.22,1.99-.96,2.08-.67,2.14-.38,3.1-.02,3.17.61,3.1,1.21,3.11,1.86c3.06,2.16,5.39,4.36,6.97,6.58.16.22.47.27.7.11.04-.03.08-.07.11-.11l2.24-2.87,1.97-1.97,1.94-1.3,1.99-.7,1.24-.15,1.33.05,2.75.72Z"/>
    <path d="M781.47,1556.91c-4.07-.61-8.13-1.25-12.16-1.92-5.26-.87-9.32-1.37-12.17-1.51l-.83-.04-7.27-.03-7.38.48-7.3.97-7.42,1.49-7.4,1.99-7.51,2.5-7.63,3.03-7.73,3.56c-13.24,6.5-25.85,12.37-37.74,17.57-17.81,7.79-30.5,13.47-37.99,17l-13.79,6.63-13.91,6.92-14.22,7.32-14.87,7.88-31.55,17.36-43.77,24.91-7.36,4.21c-9.44,5.4-19.43,10.7-29.92,15.85-.96.47-1.78.46-2.47-.01-.58-.96-.44-1.65.43-2.07,6.31-3.05,11.87-5.92,16.63-8.59,19.43-10.92,42.63-24.06,69.42-39.33,29.55-16.84,59.46-32.29,89.5-46.23l24.27-10.85,18.25-8.09,13.53-6.32,1.18-.57,14.74-6.97,10.7-4.56,10.07-3.6,9.65-2.68c17.49-4.14,35.41-3.67,53.62,1.4.57.16.7.93.4,2.3Z"/>
    <path class="cls-9" d="M781.47,1556.91c1.66.75,2.63.85,2.92.29-.05.73.25,1.25.89,1.54,7.16,3.23,14.56,6.41,22.15,9.52.97,1.23,1.44,2.55,1.42,3.94-.73-.77-1.3-1.52-1.69-2.26-.37-.69-1.22-.96-1.91-.6-.2.1-.37.25-.49.43-.22.31-.23.75-.03,1.3l.89,1.82,1.82,2.14,2.52,1.73,3.19,1.25,3.76.72,4.37.18,4.56-.42,4.49-1,3.68-1.42c.33-.16.72-.03.89.3,0,.02.02.04.02.06l.12.3c.1.27.3.49.55.62,19.35,9.77,38.64,20.61,57.74,32.43.08.05.11.17.05.25-.03.05-.08.08-.14.08l-48.48.84c-.3,0-.55-.24-.56-.54,0,0,0-.01,0-.02.07-1.8.34-10.12.81-24.83.05-1.74-.76-2.62-2.44-2.64-6.33-.09-19.3-.17-38.82-.24l-1.46.18-.89.52-.54,1.11-.16,2.03-.02.91c-.33,8.64-.63,16.53-.92,23.63-.01.3-.25.54-.54.55-1.42.09-6.42.2-14.96.35-22.04.38-43.94.73-65.52,1.04-2.16.03-3.74.79-4.75,2.26l-24.6,36.11c-.12.16-.34.2-.5.08-.01,0-.03-.02-.04-.03-1.69-1.64-3.52-2.99-5.48-4.05-.65-.35-1.28-.21-1.88.42h-.7s-.48-.84-.48-.84l-.72-.36-.72.13-.64.57-.46-.08c-.11-1.02-.61-1.54-1.52-1.57-2.25-.06-5.59.47-10,1.61-5.04,1.29-9.15,4.12-12.3,8.46l-5.48,7.34-4.25,4.96-4.23,4-4.49,3.28-2.46,1.43c-.31.17-.69.07-.88-.23-.52-.83-1.06-1.69-1.62-2.57l-1.45-1.74-2.02-1.44-2.58-1.09-3-.68c-3.67-.55-6.39,1.02-8.14,4.68-2.49,5.18-4.2,8.38-5.13,9.58-2.27,2.89-5.53,7.23-9.75,12.99-7.08,9.67-10.43,20.81-10.03,33.35.06,1.9.46,3.06,1.2,3.47l-.52,7.83c-.73-.28-1.33-.34-1.82-.19-.32.1-.55.38-.58.71-.2,2.23-.45,4.44-.76,6.62-.13.97.46,1.34,1.78,1.12.41.14.44.8.07,1.97l-7.47,10.58c-.13.19-.38.23-.56.11-.02-.02-.05-.04-.07-.06l-3.29-3.3-2.99-2.42-2.91-1.72-2.99-1.09-2.62-.46-2.87-.05c-1.98-.91-4.25-.97-6.79-.16-1.13.36-1.99.1-2.57-.78.31-2.6-.06-4.98-1.09-7.12l-1.14-1.73-1.5-1.08-.9-.27-.95-.07-2.18.43-2.5,1.16-3.14,2.01-.26.18c-.3.21-.7.2-.99-.03-4.27-3.35-8.97-4.45-14.06-3.28-.8.18-1.64-.12-2.14-.78-8.51-11.26-19.93-17.21-34.16-17.8-2.94.33-5.89.18-8.83-.45l-.71-2.5-.6-1.08-.73-.89-1.72-1.24-2.25-.75-2.79-.24-3.23.29c-.89.14-1.77-.35-2.11-1.18-1.31-3.13-2.9-6.03-4.75-8.69l-2.31-2.73-2.8-2.24-2-1.1-2.11-.84-2.3-.59-2.38-.31-2.48-.04-2.52.23-2.53.5-2.52.75c-2.4.85-4,1.35-4.81,1.52,5.56-3.12,11.11-5.63,16.6-7.49.77-.26,1.2-.67,1.29-1.22.69.47,1.51.48,2.47.01,10.49-5.15,20.48-10.45,29.92-15.85l7.36-4.21,43.77-24.91,31.55-17.36,14.87-7.88,14.22-7.32,13.91-6.92,13.79-6.63c7.49-3.53,20.18-9.21,37.99-17,11.89-5.2,24.5-11.07,37.74-17.57l7.73-3.56,7.63-3.03,7.51-2.5,7.4-1.99,7.42-1.49,7.3-.97,7.38-.48,7.27.03.83.04c2.85.14,6.91.64,12.17,1.51,4.03.67,8.09,1.31,12.16,1.92Z"/>
    <path d="M1072.17,1564.95c.61,1.48.04,3.11-1.7,4.87-.78.79-2.05.81-2.84.04-.04-.04-.08-.08-.12-.12l-2.84-3.25c-.13-.15-.27-.27-.44-.37-5.56-3.41-10.04-2.64-13.41,2.3l-.81,1.54-.83,2.35-.76,2.12c-.49,1.13-1.69,1.78-2.9,1.59l-1.76-.04-1.71.45-1.56.89-1.48,1.31-1.43,1.79-1.34,2.25-1.15,2.57-.95,2.87-.59,2.73c-.04.31-.24.58-.53.72-.74.35-1.43.13-2.06-.66l.51-3.1.88-3.09,1.23-2.97,1.48-2.61,1.68-2.17,1.81-1.68,2.05-1.26,2.09-.73,2.68-.24c.33.01.63-.21.71-.54l1.03-3.18,1.4-2.72,1.73-2.16,2.03-1.62.54-.32,2.69-1.06,1.73-.28,1.73-.02,1.81.27,1.76.53,1.69.78,1.59,1.02,1.45,1.23,1.3,1.43c.14.17.39.2.56.07.03-.03.06-.06.09-.1.89-1.39,1.87-1.87,2.96-1.42Z"/>
    <path d="M1232.14,1635.38c-.78-.09-1.44-.34-1.99-.77-.21-.16-.35-.38-.41-.64-1.66-7.92-3.44-15.88-5.33-23.83l-2.14-10.19-2.17-13.22-.22-1.41c-.46-2.99-1.13-6.03-2-9.1-.05-.17-.23-.28-.4-.23-.09.03-.17.09-.21.18-1.76,4.02-3.26,8.48-4.51,13.36-3.22,12.66-6.5,24.69-9.81,36-.1.34-.32.62-.62.8-.37.23-.75.37-1.15.42-.84-.33-1.17-.83-.98-1.5,3.47-12.38,6.84-24.92,10.08-37.54l1.37-5.1,1.17-3.6,1.29-3.12,1.48-2.75c.57-.93,1.75-1.32,2.82-.94l.57.34.53.56,1.01,1.88.95,2.95.81,3.8,1.25,7.5,1.71,10.07,1.61,7.9.35,1.51c1.77,7.58,3.5,15.18,5.17,22.76.31,1.44.24,2.75-.23,3.91Z"/>
    <path class="cls-3" d="M1232.14,1635.38l.63,1.41c-1.12.22-1.59.77-1.39,1.65,3.09,13.5,5.33,25.2,6.71,35,1.65,11.75,2.85,20.96,3.6,27.57,1.39,12.28,2,25.45,1.83,39.41l-11.34.3c-18.12-1.46-36.31-2.28-54.45-2.47-.28,0-.5-.23-.49-.5,0-.01,0-.02,0-.03l1.24-13.71,1.9-14.65,2.6-16.01,3.75-20.12c1.41-7.27,3.53-13.83,6.33-19.64l2.87-6.18,2.1-5.15,1.54-4.62,1.08-4.38c.19-.95-.17-1.48-1.06-1.59.78-1.4,1.31-3.05,1.59-4.92.4-.05.78-.19,1.15-.42.3-.18.52-.46.62-.8,3.31-11.31,6.59-23.34,9.81-36,1.25-4.88,2.75-9.34,4.51-13.36.07-.16.26-.24.42-.16.09.04.16.12.19.21.87,3.07,1.54,6.11,2,9.1l.22,1.41,2.17,13.22,2.14,10.19c1.89,7.95,3.67,15.91,5.33,23.83.06.26.2.48.41.64.55.43,1.21.68,1.99.77Z"/>
    <path class="cls-1" d="M812.78,1629.85c-.95-.19-1.31-.73-1.09-1.6.75-.44,1.22-.97,1.4-1.59.09-.32.03-.67-.18-.93l-9.91-12.29c-.17-.21-.26-.48-.25-.75l.86-26.53c.02-.43.37-.77.8-.76l37.08.53c.28,0,.5.24.49.52,0,0,0,0,0,.01l-1.75,53.78c-.02.39-.34.7-.73.71l-13.67.24c-.3,0-.59-.14-.78-.37-3.85-4.77-6.84-8.5-8.97-11.15-.69-.87-1.8-.81-3.3.18Z"/>
    <path d="M1022.7,1595.09c-.07.59-.25,1.01-.54,1.26-.61.51-1.21.52-1.81.03-1.08-.88-2.04-1.58-2.89-2.1l-1.7-.8-1.61-.28-1.8.2-1.89.78-2.04,1.38-2.59,2.25-.64.58c-.76.68-1.85.85-2.78.44-.53-.23-1.31-.67-2.33-1.31l-1.83-.87-1.76-.31-1.15.07-1.11.27-2.27,1.13-2.35,2-2.39,2.8-1.84,2-.87.58-.92.33-1.57.02-1.86-.61c-.6-.28-1.29-.29-1.89-.03l-1.21.35-.97-.08-1.15-.7-1.2-1.56-.98-1.33c-.64-.76-1.7-1-2.62-.61-6.94,2.95-13.36,6.73-19.23,11.3-.29.23-.63.36-1.01.41-.55.06-.97-.27-1.26-1,.03-.83.53-1.6,1.49-2.32l5.57-3.93,5.26-3.24,4.85-2.48,4.43-1.71,1.2-.18,1.3.26,1.35.77,1.23,1.2,1.09,1.57c.18.31.54.47.88.39l1.99-.15,1.74.38,1.72.4h.03c.35.04.7-.11.92-.39l3.57-4.14,3.01-2.64,1.45-.91,1.51-.69,1.46-.41,1.51-.15,2.57.37,2.52,1.13,1.69,1.01c.3.13.64.06.87-.16l3.03-2.6,2.96-1.77,2.83-.9,1.32-.13,1.33.07,1.91.48,1.89.96,1.8,1.41,1.78,1.91Z"/>
    <path d="M1027.59,1592.64c.38,1.02.18,1.67-.59,1.94-.61.23-1.21,0-1.8-.66,0-.39.05-.76.16-1.13.13-.44.35-.72.68-.84.52-.2,1.04.03,1.55.69Z"/>
    <path class="cls-3" d="M1093.74,1666.96c.82.42,1.57.41,2.26-.02-.01.39.07.76.26,1.11.13.25.34.46.59.6,5.44,3,10.42,7.47,14.89,13.38.53.7,1.23.76,2.12.17.13.55.43.92.9,1.1-.26.62-.25,1.18.03,1.69l1.52,2.55,1.64,2.36,1.64,2.01,1.66,1.69,1.69,1.36,1.62.99,1.63.65,1.69.33c6.04.5,11.52,1.68,16.39,3.54.81.31,1.45.13,1.92-.54.45-.64.29-1.52-.36-1.97-.08-.06-.17-.11-.26-.15l-1.41-.57-3.37-1.11-3.66-.86-4.14-.68-5.6-.64c-1.7-.17-2.43-.91-2.18-2.21,2.13-11.28,5.22-21.98,9.25-32.02,2.45-6.11,6.18-11.92,11.16-17.39.7-.77,1.09-1.46,1.17-2.08.12-.93-.38-1.42-1.48-1.47l-.09-.42c.48.09.92.03,1.32-.18.37-.19.6-.55.71-1.08l2.72-11.97,1.46-5.24,1.57-4.93,1.69-4.61,1.82-4.33,2.01-4.19,2.13-3.91c1.03-1.76,2.17-3.16,3.43-4.21.77-.64,1.87-.7,2.71-.15l1.11.95,1.02,1.29.98,1.65.98,2.1,1.83,5.25,2.01,7.67.6,2.44,1.54,5.1,2.55,6.78,2.6,6.91,1.57,5.24c1.69,6.74,2.54,14.46,2.54,23.11,0,.5-.07.99-.22,1.47-.74,2.4-2.41,10.64-5.01,24.67-3.29,17.76-5.47,34.36-6.54,49.67-.02.23-.22.41-.45.39,0,0,0,0-.01,0l-.33-.03c-.24-.01-.42-.22-.4-.46,0,0,0-.02,0-.03l.15-4.08-.54-4.26-1.19-4.3-1.86-4.37-2.5-4.38-3.07-4.27-3.6-4.07-3.97-3.7c-.62-.51-1.49-.58-2.17-.16l-.2.13c-.46.29-.6.89-.32,1.34.06.09.13.17.21.24,8.02,6.57,13.33,14.72,15.88,24.41.63,2.38.65,4.85.06,7.39-.07.3-.34.52-.65.52-21.77.46-43.2,1.43-64.12,2.91-39.53,2.8-64.19,4.51-73.79,5.11-.11,0-.21-.07-.22-.18,0-.03,0-.07.02-.1l1.44-3.9,1.09-4.04.77-4.31.43-4.38.1-4.64-.24-4.64-.59-4.74-.9-4.63c-.08-.35.12-.71.47-.81l3.53-1.16,2.85-1.2,2.38-1.33,2.11-1.6,1.5-1.5,1.38-1.74,1.28-2.03,1.21-2.35,2.44-4.93,2.48-4.36,2.52-3.8,2.64-3.35,2.8-2.95,2.91-2.48,3.16-2.13,3.25-1.68,4.48-1.56,4.73-.9c4.09-.47,7.82-.83,11.14-1.08.32-.02.69-.26,1.1-.73Z"/>
    <path class="cls-6" d="M872.06,1736.87c-.39-.19-.91-.23-1.55-.12l-67.36,1.66c-.33,0-.63-.15-.82-.42l-17.68-25.89c-.15-.22-.43-.37-.85-.46,0-.68-.46-1.58-1.36-2.71l-63.03-92.31c-.1-.16-.06-.37.09-.47.06-.04.12-.06.19-.06l79.82-1.38c.32,0,.62.14.83.38,3.48,4.11,6.86,8.28,10.12,12.45.33.43.74.66,1.23.71-.22.87.14,1.41,1.09,1.6-.13.31-.1.57.07.78,3.26,3.93,6.79,8.28,10.57,13,.29.37.73.58,1.2.57l16.32-.28c1.18-.02,2.13-.96,2.17-2.14l.89-27.01c0-.18.13-.33.3-.37,1.29-.27,2.62-.42,3.96-.45,16.57-.33,36.81-.69,60.58-1.06.28,0,.55.14.7.39l73.1,119.8c.07.11.03.25-.08.32-.03.02-.07.03-.11.03l-109.95,3.05c-.27,0-.41.14-.44.39Z"/>
    <path d="M67.17,1631.24c.34,1.15.34,1.96,0,2.42-.41.55-1.2.67-1.75.25-.13-.1-.24-.22-.32-.35l-.57-.96-1.48-2.23-.67-.64-.8-.47-.88-.23c-4.16-.57-8.27-1.23-12.28-1.98-.6-.12-1.23-.17-1.85-.15l-4.62.03-3.19-.21-2.84-.51-2.58-.84-1.17-.53-3.5-2.09-3.2-1.95-2.38-1.13-2.39-.77-2.44-.54-2.57-.34-2.8-.14-5.96.32-6.92,1.14v-2.36c6.67-2.06,13.35-2.48,20.01-1.27l2.08.51,2.13.8,5.23,2.81,3.16,1.8,2.44,1.13,2.26.71,2.2.33c2.72.17,5.01.2,6.85.08.61-.04,1.22,0,1.81.13,3.22.7,6.73,1.27,10.51,1.71,2.21.26,3.9.76,5.07,1.5,1.51.95,2.65,2.29,3.42,4.02Z"/>
    <path class="cls-5" d="M67.17,1631.24l9.91,4.91c6.08,0,11.03.65,14.81,1.95,2.62.91,5.59,1.89,8.9,2.95l5.07,1.33,6.89,1.2,5.27.87c2.66.49,5.34,1.75,8,3.78l2.21,2.37,2.36,2.59,1,.79.87.43c2.24.79,4.31.26,6.18-1.58,2.86-2.81,5.99-6.5,9.39-11.06l2.9-3.52,2.79-2.65,2.4-1.5,1.05-.34,1-.05c.4.04.76.23,1.01.54,1.39,1.7,2.4,3.91,3.02,6.59.51,2.25,1.37,6.63,2.57,13.12l.75,2.36.58.94.69.72,1.05.67,1.39.47,1.62.23,2.3.08,3.86.26c5.73,1.03,11.1,2.62,16.08,4.78.24.11.51.17.78.18,1.67.06,2.78-.1,3.31-.48l1-.73,3.67-2.55,2.84-1.46,2.43-.6h1.09s1.06.24,1.06.24l1.02.47.97.73.86.93.8,1.21c2.01,3.49,3.32,5.84,3.93,7.02.38.73,1.75,1.82,4.1,3.25.07.04.12.09.17.14l1.47,1.68c.05.06.11.11.18.15,1.48.88,2.24.3,2.27-1.72l4.05,1.98c.28.14.61.17.91.09,1.13-.29,2.22-.37,3.25-.24-.86.91-1.05,1.68-.57,2.31.15.2.39.31.64.3l2.54.04,2.51.33,2.58.64,2.52.91,2.63,1.25,2.53,1.48,2.55,1.79,2.39,1.98c1.01.9,2.49,1.04,3.66.35,2.12-1.27,3.51-2.09,4.17-2.45l3.14-1.44,3.11-.86,3.05-.3,2.98.26,2.71.76,2.6,1.24,2.46,1.73,2.31,2.21,2.67,2.94c.75.78,1.86,1.1,2.91.84l4.47-1.1c.78-.19,1.6.09,2.09.71,1.38,1.73,3.11,2.74,5.16,3.03l1.87.37,1.69.56,2.83,1.53,2.71,2.27c.6.58,1.55.57,2.12-.02.04-.04.07-.08.11-.12.17-.23.32-.59.43-1.06l5.11,2.46c.02.59.11,1.01.27,1.25.37.58,1.14.74,1.71.38.06-.04.11-.08.16-.13l1.75-1.4,1.93-1.19,1.97-.9,2.05-.63,1.94-.31h1.95s1.81.27,1.81.27l1.75.6,1.7.96,1.59,1.35c1.33,1.35,2.53,3,3.62,4.93.57,1.03,1.78,1.51,2.91,1.17l4.65-1.23,4.73-.91,4.55-.53,4.36-.15,4.01.22,3.68.59,3.42.97,3.01,1.31c.64.34,1.4.38,2.07.1l3.31-1.09,3.17-.5,3.09.08,2.84.68,2.34,1.08c.35.2.66.47.92.78l4.41,5.47c.46.57,1.29.66,1.86.2.27-.22.45-.53.48-.88.09-.86-.33-1.74-1.28-2.64l3.55.33c-1.01.03-1.62.54-1.81,1.52-.11.56.26,1.11.82,1.22.12.02.25.02.37,0l2.47-.34,2-.02,1.69.3,1.41.6,1.14.82,1.05,1.17c.28.39.68.66,1.14.78l2.01.52c.36.1.75-.03.99-.33,5.25-6.6,12.09-11.1,20.47-13.47l3.65-.79,3.33-.22,3.12.34,2.81.88,2.95,1.72,2.59,2.4,2.3,3.11,2.09,3.94c1.01,2.23,1.87,3.64,2.56,4.21l1.53.89,1.72.32,2.27-.18,2.1-.17,2.05.29,1.37.77.66.82.44,1,.54,3.14c.08.75.75,1.29,1.5,1.21.52-.06.95-.4,1.13-.89.19-.53.24-1.39.17-2.58,2.94.63,5.89.78,8.83.45-.72,1.19-.83,2.03-.33,2.51.09.08.2.13.32.14l1.95.09,3.26.28c11.33,2.37,20.28,7.98,26.78,16.77.87,1.17,2.28,1.81,3.73,1.67l.37-.03,3.46-.26,2.49.06,2.01.39,1.6.73,3.62,2.25c1.11.59,2.46.53,3.51-.16,2.27-1.5,3.95-2.5,5.03-3.02,1.17-.56,2.47-.39,3.13.42l.79,1.68.5,2.9.23,1.53c.14.71.55,1.07,1.22,1.1.41.01.86-.21,1.34-.67.58.88,1.44,1.14,2.57.78,2.54-.81,4.81-.75,6.79.16-1.19.17-2.13.55-2.82,1.14-.45.39-.5,1.07-.11,1.52.25.28.63.42,1,.36l3.47-.3,3.18.43,2.11.75,2.16,1.21,2.27,1.7,2.64,2.4c.84.81,1.57,1.69,2.18,2.64.18.28.2.64.06.94l-1.76,4.17-1.51,4.51-1.3,4.89-1.03,5.08-.76,5.22-.46,5.24-.16,5.17.15,5c.02.32.27.57.59.59.83.06,1.57-.09,2.21-.46l34.69-9.03c11.42-2.89,23.91-5.61,37.38-8.13.03.14.01.31-.06.5-.07.19-.23.33-.43.37l-10.26,2.19c-34.75,8.11-70.02,17.12-105.55,26.96l-37.43,10.77-50.83,15.46-5.52,1.7-35.77,10.64-50.83,15.16-18.72,5.86-16,5.24c-23.15,7.81-45.83,16.88-67.88,27.15l-16.06,7.88-24.92,12.9-20.24,10.46c-14.52,7.21-24.26,11.75-29.13,13.58-8,2.96-15.83,5.97-23.45,8.99-.17.06-.35-.03-.41-.19-.03-.09-.02-.19.03-.28,2.9-4.54,5.41-9.35,7.49-14.38l4.48-9.52c.08-.16.14-.33.17-.5l.7-2.38.98-2.04,1.05-1.29,1.11-.54c1.07.67,1.89.36,2.46-.92l4.47-10.63,1.67-4.64,1.4-4.45,1.15-4.35.88-4.22.65-4.27.39-4.17.14-6.7-.46-6.83c-1.65-14.92-9.58-24.98-23.75-30.12-1.26-.7-1.49-1.29-.68-1.77.65-.79,1.24-1.97,1.77-3.53,5.45-16.06,5.86-32.07,1.23-47.91l-1.71-4.78-2.23-4.52-2.69-4.08-3.13-3.68-3.42-3.1-3.8-2.58-4.08-1.98-4.18-1.31-2.62-.48-2.71-.25h-2.69s-2.76.23-2.76.23c-2.96.38-5.54.72-7.7,1.02-.39.06-.79,0-1.15-.19l-4.25-1.92-4.06-1.23-3.75-.6-4.13-.15c-5.33.09-11.56.74-18.63,1.94l-4.64,1.03-4.78,1.53-5.01,2.05-5.07,2.51c-1.25.67-1.46,1.63-.65,2.89l-.63.77c-.69-1.12-1.55-1.38-2.58-.79-18.57,10.72-28.01,27.1-28.25,49.01-.02,1.62.9,2.44,2.74,2.45-.73,2.04-.92,4.2-.58,6.48-1.58-.11-2.37.6-2.34,2.1.08,5.12.33,9.27.76,12.41.35,2.38.88,4.58,1.59,6.57.11.31.03.53-.23.64l-1.12-.35-.92.29-.43.56-.15.8c.22,11.1,2.83,21.61,7.81,31.46,2.24,4.42,4.81,8.12,7.69,11.06l-.5,5.18c-1.52-.47-2.46-.01-2.79,1.38-3.51,14.79-2.67,28.96,2.51,42.41,1.09-.13,1.72.23,1.89,1.07.32,1.62.32,2.94.01,3.96l-.8.33-.47.55-.1.94.51.92c.86.87,1.93,1.66,3.2,2.36l12.44,7.19c.16.09.28.26.31.45.03.13.05.25.08.34-.63.77-.73,1.49-.32,2.16.09.14.22.26.38.34,10.14,4.91,20.78,8.13,31.83,9.64.61.09,1.02.3,1.21.64.21.37.31.84.31,1.43-1.94-.25-3.53.16-4.77,1.24-.3-1.16-.87-1.63-1.7-1.4-22.25,6.05-44.58,12.06-66.81,17.98v-383.48l6.92-1.14,5.96-.32,2.8.14,2.57.34,2.44.54,2.39.77,2.38,1.13,3.2,1.95,3.5,2.09,1.17.53,2.58.84,2.84.51,3.19.21,4.62-.03c.62-.02,1.25.03,1.85.15,4.01.75,8.12,1.41,12.28,1.98l.88.23.8.47.67.64,1.48,2.23.57.96c.36.59,1.13.78,1.72.42.14-.08.26-.19.35-.32.35-.46.35-1.27,0-2.42Z"/>
    <path class="cls-7" d="M782.44,1708.93c.9,1.13,1.36,2.03,1.36,2.71-.73.16-1.37.45-1.94.86-.26.18-.32.54-.14.81l19.34,28.28c.17.25.26.54.25.85l-1.11,76.94c0,.12-.09.21-.21.21,0,0-.01,0-.02,0l-6.75-.55c-.15-.02-.26-.14-.26-.29l1.48-65.39c.02-.73-.55-1.33-1.27-1.35l-28.02-.92c-1.35-.04-2.48,1.01-2.52,2.36,0,0,0,0,0,0l-2.04,62.48c0,.22-.2.39-.42.38,0,0-.02,0-.02,0l-110.74-9.12c-.25-.02-.45-.23-.44-.48l.48-33.94c0-.33-.22-.62-.54-.7l-2.59-.62c-.07-1.26.01-1.92.26-1.98,1.21.64,2.06.54,2.53-.3.05-.1.08-.21.08-.32l.23-37.27c0-.37.11-.72.31-1.02l69.8-107.6c.08-.13.24-.17.37-.1.04.02.07.05.09.09l58.78,86.03c.49.71,1.15,1.17,1.99,1.36.67.16,1.23-.31,1.68-1.41Z"/>
    <path class="cls-3" d="M982.38,1658.82c.15.59.5,1.22,1.05,1.9l.15.97c.05.32.2.63.43.86l2.58,2.18,3.19,2.11,3.81,2.07,5.13,2.39,1.37.61c10.73,4.88,18.75,12.24,24,22.03,1.53,2.86,2.63,4.87,3.27,6l.79.83.93.22c-.07,1.05.12,2,.57,2.87-.08,1.42.31,4.13,1.15,8.11l.81,4.66.46,4.66.12,4.74-.22,4.57-.57,4.35-.9,4.05-1.25,3.84-1.54,3.44c-.15.31-.47.5-.81.51l-47.31.81c-.2,0-.37-.16-.38-.36,0,0,0-.01,0-.02l.15-10.09c0-.37.3-.67.67-.68l5.99-.1c.7-.01,1.26-.59,1.24-1.29,0-.22-.07-.44-.18-.64l-63.25-103.66c-.11-.18-.06-.42.13-.54.04-.03.09-.05.14-.05l6.36-.62,6.42.05,6.31.75,5.97,1.39,5.64,2.05,5.16,2.62,4.76,3.26,4.19,3.78,2.89,3.49,3.85,5.69,3.39,5.05c1.11,1.56,2.22,1.94,3.34,1.14Z"/>
    <path d="M225.04,1672.93c-.03,2.02-.79,2.6-2.27,1.72-.07-.04-.13-.09-.18-.15l-1.47-1.68c-.05-.05-.1-.1-.17-.14-2.35-1.43-3.72-2.52-4.1-3.25-.61-1.18-1.92-3.53-3.93-7.02l-.8-1.21-.86-.93-.97-.73-1.02-.47-1.06-.23h-1.09s-2.43.59-2.43.59l-2.84,1.46-3.67,2.55-1,.73c-.53.38-1.64.54-3.31.48-.27-.01-.54-.07-.78-.18-4.98-2.16-10.35-3.75-16.08-4.78l-3.86-.26-2.3-.08-1.62-.23-1.39-.47-1.05-.67-.69-.72-.58-.94-.75-2.36c-1.2-6.49-2.06-10.87-2.57-13.12-.62-2.68-1.63-4.89-3.02-6.59-.25-.31-.61-.5-1.01-.54l-.99.05-1.03.32-2.37,1.47-2.81,2.66-2.94,3.56c-3.4,4.56-6.53,8.25-9.39,11.06-1.87,1.84-3.94,2.37-6.18,1.58l-.87-.43-1-.79-2.36-2.59-2.21-2.37c-2.66-2.03-5.34-3.29-8-3.78l-5.27-.87-6.89-1.2-5.07-1.33c-3.31-1.06-6.28-2.04-8.9-2.95-3.78-1.3-8.73-1.96-14.81-1.95-.09-.69-.04-1.23.13-1.62.19-.43.63-.68,1.34-.74l4.07-.08,4.28.45,4.68.99,5.28,1.58c5.46,1.82,8.84,2.82,10.13,2.99l2.91.39,7.01,1.09,4.85,1.33,2.16.9,1.86,1.01,1.69,1.18,1.55,1.41.67.74,3.02,3.41c.58.65,1.52.84,2.31.47,1.34-.65,2.6-1.69,3.77-3.12l9.78-11.95,2.88-2.88,2.73-1.96,1.2-.58,1.22-.36,1.12-.11,1.11.14,1.74.83,1.49,1.5,1.49,2.41,1.16,2.93.91,3.54,1.02,5.53,1.07,5.97.42,1.31.73.93.88.46,1.19.17c7.78.15,15.48,1.92,23.03,5.28.6.27,1.31.18,1.83-.22l4.4-3.03,3.71-1.79,1.67-.49,1.65-.24,1.51.04,1.47.31,1.66.77,1.58,1.23,1.41,1.64,1.32,2.15c.89,1.69,1.82,3.38,2.77,5.06.43.75,1.36,1.59,2.78,2.52,1.37.89,2.47,1.99,3.32,3.29Z"/>
    <path d="M1232.77,1636.79c.63.25,1,.6,1.13,1.05,1.57,5.42,3.56,13.1,5.96,22.98l4.5,30.85,2.57,48.36c.01.28-.19.52-.46.56-.98.13-1.96.07-2.95-.17.17-13.96-.44-27.13-1.83-39.41-.75-6.61-1.95-15.82-3.6-27.57-1.38-9.8-3.62-21.5-6.71-35-.2-.88.27-1.43,1.39-1.65Z"/>
    <path d="M1145.31,1638.78c1.1.05,1.6.54,1.48,1.47-.08.62-.47,1.31-1.17,2.08-4.98,5.47-8.71,11.28-11.16,17.39-4.03,10.04-7.12,20.74-9.25,32.02-.25,1.3.48,2.04,2.18,2.21l5.6.64,4.14.68,3.66.86,3.37,1.11,1.41.57c.73.31,1.07,1.14.76,1.86-.04.09-.09.18-.14.26-.47.67-1.11.85-1.92.54-4.87-1.86-10.35-3.04-16.39-3.54l-1.69-.33-1.63-.65-1.62-.99-1.69-1.36-1.66-1.69-1.64-2.01-1.64-2.36-1.52-2.55c-.28-.51-.29-1.07-.03-1.69.61-.39,1.23-.43,1.86-.12.08.04.15.1.2.17l5.16,7.09c.12.17.36.21.53.09.08-.06.14-.15.16-.25,1.62-8.76,3.89-17.41,6.81-25.9l1.83-4.88,2.05-4.55,2.25-4.18,2.52-3.96,2.79-3.71,3.12-3.56c.31-.34.74-.59,1.27-.76Z"/>
    <path d="M677.77,1647.2c-.15.38-.35.71-.59.98-.21.24-.51.39-.84.4-3.07.13-6.21.67-9.39,1.62l-3.4,1.24-2.67,1.52-2.39,2.04-2.26,2.69-5.73,7.51-4.55,5.16-4.55,4.15-2.33,1.75-2.5,1.62-3.16,1.71c-.31.15-.51.47-.52.82l-.07,4.64c0,.55-.46,1-1.02.99h-.31c-.76-.01-1.37-.64-1.36-1.41h0s.07-5.18.07-5.18c0-.22-.03-.45-.11-.66-1.17-3.08-3.29-5.15-6.37-6.21l-1.91-.53-1.68-.18-1.46.21-1.09.57-.58.59-.47.8c-2.14,4.8-4.29,8.66-6.43,11.57l-9.13,12.34c-7.2,9.8-10.46,21.1-9.75,33.82.02.32-.14.63-.41.8-.33.22-.72.37-1.17.46-.74-.41-1.14-1.57-1.2-3.47-.4-12.54,2.95-23.68,10.03-33.35,4.22-5.76,7.48-10.1,9.75-12.99.93-1.2,2.64-4.4,5.13-9.58,1.75-3.66,4.47-5.23,8.14-4.68l3,.68,2.58,1.09,2.02,1.44,1.45,1.74c.56.88,1.1,1.74,1.62,2.57.19.3.57.4.88.23l2.46-1.43,4.49-3.28,4.23-4,4.25-4.96,5.48-7.34c3.15-4.34,7.26-7.17,12.3-8.46,4.41-1.14,7.75-1.67,10-1.61.91.03,1.41.55,1.52,1.57Z"/>
    <path d="M680.79,1647.79l-.35.83-.62.41-.54.03-.49-.19-.51-.69-.05-.9.64-.57.72-.13.72.36.48.85Z"/>
    <path class="cls-3" d="M678.23,1647.28l.05.9.51.69.49.19.54-.03.62-.41.35-.83h.7s-.15.59-.15.59l.08.56.65.76c1.94,1.21,3.7,2.6,5.25,4.14.14.14.16.36.05.53l-45.86,67.39c-.15.22-.45.28-.67.14-2.48-1.59-3.85-3.96-4.1-7.08-.92-11.92-1.63-19.28-2.11-22.03-.15-.86-.79-1.56-1.63-1.8l-.2-.06c-.52-.15-1.06.15-1.21.67-.03.1-.04.2-.04.31l.52,3.67.66,4.45c.35,4.57.66,9.34.93,14.26l.54,3.61.51,1.47.73,1.36,1.66,1.93,2.05,1.84c.21.24.21.6,0,.83l-1.03,1.34-.75,1.43-.48,1.55-.16,1.55.13,1.5.44,1.37.72,1.21,1,.98,1.34.74,1.64.36,1.76-.06,1.99-.49c.25-.09.52.04.61.29.02.05.03.1.03.16l.19,32.21c-.25.06-.33.72-.26,1.98l-.1,16.27c-13.47,2.52-25.96,5.24-37.38,8.13-3.62.88-15.22,3.9-34.69,9.03-.4-11.13,1.1-21.93,4.48-32.31l.87-2.4,2.33-4.81,3.7-5.82,2.78-4.24c1.2-1.94,1.03-3.34-.5-4.21.37-1.17.34-1.83-.07-1.97.69-.67,1.09-1.63,1.22-2.87.25-2.26.3-4.06.16-5.39l.52-7.83c.45-.09.84-.24,1.17-.46.27-.17.43-.48.41-.8-.71-12.72,2.55-24.02,9.75-33.82l9.13-12.34c2.14-2.91,4.29-6.77,6.43-11.57l.47-.8.58-.59,1.09-.57,1.46-.21,1.68.18,1.91.53c3.08,1.06,5.2,3.13,6.37,6.21.08.21.12.44.11.66l-.07,5.18c-.01.77.6,1.4,1.36,1.41h.31c.56,0,1.01-.44,1.02-.99h0s.07-4.64.07-4.64c0-.35.21-.67.52-.82l3.16-1.71,2.5-1.62,2.33-1.75,4.55-4.15,4.55-5.16,5.73-7.51,2.26-2.69,2.39-2.04,2.67-1.52,3.4-1.24c3.18-.95,6.32-1.49,9.39-1.62.33-.01.63-.16.84-.4.24-.27.44-.6.59-.98l.46.08Z"/>
    <path d="M1029.08,1700.99l-.93-.22-.79-.83c-.64-1.13-1.74-3.14-3.27-6-5.25-9.79-13.27-17.15-24-22.03l-1.37-.61-5.13-2.39-3.81-2.07-3.19-2.11-2.58-2.18c-.23-.23-.38-.54-.43-.86l-.15-.97c.79-.81,1.48-.94,2.07-.41l2.57,2.04,3.08,1.97,3.64,1.92,4.96,2.28,3.25,1.48,3.5,1.85,3.27,2.02,3.05,2.2,2.85,2.38,4.26,4.3,3.76,4.78,3.36,5.34,3.04,6.05c.37.85.04,1.54-1.01,2.07Z"/>
    <path class="cls-3" d="M1244.36,1691.67l-4.5-30.85c3.69,10.02,5.19,20.33,4.5,30.85Z"/>
    <path d="M1113.86,1682.2c-.89.59-1.59.53-2.12-.17-4.47-5.91-9.45-10.38-14.89-13.38-.25-.14-.46-.35-.59-.6-.19-.35-.27-.72-.26-1.11.15-.59.58-.92,1.29-.99.22-.03.45.02.64.12,6.92,3.61,12.33,8.45,16.18,14.49.31.48.23,1.03-.25,1.64Z"/>
    <path d="M312.82,1697.24c-.11.47-.26.83-.43,1.06-.5.65-1.45.76-2.11.25-.04-.03-.09-.07-.12-.11l-2.71-2.27-2.83-1.53-1.69-.56-1.87-.37c-2.05-.29-3.78-1.3-5.16-3.03-.49-.62-1.31-.9-2.09-.71l-4.47,1.1c-1.05.26-2.16-.06-2.91-.84l-2.67-2.94-2.31-2.21-2.46-1.73-2.6-1.24-2.71-.76-2.98-.26-3.05.3-3.11.86-3.14,1.44c-.66.36-2.05,1.18-4.17,2.45-1.17.69-2.65.55-3.66-.35l-2.39-1.98-2.55-1.79-2.53-1.48-2.63-1.25-2.52-.91-2.58-.64-2.51-.33-2.54-.04c-.25.01-.49-.1-.64-.3-.48-.63-.29-1.4.57-2.31l2.69-.04,2.7.3,2.84.64,2.79.95,2.92,1.31,2.78,1.56,2.71,1.85,2.46,2.02c.32.29.8.3,1.14.04l2.03-1.42,2.06-1.2,2.08-.96,2.09-.74,2.15-.53,2.14-.3,2.13-.06,2.1.16,2.12.39,2.08.64,2.03.86,1.96,1.09,1.85,1.29,1.77,1.51,1.68,1.72,1.58,1.93c.28.37.76.51,1.19.35l2.48-.75,2.11-.28,1.76.17,1.42.6.81.66c.89.9,1.56,1.51,2,1.81.28.19.61.31.95.35,4.84.51,8.84,2.7,11.97,6.56Z"/>
    <path d="M400.66,1709.6c.95.9,1.37,1.78,1.28,2.64-.08.72-.73,1.25-1.46,1.16-.35-.04-.66-.21-.88-.48l-4.41-5.47c-.26-.31-.57-.57-.92-.78l-2.34-1.08-2.84-.68-3.09-.08-3.17.5-3.31,1.09c-.67.28-1.43.24-2.07-.1l-3.01-1.31-3.42-.97-3.68-.59-4.01-.22-4.36.15-4.55.53-4.73.91-4.65,1.23c-1.13.34-2.34-.14-2.91-1.17-1.09-1.93-2.29-3.58-3.62-4.93l-1.59-1.35-1.7-.96-1.75-.6-1.81-.28h-1.95s-1.94.32-1.94.32l-2.05.63-1.97.9-1.93,1.19-1.75,1.4c-.5.46-1.28.42-1.74-.09-.05-.05-.09-.11-.13-.16-.16-.24-.25-.66-.27-1.25,3.06-3.17,6.77-5.05,11.1-5.62l3.32-.09,1.61.23,1.51.43,2.4,1.13,2.3,1.75,2.08,2.26,1.97,2.87c.19.31.56.44.9.33l4.33-1.16,4.69-.84,4.77-.5,4.67-.13,4.3.24,3.91.59,3.51.96,2.96,1.29c.33.18.74.2,1.09.05,4.08-1.74,8.27-2.09,12.56-1.04l2.01.7,1.75.98,1.69,1.37,1.63,1.8,1.67,2.3Z"/>
    <path d="M478.84,1722.91c.07,1.19.02,2.05-.17,2.58-.26.71-1.04,1.07-1.74.81-.49-.18-.83-.62-.89-1.13l-.54-3.14-.44-1-.66-.82-1.37-.77-2.05-.29-2.1.17-2.27.18-1.72-.32-1.53-.89c-.69-.57-1.55-1.98-2.56-4.21l-2.09-3.94-2.3-3.11-2.59-2.4-2.95-1.72-2.81-.88-3.12-.34-3.33.22-3.65.79c-8.38,2.37-15.22,6.87-20.47,13.47-.24.3-.63.43-.99.33l-2.01-.52c-.46-.12-.86-.39-1.14-.78l-1.05-1.17-1.14-.82-1.41-.6-1.69-.3-2,.02-2.47.34c-.56.1-1.09-.28-1.19-.84-.02-.12-.02-.25,0-.38.19-.98.8-1.49,1.81-1.52,4.69-1.05,8.52.08,11.46,3.4.16.18.44.2.61.04.01-.01.02-.02.04-.04,4.02-4.66,8.99-8.51,14.87-11.55.81-.17,2.41-.67,4.81-1.52l2.52-.75,2.53-.5,2.52-.23,2.48.04,2.38.31,2.3.59,2.11.84,2,1.1,2.8,2.24,2.31,2.73c1.85,2.66,3.44,5.56,4.75,8.69.34.83,1.22,1.32,2.11,1.18l3.23-.29,2.79.24,2.25.75,1.72,1.24.73.89.6,1.08.71,2.5Z"/>
    <path d="M552.68,1751.74c-.48.46-.93.68-1.34.67-.67-.03-1.08-.39-1.22-1.1l-.23-1.53-.5-2.9-.79-1.68c-.66-.81-1.96-.98-3.13-.42-1.08.52-2.76,1.52-5.03,3.02-1.05.69-2.4.75-3.51.16-.33-.2-1.54-.95-3.62-2.25l-1.6-.73-2.01-.39-2.49-.06-3.46.26-.37.03c-1.45.14-2.86-.5-3.73-1.67-6.5-8.79-15.45-14.4-26.78-16.77l-3.26-.28-1.95-.09c-.12-.01-.23-.06-.32-.14-.5-.48-.39-1.32.33-2.51,14.23.59,25.65,6.54,34.16,17.8.5.66,1.34.96,2.14.78,5.09-1.17,9.79-.07,14.06,3.28.29.23.69.24.99.03l.26-.18,3.14-2.01,2.5-1.16,2.18-.43.95.07.9.27,1.5,1.08,1.14,1.73c1.03,2.14,1.4,4.52,1.09,7.12Z"/>
    <path class="cls-7" d="M870.51,1736.75c.64-.11,1.16-.07,1.55.12-.11,1.76.87,2.62,2.94,2.56,34.83-.95,68.45-1.89,100.6-2.8.44-.01.8.33.81.77,0,.01,0,.02,0,.03l-.95,66.13c0,.21-.17.38-.38.4l-90.34,8.29c-.28.03-.51.26-.53.54-.07,1.01-.29,1.88-.65,2.63-.68.39-1.35.32-2-.23l-.18-2.12c-.02-.26-.25-.46-.52-.44,0,0,0,0-.01,0l-77.02,7.07c-.28.02-.52-.18-.54-.46,0-.02,0-.03,0-.05l1.11-77.08c0-.4.32-.72.71-.73l60.69-1.68c.25,0,.72,0,1.4.02,2.13.05,3.24-.94,3.31-2.97Z"/>
    <path d="M589.12,1740.86c.14,1.33.09,3.13-.16,5.39-.13,1.24-.53,2.2-1.22,2.87-1.32.22-1.91-.15-1.78-1.12.31-2.18.56-4.39.76-6.62.03-.33.26-.61.58-.71.49-.15,1.09-.09,1.82.19Z"/>
    <path class="cls-4" d="M1258.08,1837.26c-.55,2.07-2.1,3.64-4.64,4.71.73-1.07.85-1.81.35-2.21-.8-.64-1.96-.56-2.69.18-28.17,28.56-57.78,58.24-88.59,88.81-18.9,18.69-47.1,47.99-84.38,87.67-.4.43-.69.94-.84,1.5-.67,2.54-2.19,4-4.54,4.37-1.34.21-2.37.63-3.1,1.27-1.92,1.69-3.05,3.65-3.4,5.85-.02.16-.17.27-.33.25-.01,0-.02,0-.03,0-1.29-.33-2.28-.24-2.97.26-.36.28-1.93,1.81-4.7,4.56l-105.04,106.72c-11.55,11.78-21.34,22.08-29.31,30.81H0v-166c22.67-6.08,45.39-12.27,67.97-18.52.35-.1.56-.25.63-.45.07-.23.04-.49-.09-.79,1.24-1.08,2.83-1.49,4.77-1.24.18.59.51.82.98.68,19.57-5.64,37.17-11.17,52.67-16.55,1.34-.46,2.67-.93,3.98-1.38,18.82-6.49,37.75-14.58,56.63-24.23l19.74-10.27,24.04-12.47,16.99-8.28c28.63-13.29,59.55-25.04,92.51-35.18,24.13-7.42,48.08-14.59,71.65-21.46l48.04-14.49,33.37-10.15,25.19-7.35c26.51-7.51,60.77-16.45,102.51-26.76,12.94-3.2,21-5.01,24.1-5.4.31-.04.6.18.64.5,0,.02,0,.05,0,.07l-.34,23.66c-.01,1.1.82,2.02,1.91,2.11,64.26,5.25,113.92,9.35,148.44,12.26,3.73.31,7.52.29,11.34-.07l168.46-15.87c1.65-.15,2.49-1.18,2.5-3.08.18-26.94.36-47.15.54-60.48,0-.25.21-.45.47-.45l16.96-.1,13.39-.33,13.79-.55,30.97-1.87c37.45-2.7,64.35-4.48,80.49-5.34,26.69-1.46,53.59-1.36,80.5.3,28.53,1.76,55.43,3.84,80.52,6.22,13.13,1.25,26.2,2.88,39.1,4.89.17.02.29.18.26.35,0,.07-.04.13-.09.18-26.11,26.34-52.67,53.5-79.49,81.26-.58.6-.67,1.53-.2,2.22.46.69,1.21.58,2.24-.33Z"/>
    <path d="M1448,1744.03v3.04c-9.24,0-15.59.02-19,.09l-6.52.29-6.64.57-6.58.83-6.72,1.11-6.8,1.38-6.97,1.66-7.25,1.98-7.51,2.29c-1.17.37-1.85.02-2.03-1.05.05-.62.3-1.01.77-1.18,15.51-5.65,30.66-9.06,45.31-10.22,7.01-.55,17.01-.81,29.94-.79Z"/>
    <path class="cls-4" d="M1448,1747.07v25.92c-19.54-2.73-38.92-6.59-57.99-11.55-.7-.18-1.42.19-1.67.87l-.03.07c-.22.61.09,1.28.69,1.5.03.01.07.02.1.03,19.27,5.29,38.95,9.29,58.9,11.99v396.1h-398.3c23.71-30.13,47.38-60.19,70.82-89.97.52-.66.52-1.32.01-1.98,1.71-1.03,2.31-1.87,1.79-2.52,1.46-.31,2.05-.97,1.74-1.96.85-.13,1.11-.73.78-1.8l.86-.05c.31-.02.59-.19.75-.46.21-.35.32-.69.34-1.02l5.19-6.24c.73.49,1.38.53,1.93.11.18-.13.28-.34.29-.56l.06-3.06c3.78-3.37,6.93-7.16,9.45-11.34.83.57,1.8.23,2.93-1.01,41.51-45.77,78.19-86.87,109.75-123,.95-1.09,1.04-2.07.27-2.93l6.47-7.7c.93,1.07,1.78,1.11,2.53.14,39.84-51.3,79-101.71,117.19-150.84.49-.63.53-1.3.13-1.99-.22-.37-.84-.55-1.86-.53-.16-.9-.79-1.64-1.9-2.23-.64-.33-1.26-.37-1.87-.11-2.42-1.4-5.29-2.4-8.6-2.98l3.23-1.75c.18,1.07.86,1.42,2.03,1.05l7.51-2.29,7.25-1.98,6.97-1.66,6.8-1.38,6.72-1.11,6.58-.83,6.64-.57,6.52-.29c3.41-.07,9.76-.1,19-.09Z"/>
    <path d="M574.15,1804.88c-.64.37-1.38.52-2.21.46-.32-.02-.57-.27-.59-.59l-.15-5,.16-5.17.46-5.24.76-5.22,1.03-5.08,1.3-4.89,1.51-4.51,1.76-4.17c.14-.3.12-.66-.06-.94-.61-.95-1.34-1.83-2.18-2.64l-2.64-2.4-2.27-1.7-2.16-1.21-2.11-.75-3.18-.43-3.47.3c-.59.1-1.15-.29-1.25-.88-.06-.37.07-.75.36-1,.69-.59,1.63-.97,2.82-1.14l2.87.05,2.62.46,2.99,1.09,2.91,1.72,2.99,2.42,3.29,3.3c.15.16.4.17.57.02.02-.02.04-.04.06-.07l7.47-10.58c1.53.87,1.7,2.27.5,4.21l-2.78,4.24-3.7,5.82-2.33,4.81-.87,2.4c-3.38,10.38-4.88,21.18-4.48,32.31Z"/>
    <path class="cls-1" d="M1377.35,1760.95c.61-.26,1.23-.22,1.87.11,1.11.59,1.74,1.33,1.9,2.23-40.28,51.86-79.51,102.33-117.32,150.98-.6.77-.82,1.52-.67,2.24l-6.47,7.7c-.86-.16-1.66.19-2.41,1.04-36.43,41.46-73.28,82.79-110.3,123.68-.69.77-.77,1.51-.24,2.22-2.52,4.18-5.67,7.97-9.45,11.34-.25-2.1-.43-3.86-.54-5.28-.05-.67-.64-1.17-1.32-1.12,0,0,0,0,0,0-.64.05-.97.34-.99.87-.11,3.04.09,6.06.58,9.04l-5.19,6.24c-.29-1.73-.59-3.29-.9-4.67-.14-.62-.45-.98-.92-1.09-.7-.15-1.38.29-1.53.99-.02.11-.03.22-.03.33.11,2.42.59,4.41,1.43,5.97.33,1.07.07,1.67-.78,1.8-1.1-3.19-2.24-6.35-3.42-9.46-.25-.64-.68-.93-1.31-.87-.73.07-1.25.72-1.18,1.45,0,.08.02.16.05.24,1.08,3.69,2.46,7.23,4.12,10.6.52.65-.08,1.49-1.79,2.52-.84-.74-1.57-.72-2.18.06-24.09,30.58-48.25,61.29-72.31,91.89h-118.71c45.08-46.4,90.59-92.77,136.2-138.76.56-.57,1.2-1.38,1.93-2.43.65-.95,1.58-1.8,2.79-2.53,1.31-.8,2.87-2.48,4.66-5.02.07-.09.14-.18.23-.25l3.91-3.2c.17-.14.39-.22.62-.23.89-.03,1.95-.7,3.17-1.99,18.44-19.59,37.98-40.02,58.46-61.13l57.12-57.2c19.1-18.98,38.15-38.13,57.02-57.29,2.54-1.07,4.09-2.64,4.64-4.71l81.17-82.35c.32-.32.78-.47,1.22-.39,11.51,2.04,23.06,4.78,34.57,8.19,1.48.44,2.25-.15,2.31-1.76Z"/>
    <path d="M1448,1772.99v2.91c-19.95-2.7-39.63-6.7-58.9-11.99-.62-.16-.99-.8-.82-1.43,0-.03.02-.07.03-.1l.03-.07c.25-.68.97-1.05,1.67-.87,19.07,4.96,38.45,8.82,57.99,11.55Z"/>
    <path d="M1381.12,1763.29c1.02-.02,1.64.16,1.86.53.41.69.37,1.36-.13,1.99-38.18,49.13-77.35,99.54-117.19,150.84-.75.97-1.6.93-2.53-.14-.15-.72.07-1.47.67-2.24,37.81-48.65,77.04-99.12,117.32-150.98Z"/>
    <path d="M137.06,1849.34c-1.9-.27-2.63-1.14-2.17-2.62l2.12-7,1.26-4.83.85-4.4.46-4.21.08-1.51c.3-8.45-.74-17.1-3.11-25.9l-1.69-4.77-2.4-4.56-2.98-4.12-3.53-3.63-3.87-2.92-4.08-2.13-2.12-.79-2.2-.58-2.15-.37-2.21-.16h-.82c-4.06.05-8.06.51-11.99,1.39-.97.22-1.99.05-2.84-.46-4.38-2.66-9.2-3.95-14.42-3.86l-5.24.2-5.04.44-4.78.67-4.58.91-4.45,1.16-4.24,1.38-4.18,1.67-3.94,1.89-1.18.26-1.4-.24c-.81-1.26-.6-2.22.65-2.89l5.07-2.51,5.01-2.05,4.78-1.53,4.64-1.03c7.07-1.2,13.3-1.85,18.63-1.94l4.13.15,3.75.6,4.06,1.23,4.25,1.92c.36.18.76.25,1.15.19,2.16-.3,4.74-.64,7.7-1.02l2.76-.24h2.69s2.71.26,2.71.26l2.62.48,4.18,1.31,4.08,1.98,3.8,2.58,3.42,3.1,3.13,3.68,2.69,4.08,2.23,4.52,1.71,4.78c4.63,15.84,4.22,31.85-1.23,47.91-.53,1.56-1.12,2.74-1.77,3.53Z"/>
    <path class="cls-3" d="M137.06,1849.34c-.81.48-.58,1.07.68,1.77l-.81.49-.5.68-.19.78.15.77.36.51.58.39c2.32,1.07,4.55,2.24,6.69,3.51l3.43,2.38,3.01,2.86,1.76,2.2,1.51,2.34,1.31,2.59,1.07,2.72.89,3.04.65,3.15.43,3.35.24,3.65c.34,9.8-1.06,19.28-4.18,28.36-.69,2.03-2.65,7.1-5.87,15.16-.45,1.15-.3,1.94.47,2.37l-1.11.54-1.07,1.31-.96,2.04-.7,2.36c-.03.17-.09.34-.17.5l-4.48,9.52c.07-1.86-.43-2.81-1.51-2.85-.98-.04-1.87.58-2.22,1.54-2.22,6.18-5.18,11.6-8.85,16.21l-1.22,1.39-1.26,1.08-1.75,1.04-2.24.89c-12.57,4.22-24.59,8.03-35.98,11.41-.73.22-1.49.34-2.26.35-10.91.22-21.31-1.54-31.14-5.28l-9.94-3.77c-.28-.1-.59-.14-.89-.09l-1.12.19c-.03-.09-.05-.21-.08-.34-.03-.19-.15-.36-.31-.45l-12.44-7.19c1.04.19,1.65.09,1.83-.28l.23-.92-.3-1.18-.97-1.17-1.56-1.03-1.57-.52c.31-1.02.31-2.34-.01-3.96-.17-.84-.8-1.2-1.89-1.07,1.36.01,2.12-.07,2.26-.26.57-.76.73-1.76.41-2.66-4.57-12.69-5.17-25.54-1.77-38.47.23-.91.03-1.71-.62-2.4l.5-5.18c1.07.17,1.75,0,2.05-.48.57-.91.47-2.08-.25-2.89-2.3-2.6-4.22-5.33-5.73-8.18-5.16-9.71-8.06-20.1-8.67-31.09-.02-.41-.11-.81-.28-1.18.26-.11.34-.33.23-.64-.71-1.99-1.24-4.19-1.59-6.57l1.18.21.87-.3.37-.52.14-.78c.14-4.75-.19-9.14-.98-13.12-.34-2.28-.15-4.44.58-6.48.57-3.15,1.07-6.4,1.49-9.72.57-4.5,1.16-7.72,1.78-9.62,2.85-8.76,7.8-16.29,14.8-22.53,1.12-.98,4.21-3.22,9.26-6.71.71-.49.96-1.19.76-2.09l.63-.77,1.4.24,1.18-.26,3.94-1.89,4.18-1.67,4.24-1.38,4.45-1.16,4.58-.91,4.78-.67,5.04-.44,5.24-.2c5.22-.09,10.04,1.2,14.42,3.86.85.51,1.87.68,2.84.46,3.93-.88,7.93-1.34,11.99-1.39h.82l2.21.16,2.15.37,2.2.58,2.12.79,4.08,2.13,3.87,2.92,3.53,3.63,2.98,4.12,2.4,4.56,1.69,4.77c2.37,8.8,3.41,17.45,3.11,25.9l-.08,1.51-.46,4.21-.85,4.4-1.26,4.83-2.12,7c-.46,1.48.27,2.35,2.17,2.62Z"/>
    <path d="M39.59,1781.02c.2.9-.05,1.6-.76,2.09-5.05,3.49-8.14,5.73-9.26,6.71-7,6.24-11.95,13.77-14.8,22.53-.62,1.9-1.21,5.12-1.78,9.62-.42,3.32-.92,6.57-1.49,9.72-1.84-.01-2.76-.83-2.74-2.45.24-21.91,9.68-38.29,28.25-49.01,1.03-.59,1.89-.33,2.58.79Z"/>
    <path class="cls-6" d="M881.56,1815.19c.65.55,1.32.62,2,.23l91.8-8.45c.1-.01.2.07.21.18,0,0,0,.01,0,.02l-.13,3.94c0,.14-.11.26-.25.27-52.86,4.98-108.9,10.26-167.93,15.82-3.55.34-7.39.34-11.49-.01-33.77-2.85-82.61-6.88-146.03-12.06-.35-.03-.62-.32-.61-.67l.06-3.67c0-.28.22-.5.5-.5.02,0,.04,0,.05,0,58.54,4.77,107.52,8.82,146.47,12.1,4.29.36,8.15.37,11.57.04l73.54-6.81c.08,0,.14-.05.18-.11.06-.09.08-.2.06-.32Z"/>
    <path d="M10.92,1838.17c.79,3.98,1.12,8.37.98,13.12l-.14.78-.37.52-.87.3-1.18-.21c-.43-3.14-.68-7.29-.76-12.41-.03-1.5.76-2.21,2.34-2.1Z"/>
    <path d="M1253.44,1841.97c-18.87,19.16-37.92,38.31-57.02,57.29l-57.12,57.2c-20.48,21.11-40.02,41.54-58.46,61.13-1.22,1.29-2.28,1.96-3.17,1.99-.23,0-.45.09-.62.23l-3.91,3.2c-.09.07-.16.16-.23.25-1.79,2.54-3.35,4.22-4.66,5.02-1.21.73-2.14,1.58-2.79,2.53-.73,1.05-1.37,1.86-1.93,2.43-45.61,45.99-91.12,92.36-136.2,138.76h-3.46c7.97-8.73,17.76-19.03,29.31-30.81l105.04-106.72c2.77-2.75,4.34-4.28,4.7-4.56.69-.5,1.68-.59,2.97-.26.16.04.31-.05.35-.21,0-.01,0-.02,0-.03.35-2.2,1.48-4.16,3.4-5.85.73-.64,1.76-1.06,3.1-1.27,2.35-.37,3.87-1.83,4.54-4.37.15-.56.44-1.07.84-1.5,37.28-39.68,65.48-68.98,84.38-87.67,30.81-30.57,60.42-60.25,88.59-88.81.73-.74,1.89-.82,2.69-.18.5.4.38,1.14-.35,2.21Z"/>
    <path d="M137.74,1851.11c14.17,5.14,22.1,15.2,23.75,30.12l.46,6.83-.14,6.7-.39,4.17-.65,4.27-.88,4.22-1.15,4.35-1.4,4.45-1.67,4.64-4.47,10.63c-.57,1.28-1.39,1.59-2.46.92-.77-.43-.92-1.22-.47-2.37,3.22-8.06,5.18-13.13,5.87-15.16,3.12-9.08,4.52-18.56,4.18-28.36l-.24-3.65-.43-3.35-.65-3.15-.89-3.04-1.07-2.72-1.31-2.59-1.51-2.34-1.76-2.2-3.01-2.86-3.43-2.38c-2.14-1.27-4.37-2.44-6.69-3.51l-.58-.39-.36-.51-.15-.77.19-.78.5-.68.81-.49Z"/>
    <path d="M10.7,1859.89c.17.37.26.77.28,1.18.61,10.99,3.51,21.38,8.67,31.09,1.51,2.85,3.43,5.58,5.73,8.18.72.81.82,1.98.25,2.89-.3.49-.98.65-2.05.48-2.88-2.94-5.45-6.64-7.69-11.06-4.98-9.85-7.59-20.36-7.81-31.46l.15-.8.43-.56.92-.29,1.12.35Z"/>
    <path d="M23.08,1908.89c.65.69.85,1.49.62,2.4-3.4,12.93-2.8,25.78,1.77,38.47.32.9.16,1.9-.41,2.66-.14.19-.9.27-2.26.26-5.18-13.45-6.02-27.62-2.51-42.41.33-1.39,1.27-1.85,2.79-1.38Z"/>
    <path d="M1256.66,1924.21c.77.86.68,1.84-.27,2.93-31.56,36.13-68.24,77.23-109.75,123-1.13,1.24-2.1,1.58-2.93,1.01-.53-.71-.45-1.45.24-2.22,37.02-40.89,73.87-82.22,110.3-123.68.75-.85,1.55-1.2,2.41-1.04Z"/>
    <path d="M24.7,1957.71l1.57.52,1.56,1.03.97,1.17.3,1.18-.23.92c-.18.37-.79.47-1.83.28-1.27-.7-2.34-1.49-3.2-2.36l-.51-.92.1-.94.47-.55.8-.33Z"/>
    <path d="M68.51,1986.24c.13.3.16.56.09.79-.07.2-.28.35-.63.45-22.58,6.25-45.3,12.44-67.97,18.52v-3.18c22.23-5.92,44.56-11.93,66.81-17.98.83-.23,1.4.24,1.7,1.4Z"/>
    <path d="M1134.26,2062.49l-.06,3.06c0,.22-.11.43-.29.56-.55.42-1.2.38-1.93-.11-.49-2.98-.69-6-.58-9.04.02-.53.35-.82.99-.87.68-.06,1.27.44,1.33,1.11h0c.11,1.42.29,3.19.54,5.29Z"/>
    <path d="M1124.06,2075.57c.31.99-.28,1.65-1.74,1.96-1.66-3.37-3.04-6.91-4.12-10.6-.21-.7.19-1.43.89-1.64.08-.02.16-.04.24-.05.63-.06,1.06.23,1.31.87,1.18,3.11,2.32,6.27,3.42,9.46Z"/>
    <path d="M1126.79,2072.24c-.02.33-.13.67-.34,1.02-.16.27-.44.44-.75.46l-.86.05c-.84-1.56-1.32-3.55-1.43-5.97-.03-.71.52-1.31,1.23-1.35.11,0,.22,0,.33.03.47.11.78.47.92,1.09.31,1.38.61,2.94.9,4.67Z"/>
    <path d="M1120.53,2080.05c.51.66.51,1.32-.01,1.98-23.45,29.78-47.11,59.84-70.82,89.97h-3.66c24.06-30.6,48.22-61.31,72.31-91.89.61-.78,1.34-.8,2.18-.06Z"/>
  </g>
  <g>
    <path class="cls-6" d="M716.83,1618.16l.6.88c.3.44.3,1.01.02,1.45l-70.92,109.3c-.48.75-.56,1.74-.25,2.98.09.36-.09.73-.43.88l-1.58.58-1.41.27-1.22-.09-.89-.41-.53-.55-.4-.79c-.45-1.28-.3-2.49.47-3.61,27.47-40.35,52.66-77.39,75.4-110.88.21-.32.64-.4.96-.19.07.05.13.11.18.18Z"/>
    <path class="cls-8" d="M706.48,1661.02l26.74-.46c1.49-.03,2.71,1.15,2.74,2.64,0,.03,0,.06,0,.09l-.54,37.01c-.02,1.49-1.24,2.67-2.73,2.65-.02,0-.03,0-.05,0l-25.58-.84c-1.43-.05-2.57-1.21-2.6-2.64l-.62-35.71c-.03-1.49,1.15-2.71,2.64-2.74h0Z"/>
    <circle cx="1149.31" cy="1700.93" r="1.36"/>
    <path class="cls-8" d="M684.38,1743.56l26.78-.46c1.47-.03,2.69,1.14,2.72,2.62,0,.03,0,.06,0,.09l-.54,37.04c-.02,1.47-1.23,2.65-2.71,2.63-.02,0-.03,0-.05,0l-25.62-.84c-1.42-.05-2.55-1.2-2.58-2.62l-.62-35.74c-.03-1.47,1.14-2.69,2.62-2.72h0Z"/>
    <rect class="cls-8" x="737.97" y="1780.98" width="62.8" height="9.46" rx=".3" ry=".3" transform="translate(-1037.13 2504.92) rotate(-88.4)"/>
    <path class="cls-6" d="M777.93,1754.33l12.87,1.05c.18.01.32.16.31.34l-.91,62.72c0,.18-.16.33-.34.32,0,0-.01,0-.02,0l-12.87-1.05c-.18-.01-.32-.16-.31-.34l.91-62.72c0-.18.16-.33.34-.32,0,0,.01,0,.02,0Z"/>
    <rect x="1136.63" y="1813.57" width="3.76" height="22.92" rx="1.83" ry="1.83" transform="translate(-282.79 210.45) rotate(-9.4)"/>
    <rect x="1142.2" y="1831.2" width="11.78" height="3.66" rx="1.76" ry="1.76" transform="translate(-819.11 2732.04) rotate(-82.5)"/>
    <rect x="1153.3" y="1830.4" width="10.52" height="3.66" rx="1.76" ry="1.76" transform="translate(-882.43 1101.69) rotate(-38)"/>
    <ellipse cx="1005.32" cy="1869.25" rx="3.53" ry="1.96" transform="translate(-1114.35 1760.84) rotate(-58.8)"/>
    <rect x="995.37" y="1868.3" width="3.66" height="9.54" rx="1.75" ry="1.75" transform="translate(-643.24 527.05) rotate(-22.6)"/>
    <rect x="668.88" y="1891.6" width="13.64" height="3.66" rx="1.77" ry="1.77" transform="translate(-1283.63 2343.61) rotate(-83.3)"/>
    <rect x="675.37" y="1892.58" width="11.4" height="3.66" rx="1.78" ry="1.78" transform="translate(-1321.29 1686.58) rotate(-64.3)"/>
    <rect x="685.37" y="1890.21" width="3.6" height="5.94" rx="1.67" ry="1.67" transform="translate(-1214.26 2557.17) rotate(-89.3)"/>
    <ellipse cx="1413.81" cy="1918.21" rx="1.95" ry="3.53" transform="translate(-443.09 424.79) rotate(-14.8)"/>
    <rect x="1404.06" y="1916.9" width="3.68" height="12.68" rx="1.78" ry="1.78" transform="translate(-500.87 495.08) rotate(-17)"/>
    <ellipse cx="364.73" cy="1938.64" rx="2.8" ry="1.88" transform="translate(-1607.53 1899.22) rotate(-78.2)"/>
    <rect x="137.13" y="1938.86" width="8.5" height="3.38" rx="1.61" ry="1.61" transform="translate(-1728.63 1403.17) rotate(-69.8)"/>
    <rect x="357.74" y="1937.81" width="3.64" height="9.1" rx="1.75" ry="1.75" transform="translate(-1034.49 542.83) rotate(-34.4)"/>
    <path d="M536.61,1994.62l-.44-4.83c-.07-.8.51-1.5,1.31-1.58h.01s.69-.07.69-.07c.86-.08,1.61.56,1.69,1.41l.65,7.08c.04.37-.11.73-.39.97-1,.87-1.84.8-2.51-.21-.14-.22-.44-.27-.65-.13-.04.03-.08.06-.11.1-.48.62-1.09.9-1.84.85-.31-.03-.6-.16-.82-.38l-11.79-12.08c-.67-.69-.65-1.78.04-2.45.05-.05.1-.09.15-.13l.27-.21c.63-.47,1.5-.41,2.06.14l11.57,11.57s.05.04.08.03c.03-.01.04-.05.03-.08h0Z"/>
    <rect x="541.74" y="1989.96" width="8.08" height="3.62" rx="1.72" ry="1.72" transform="translate(-1516.54 2100.71) rotate(-77.7)"/>
    <rect x="821.03" y="1992.64" width="3.64" height="10.86" rx="1.74" ry="1.74" transform="translate(-123.84 55.61) rotate(-3.6)"/>
    <rect x="833.52" y="1993.36" width="3.62" height="9.4" rx="1.73" ry="1.73" transform="translate(-324.71 169.31) rotate(-9.7)"/>
    <rect x="839.66" y="1995.05" width="6.82" height="3.62" rx="1.72" ry="1.72" transform="translate(-1152 1149.57) rotate(-44.1)"/>
    <rect x="1358.85" y="2041.59" width="23.44" height="3.76" rx="1.84" ry="1.84" transform="translate(-1077.15 2294.26) rotate(-62)"/>
    <path d="M149.06,2055.03c.05.09.16.13.25.09.06-.03.1-.09.11-.17.04-1.7.51-2.63,1.41-2.78,1.06-.18,2.06.52,2.24,1.57.01.07.02.15.03.22l.06.8.03,2.09-.51,1.3-.51.48-.74.36c-.41.14-.74.44-.93.84l-.14.31c-.41.89-1.46,1.27-2.35.86-.39-.18-.69-.49-.87-.88l-7.95-17.67c-.4-.89,0-1.94.88-2.34l.07-.03c.88-.42,1.93-.05,2.35.83,0,0,0,.02.01.02l6.56,14.1Z"/>
    <path d="M1352.57,2052.63l.41-1.57c.25-.94,1.16-1.54,2.12-1.39h.03c.95.15,1.6,1.04,1.45,1.99,0,.06-.02.11-.03.17l-1.76,6.79c-.24.94-1.2,1.5-2.13,1.26-.44-.11-.82-.4-1.06-.79l-8.28-13.71c-.41-.67-.2-1.55.48-1.97.05-.03.11-.06.16-.08l.21-.1c.95-.46,2.09-.11,2.64.79l5.25,8.68c.08.13.25.18.38.1.06-.04.11-.1.13-.17Z"/>
    <rect x="156.03" y="2050.4" width="14.02" height="3.68" rx="1.79" ry="1.79" transform="translate(-1821.2 1503.54) rotate(-70)"/>
    <rect x="388.61" y="2087.82" width="3.7" height="14.1" rx="1.79" ry="1.79" transform="translate(-505.33 161.35) rotate(-14.3)"/>
    <rect x="395.45" y="2093.85" width="7.78" height="3.62" rx="1.72" ry="1.72" transform="translate(-1727.12 1924.15) rotate(-74.6)"/>
    <rect x="836.37" y="2105.07" width="3.68" height="13.64" rx="1.79" ry="1.79" transform="translate(-1055.37 856.09) rotate(-34.8)"/>
    <ellipse cx="845.06" cy="2109.75" rx="1.96" ry="3.33" transform="translate(-894.11 646.72) rotate(-28.1)"/>
  </g>
  <g>
    <rect x="719.77" y="1667.75" width="13.8" height="9.08" rx=".4" ry=".4" transform="translate(-946.89 2396.04) rotate(-89.9)"/>
    <rect x="708.72" y="1665.6" width="8.74" height="13.62" rx=".35" ry=".35" transform="translate(-14.57 6.29) rotate(-.5)"/>
    <rect x="708.88" y="1683.87" width="8.7" height="13.84" rx=".41" ry=".41" transform="translate(-2.95 1.25) rotate(-.1)"/>
    <rect x="719.46" y="1686.62" width="14.28" height="8.7" rx=".48" ry=".48" transform="translate(-969.4 2405.75) rotate(-89.6)"/>
    <rect x="697.68" y="1750.25" width="13.8" height="9.1" rx=".42" ry=".42" transform="translate(-1051.45 2456.32) rotate(-89.9)"/>
    <rect x="686.64" y="1748.13" width="8.74" height="13.64" rx=".41" ry=".41" transform="translate(-15.29 6.1) rotate(-.5)"/>
    <rect x="697.38" y="1769.15" width="14.26" height="8.7" rx=".4" ry=".4" transform="translate(-1076.27 2459.4) rotate(-89.4)"/>
    <rect x="686.82" y="1766.42" width="8.68" height="13.82" rx=".41" ry=".41" transform="translate(-9.28 3.64) rotate(-.3)"/>
  </g>
</svg>